<svg xmlns="http://www.w3.org/2000/svg" viewBox="0 0 700 700"><defs><style>.cls-1{fill:#d62024;}.cls-2{fill:#f5eded;}.cls-3{fill:#fff;}</style></defs><g id="Capa_3" data-name="Capa 3"><circle class="cls-1" cx="598.54" cy="352.2" r="315.07"/><path class="cls-2" d="M631.25,320.79c-.34,0-.42.24-.47.55a21.27,21.27,0,0,1-4,9,21.66,21.66,0,0,1-6.67,5.92,37.32,37.32,0,0,1-5.27,2.32,13.69,13.69,0,0,0-3.82,2.33c-1.41,1.18-2.77,2.43-4.14,3.66a5.77,5.77,0,0,1-1.13.71,10.91,10.91,0,0,1,.12-2.39c.18-.93.16-1.9.3-2.86.28-1.89.56-3.79.66-5.69.06-1.23.34-2.44.28-3.67,0-.51.15-.73.67-.86,1.9-.49,3.8-.95,5.67-1.54a26.44,26.44,0,0,0,8.41-3.94,14.16,14.16,0,0,0,4-4.7,30.27,30.27,0,0,0,3.06-9.82c.11-.7.5-1.34.59-2.09a7,7,0,0,1,1,2.52,5,5,0,0,1,.27,1.59c0,.27.19.39.45.43Z"/><path class="cls-2" d="M458.4,490.57c0-.42-.33-.45-.66-.47a50.72,50.72,0,0,1-13.61-3.3,84,84,0,0,1-9.26-4.1,59.79,59.79,0,0,1-7.43-4.41c-1.57-1.11-3.16-2.19-4.63-3.43a30.06,30.06,0,0,1-5.13-4.95l-.16-.17c-1-1.09-.94-1.18.26-2.07a7.73,7.73,0,0,0,.64-.49c1-.91,1-.89,2.15-.15,1.78,1.14,3.58,2.24,5.37,3.38l7.46,4.79c1.88,1.2,3.74,2.44,5.67,3.53,1.41.79,2.92,1.38,4.4,2l5.18,2.26q3.92,1.71,7.81,3.45l6.64,3a1.44,1.44,0,0,1,.72.5c-.27.29-.63.13-.93.16s-.52.13-.55.47Z"/><path class="cls-2" d="M281.85,333.76a20.22,20.22,0,0,1-1.74,4.12,17.19,17.19,0,0,0-1.78,6,27.07,27.07,0,0,0,.33,6.5,22,22,0,0,0,1.85,6.39,5.34,5.34,0,0,0,4.2,2.89c2.75.4,6.15-1.25,7.32-3.29a7.18,7.18,0,0,0,.37-6.49c-.84-2.17-2-4.26-2.3-6.6a15.35,15.35,0,0,1-.21-5,24.17,24.17,0,0,1,.82-3.68,22,22,0,0,1,3.54-6.16,34.58,34.58,0,0,1,3.82-4,42.67,42.67,0,0,1,5.3-4.05c1.17-.8,2.39-1.54,3.57-2.31a1.23,1.23,0,0,1,.63-.27h0c0,1-.74,1.67-1.19,2.46-.87,1.49-1.87,2.91-2.69,4.43a20.63,20.63,0,0,0-2.05,4.88,12.47,12.47,0,0,0,.2,6.12c.87,3.26,3.32,4.29,6.12,5a6.78,6.78,0,0,0,2.84.08c2.2-.33,4-3.18,4-5,0-.73,0-1.46,0-2.2a2.69,2.69,0,0,0-.25-1.35c-.53-1-.76-2.17-1.19-3.24a10.6,10.6,0,0,1-.61-3.15,16.06,16.06,0,0,1,.49-6.4,22.63,22.63,0,0,1,2.31-5,30.05,30.05,0,0,1,5.24-6.26,39.63,39.63,0,0,1,5.19-4.19c1.56-1,3.14-2.06,4.67-3.15a1.2,1.2,0,0,1,.29-.19c.15-.06.33-.07.41.09a.35.35,0,0,1,0,.31c-.63,1-1.25,1.93-1.91,2.87a39.73,39.73,0,0,0-3.62,6.29,16.06,16.06,0,0,0-1,4.35c-.48,2.84.33,5.55.71,8.3a.88.88,0,0,0,.22.52,7,7,0,0,0,4.93,2.46,3.94,3.94,0,0,0,1.84-.61,7.84,7.84,0,0,0,2.94-2.51,3.12,3.12,0,0,0,.49-1.86,16,16,0,0,1,.22-3.91,17,17,0,0,1,3.33-6.87,28.34,28.34,0,0,1,7.9-6.08c3.17-1.81,6.56-3.2,9.84-4.79.17-.08.33-.21.57-.13.19.32-.09.5-.28.63-1.86,1.24-2.91,3.13-4.05,5-.82,1.31-1.58,2.64-2.36,4a36.06,36.06,0,0,0-2.34,5,1.53,1.53,0,0,0-.05,1,11.76,11.76,0,0,0,1.65,3.28,2.58,2.58,0,0,0,3,.87,13.47,13.47,0,0,0,5.24-2.81,3.17,3.17,0,0,0,1-2.39,13.35,13.35,0,0,1,2-6.88,22.9,22.9,0,0,1,7.34-7.35,35.06,35.06,0,0,1,6.56-3.37,31.5,31.5,0,0,1,7.22-1.9c.48-.06.94-.39,1.53-.14a4.1,4.1,0,0,1-1.82,1.64,49.1,49.1,0,0,0-5,3.75,14.79,14.79,0,0,0-3.66,4.14,13.13,13.13,0,0,0-1.18,3.72,26.19,26.19,0,0,0-.33,3.44,3,3,0,0,0,1.58,2.84,4.44,4.44,0,0,0,6.46-1.8c.44-.93.78-1.91,1.28-2.83a15.34,15.34,0,0,1,7.91-7.09,31.52,31.52,0,0,1,9-1.92c2.08-.2,4.15-.15,6.23-.18.66,0,1.27-.28,1.94-.25a16.15,16.15,0,0,1,4.15.31c-.15.35-.52.4-.8.55-2.69,1.35-5.4,2.67-8.07,4a41.59,41.59,0,0,0-5.84,3.5,7.66,7.66,0,0,0-3.36,6.48c0,.9-.18,1.76-.25,2.64,0,.39-.23.51-.58.57-1.24.21-2.48.47-3.73.67-1.74.27-3.49.47-5.23.76-2,.33-4.06.76-6.11,1.07-3.15.49-6.25,1.22-9.34,2-3.62.9-7.2,1.93-10.72,3.18s-7,2.58-10.41,4.1-6.81,3.19-10.11,5c-2,1.09-3.95,2.21-5.89,3.4s-3.69,2.35-5.56,3.48c-1.57,1-3,2.14-4.5,3.21-2,1.41-3.94,2.81-5.81,4.34-1.52,1.24-3.06,2.45-4.56,3.71-1.73,1.46-3.44,2.95-5.13,4.45-.78.69-1.52,1.42-2.31,2.09-1.78,1.53-3.46,3.18-5.23,4.72-2.12,1.84-4.2,3.72-6.3,5.58l-6.2,5.52c-2.1,1.86-4.19,3.74-6.3,5.58s-4,3.58-6.1,5.28c-1,.84-2,1.77-3,2.69-1.73,1.58-3.56,3.05-5.27,4.64-.88.82-1.8,1.57-2.68,2.38-1.5,1.37-3.08,2.67-4.62,4-.73.63-1.42,1.29-2.16,1.92-1.81,1.54-3.51,3.22-5.31,4.78-.67.58-1.35,1.15-2,1.77A1,1,0,0,0,247,409c.26.65.47.74,1.08.36,2.57-1.62,5.12-3.26,7.69-4.88,1.66-1.05,3.35-2,5-3.1,2-1.27,3.93-2.55,5.84-3.9a62.15,62.15,0,0,0,5-3.71c1.19-1,2.39-2,3.63-3,2.46-1.91,4.65-4.13,7.13-6,.8-.6,1.46-1.36,2.24-2,1.65-1.38,3.19-2.89,4.81-4.3,2.32-2,4.62-4.07,6.88-6.15,2-1.85,4.09-3.63,6.12-5.45,2.34-2.1,4.76-4.12,7.1-6.23.86-.77,1.73-1.53,2.58-2.31,1.78-1.64,3.65-3.17,5.53-4.69,1.37-1.12,2.7-2.27,4.09-3.37,1.67-1.31,3.43-2.47,5.09-3.77a93.63,93.63,0,0,1,8.07-5.53,119.78,119.78,0,0,1,10.57-6c2.88-1.44,5.8-2.82,8.77-4.07a115.4,115.4,0,0,1,14.72-5c3.71-1,7.47-1.77,11.24-2.43,2-.35,3.94-.6,5.92-.8,2.64-.27,5.27-.48,7.91-.71a94.66,94.66,0,0,1,9.82-.12,30.58,30.58,0,0,1,4.35.34c1.36.2,2.74.31,4.11.5,2.16.31,4.3.76,6.43,1.26a64.21,64.21,0,0,1,15.66,6.1,44,44,0,0,1,12.27,9.64q1.9,2.25,3.61,4.63a32.93,32.93,0,0,1,4.24,8.15q.81,2.27,1.44,4.61A39.76,39.76,0,0,1,457,369a33.21,33.21,0,0,1-1,6.7q-.78,3.14-1.8,6.18a66.89,66.89,0,0,1-2.44,6.69c-.38.83-.68,1.71-1,2.57-1.12,3-2.51,5.93-3.78,8.89-1.45,3.38-3.13,6.67-4.59,10.05-.62,1.44-1.13,2.94-1.68,4.41a46.51,46.51,0,0,0-1.58,5.74,29.41,29.41,0,0,0-.63,8.82,26.06,26.06,0,0,0,3.67,11.63,30.23,30.23,0,0,0,4.65,6.28,33.39,33.39,0,0,0,5.62,4.73,30.12,30.12,0,0,0,5,2.46,35.34,35.34,0,0,0,14.15,2.11,37.51,37.51,0,0,0,11.58-2.32,28.09,28.09,0,0,0,7.83-4.79,29,29,0,0,0,5.87-7.34,19.26,19.26,0,0,0,1.38-2.9,75.83,75.83,0,0,0,3.11-9.87c.57-2.3,1.15-4.61,1.63-6.94.38-1.87.88-3.73,1.32-5.59A88.61,88.61,0,0,1,508,404.65c.73-1.89,1.6-3.73,2.49-5.56a79.15,79.15,0,0,1,4.5-7.92c1.3-2,2.79-3.94,4.29-5.84a64.25,64.25,0,0,1,6.78-7.4c2.34-2.16,4.7-4.29,7.24-6.24,2.91-2.22,6-4.22,9.05-6.14,2.78-1.71,5.7-3.19,8.6-4.69,3.48-1.81,6.95-3.64,10.34-5.62,1.86-1.09,3.72-2.18,5.49-3.4a32.63,32.63,0,0,0,7-6.09,28.75,28.75,0,0,0,3.37-4.94,22.64,22.64,0,0,0,1.72-4.64,20.79,20.79,0,0,0,.43-6.43,14.73,14.73,0,0,0-1-4.47,23.08,23.08,0,0,0-2.68-5.08,21.62,21.62,0,0,0-7-6.21c-3.22-1.87-6.8-2.66-10.26-3.8-2.91-1-5.9-1.71-8.86-2.54L542,305.53a116.57,116.57,0,0,1-13.13-4.33,61.69,61.69,0,0,1-10.62-5.56,56,56,0,0,1-4.87-3.85,33.09,33.09,0,0,1-5.24-5.8,33.9,33.9,0,0,1-3.5-5.67c-.58-1.21-1-2.49-1.62-3.68a13.86,13.86,0,0,1-.57-1.86,30.67,30.67,0,0,1-1.54-7.29,28.29,28.29,0,0,1,0-6.82,34.76,34.76,0,0,1,1.28-6.42,51.52,51.52,0,0,1,2.63-6.77,36.78,36.78,0,0,1,4.55-7,40.28,40.28,0,0,1,5.38-5.55q2.22-1.85,4.56-3.51a43.8,43.8,0,0,1,7.37-4.09,55.13,55.13,0,0,1,6.92-2.54,56.15,56.15,0,0,1,6.51-1.47c1.89-.31,3.78-.61,5.68-.88.79-.11,1.6-.15,2.4-.25,1.94-.24,3.91-.26,5.84-.52,1.78-.25,3.58-.4,5.36-.62a55.29,55.29,0,0,0,7.68-1.44,59.61,59.61,0,0,0,8.61-3c2.08-.92,4.17-1.82,6.17-2.89s3.73-2.14,5.55-3.3c2.31-1.47,4.34-3.29,6.56-4.87a19.12,19.12,0,0,0,2.31-2.09c1.87-1.83,3.94-3.47,5.7-5.41,2.49-2.74,5.07-5.38,7.59-8.09a68.15,68.15,0,0,0,6.46-7.81,28.62,28.62,0,0,0,3.71-7.74,48.74,48.74,0,0,0,1.12-6.44,52.43,52.43,0,0,0,.51-5.61c.15-2.49.39-5,.44-7.47a10.66,10.66,0,0,1,.34-1.64c.44,1,.83,1.76,1.1,2.56.59,1.66,1.11,3.35,1.61,5a34.5,34.5,0,0,1,1.12,7.48,22.83,22.83,0,0,1,.23,2.75,45.27,45.27,0,0,1-1,8.55,40.29,40.29,0,0,1-2.47,6.9,30.86,30.86,0,0,1-7.69,10,44.23,44.23,0,0,0-6.66,7.61,8,8,0,0,0-1.13,2.52,3.52,3.52,0,0,0,.89,3.21,5.22,5.22,0,0,0,5.19,1.82,4.45,4.45,0,0,0,2.11-1.13,9,9,0,0,0,2.63-4.65,29.09,29.09,0,0,1,2.57-6.64,13,13,0,0,1,5.46-5.44,4.53,4.53,0,0,1,1.75-.78c.23.38-.08.53-.25.69-2.84,2.74-3.79,6.18-4,10-.15,2.53.06,5.1-.49,7.57a18.13,18.13,0,0,1-1.3,3.91,19.92,19.92,0,0,1-3.9,5.38,17.84,17.84,0,0,1-6.24,3.86,21.49,21.49,0,0,1-9.47,1.62,20.09,20.09,0,0,0-8.22,1.49,10.64,10.64,0,0,1-3,.74,12.9,12.9,0,0,1,1.26-4.87,4.44,4.44,0,0,1,1.81-1.55,16.31,16.31,0,0,1,5.21-1.81,12.66,12.66,0,0,1,4-.21,35.66,35.66,0,0,1,4.12.39,2.4,2.4,0,0,0,1.24,0,4.15,4.15,0,0,0-1.62-1.05c-2.55-1.4-5.07-2.88-7.74-4.07a11.46,11.46,0,0,0-4.47-1,9.14,9.14,0,0,0-9.07,5.83,23.69,23.69,0,0,1-3.37,5.62c-2.25,2.84-5.28,4.41-8.54,5.66a6.29,6.29,0,0,0-3.53,3,4.3,4.3,0,0,0-.36,3c.21.88.11,1-.77.66q-3.62-1.35-7.22-2.76a71.22,71.22,0,0,0-11.77-3.64,10.88,10.88,0,0,0-9.11,2.17,31,31,0,0,0-5.37,5.54c-.5.63-1,1.24-1.56,1.85-.24.28-.56.52-.48,1,3.09-.66,6.17-1.24,9.24-1.9,2.52-.55,5-1.38,7.4-2.15a10.67,10.67,0,0,1,10.48,2.07,52.29,52.29,0,0,0,6.29,4.47,14.45,14.45,0,0,0,4.86,2,8.57,8.57,0,0,0,6.21-1.17c1.81-1.16,1.79-3.18,1-4.82a26,26,0,0,0-2.2-3.65,3.23,3.23,0,0,1-.22-.41c-.59-1.11-.53-1.34.58-1.88a6.13,6.13,0,0,1,3.55-.52,15,15,0,0,1,4.69,1.52,15.73,15.73,0,0,0,6.28,1.77,13.24,13.24,0,0,0,7.51-2.25,16.36,16.36,0,0,1,6.48-2.55,16.64,16.64,0,0,1,9.53,1.37,19.44,19.44,0,0,1,5.82,4c-.29.19-.48,0-.69-.07a20,20,0,0,0-9-1.65,16.24,16.24,0,0,0-5.55,1.42,25.37,25.37,0,0,0-7.31,5.16c-1.75,1.69-3.41,3.47-5.28,5a29,29,0,0,1-11,6.06,21.33,21.33,0,0,1-6.48.83,31.84,31.84,0,0,1-7.78-1.42,58.19,58.19,0,0,1-7-2.87c-1.36-.63-2.65-1.4-4-2.09a33.24,33.24,0,0,0-6.74-2.68,16.49,16.49,0,0,0-4.2-.64,4.52,4.52,0,0,1-1.71-.18,1.77,1.77,0,0,0-.69,0c-3.56.27-7.1.62-10.36,2.31a17.81,17.81,0,0,0-7.93,7.78,23,23,0,0,0-1.65,4.06,13,13,0,0,0-.48,4,18,18,0,0,0,.46,5.38,17.19,17.19,0,0,0,2.38,5.21,16.55,16.55,0,0,0,2.2,2.8,26.54,26.54,0,0,0,5,3.63,109.71,109.71,0,0,0,19.11,7.54c4.55,1.4,9.18,2.55,13.74,3.92a96.57,96.57,0,0,1,11.38,4.11,54.51,54.51,0,0,1,7,3.79c1.33.83,2.47,2,3.72,2.9a22.84,22.84,0,0,1,2.8,2.58,44,44,0,0,1,6.51,8.77,36.6,36.6,0,0,1,2.6,5.75,25.38,25.38,0,0,1,1.48,5.79c.22,2.21.65,4.39.66,6.63,0,.89-.21,1.75-.28,2.63a29.34,29.34,0,0,1-.7,4.77,41.62,41.62,0,0,1-2.51,7.4,44.52,44.52,0,0,1-2.51,4.67,33.08,33.08,0,0,1-4.14,5.51c-.77.8-1.41,1.72-2.24,2.48a78.75,78.75,0,0,1-7.21,5.92c-2.75,2-5.62,3.76-8.51,5.52-3.14,1.91-6.4,3.64-9.71,5.28a89.89,89.89,0,0,0-8.36,4.66,68.76,68.76,0,0,0-8.58,6.2,61.25,61.25,0,0,0-6.5,6.39,69.49,69.49,0,0,0-4.79,6.05,59.45,59.45,0,0,0-3.66,6.11,68.94,68.94,0,0,0-3.67,8.69,47.15,47.15,0,0,0-1.71,6.32c-.27,1.39-.63,2.77-.81,4.17s-.37,2.89-.59,4.33c-.3,2-.5,4.09-1,6.11s-1,3.79-1.51,5.66a65.13,65.13,0,0,1-2.54,6.79,57.3,57.3,0,0,1-3.73,6.9,46.71,46.71,0,0,1-3.4,4.79,60.4,60.4,0,0,1-5.82,6.25,52.71,52.71,0,0,1-8.61,6.55,56.71,56.71,0,0,1-10.37,5,58.29,58.29,0,0,1-8.62,2.51,69.37,69.37,0,0,1-7.15,1.1,54.11,54.11,0,0,1-8.54.27,71.33,71.33,0,0,1-12.83-1.9c-1.59-.41-3.17-.92-4.74-1.43a51.65,51.65,0,0,1-8.17-3.47,57.94,57.94,0,0,1-9.49-6.12,62.7,62.7,0,0,1-6.54-6.18,51.75,51.75,0,0,1-4.94-6.36,65.93,65.93,0,0,1-3.57-5.92c-.56-1-1.08-2.11-1.55-3.2a62.56,62.56,0,0,1-2.79-7.92,42.86,42.86,0,0,1-1.51-8c-.1-1.18-.19-2.38-.33-3.55a33.7,33.7,0,0,1-.16-4.49,35.19,35.19,0,0,1,.4-4.46c.12-.87.17-1.76.24-2.63a48,48,0,0,1,1-6.46c.5-2.17.95-4.36,1.59-6.48.77-2.53,1.57-5,2.43-7.54.62-1.81,1.21-3.65,1.76-5.48.47-1.54,1-3.07,1.39-4.63.28-1,.39-2.13.7-3.13.6-1.91.59-3.94,1.22-5.83a11,11,0,0,1,.55-2.23,8.54,8.54,0,0,1,.73,1.89,24,24,0,0,0,3,7.32c.48.79.74,1.68,1.23,2.48a27.81,27.81,0,0,0,4.35,5.78,21.94,21.94,0,0,1,4.54,5.21,5.47,5.47,0,0,1,0,5.79A14.14,14.14,0,0,1,429,406a27.78,27.78,0,0,0-4.84,4.07A8.85,8.85,0,0,0,422,414a5.08,5.08,0,0,0,2.07,5.47,10.73,10.73,0,0,0,6.63,1.59c0-.67-.52-1-1-1.31a8.7,8.7,0,0,1-2.69-3.39,3.3,3.3,0,0,1,.6-3.64,7.44,7.44,0,0,1,2.58-2.08,30.58,30.58,0,0,0,4.18-2.41,14.55,14.55,0,0,0,4.2-4.54,11.89,11.89,0,0,0,1.52-5.38,13,13,0,0,0-.19-3.57,10.56,10.56,0,0,0-3.69-5.8c-1.23-1-2.71-1.61-4-2.53a17.09,17.09,0,0,1-4.39-4.34,17.63,17.63,0,0,1-2.56-6,19.52,19.52,0,0,0-3.92-8.11,25.25,25.25,0,0,0-7.49-6,28.62,28.62,0,0,0-5.59-2.42,50.47,50.47,0,0,0-5.91-1.46c-1-.19-2-.29-3.15-.45a5,5,0,0,1,2-1.39,18.4,18.4,0,0,1,8.06-2.62,26.73,26.73,0,0,1,11.17,1.14c3,1,5.59,2.73,8.41,4a78.08,78.08,0,0,0,8.13,3.29c.3.1.61.4,1,.11.07-.39-.25-.55-.45-.75-2.92-2.93-5.78-5.91-8.79-8.74a28.9,28.9,0,0,0-5.36-4.35,21.37,21.37,0,0,0-6.72-2.23,25.43,25.43,0,0,0-6.8-.18,20.4,20.4,0,0,0-9.47,3,48.52,48.52,0,0,1-11.71,5.66,39.87,39.87,0,0,1-6.85,1.51c-1.79.23-3.58.39-5.38.48a42.38,42.38,0,0,0-5.13.68,46.69,46.69,0,0,0-7.79,2,64.37,64.37,0,0,0-13.18,6.31c-1.91,1.2-3.86,2.38-5.67,3.73-2.38,1.77-4.66,3.64-7,5.47-1.48,1.16-3,2.3-4.45,3.47-1.14.9-2.26,1.83-3.39,2.76l-4.28,3.5-5.05,4.19c-1,.84-2,1.66-3,2.5l-5.47,4.6c-1.06.88-2.13,1.75-3.19,2.64-1.3,1.08-2.58,2.18-3.87,3.27l-3.28,2.73c-1.15.95-2.32,1.88-3.46,2.85q-2.37,2-4.79,4c-1.2,1-2.32,2-3.54,3-2.38,1.82-4.65,3.77-6.95,5.68-1.74,1.44-3.57,2.8-5.21,4.37-.89.84-1.89,1.56-2.84,2.35-1.8,1.5-3.58,3-5.39,4.5s-3.35,2.71-5,4.06-3.09,2.52-4.66,3.76-3.09,2.41-4.66,3.57q-3.94,2.91-7.92,5.77c-1.09.78-2.2,1.54-3.32,2.28q-2,1.31-4.08,2.57c-1.78,1.11-3.55,2.25-5.37,3.3-2.6,1.49-5.23,2.92-7.93,4.24-4,2-8.11,3.88-12.32,5.48-2.34.89-4.66,1.85-7,2.6-3.1,1-6.23,1.93-9.41,2.68s-6.28,1.42-9.45,2c-1.8.33-3.65.45-5.46.77s-3.74.29-5.59.66H177c-5.51.35-11,.37-16.53.18a77.69,77.69,0,0,1-9.83-1.05,103.43,103.43,0,0,1-13.79-3.14c-2-.6-3.89-1.23-5.77-2A80.64,80.64,0,0,1,120.85,464a73,73,0,0,1-8.48-5.53c-1.65-1.31-3.35-2.57-4.92-4-1.22-1.11-2.42-2.26-3.59-3.42a64.2,64.2,0,0,1-6.62-7.83A70.83,70.83,0,0,1,91,432.71a69.34,69.34,0,0,1-3.63-9.21c-.64-2-1.07-4.07-1.59-6.11-.3-1.18-.38-2.42-.61-3.62a40.77,40.77,0,0,1-.63-5.82,29.75,29.75,0,0,1,.13-6.8,2.08,2.08,0,0,0,0-.23c-.09-2.75.6-5.41,1-8.1a47.7,47.7,0,0,1,1.37-5.7q.67-2.43,1.53-4.8a67.24,67.24,0,0,1,2.88-6.78,62.2,62.2,0,0,1,4.43-7.68,71.58,71.58,0,0,1,5.79-7.46c1.79-2,3.62-3.91,5.58-5.69a68.3,68.3,0,0,1,6.59-5.4c2.42-1.7,4.84-3.41,7.39-4.91a114.86,114.86,0,0,1,10.55-5.52c2.59-1.18,5.17-2.36,7.79-3.46q4.63-1.95,9.31-3.76c4.31-1.67,8.63-3.3,12.94-4.94,2.41-.91,4.84-1.78,7.24-2.73,2.68-1.05,5.33-2.21,8-3.26,2.92-1.14,5.71-2.52,8.51-3.91a55.08,55.08,0,0,0,10.3-6.52,31.31,31.31,0,0,0,3.72-3.27,55.56,55.56,0,0,0,5.11-6.52,50.33,50.33,0,0,0,3.34-6.17,20.86,20.86,0,0,0,1.27-3.44,34.45,34.45,0,0,0,1.47-6.37c.19-2.1.61-4.16.66-6.28a4.81,4.81,0,0,1,2.88-4.16c2.3-1.24,4.67-2.34,7-3.51,5.16-2.57,10.33-5.11,15.43-7.81,1.38-.74,2.8-1.42,4.21-2.11.86-.42,1-.31,1.28.6a45,45,0,0,1,1.3,5.83,15.44,15.44,0,0,1,.33,3.2c0,1.69.35,3.37.21,5.07-.15,1.91-.24,3.82-.41,5.74a65.56,65.56,0,0,1-1,6.57,32.6,32.6,0,0,1-1.38,5.46c-.41,1.08-.67,2.2-1,3.29a70.13,70.13,0,0,1-2.75,6.72,55.62,55.62,0,0,1-3.34,6.17,76,76,0,0,1-5.21,7.46c-1.06,1.37-2.23,2.64-3.4,3.92a45.11,45.11,0,0,1-3.58,3.73c-1.64,1.45-3.15,3-4.89,4.39-1.42,1.1-2.74,2.35-4.21,3.4-1.63,1.15-3.23,2.34-4.9,3.45s-3.11,2.12-4.7,3.13-3.22,1.95-4.86,2.87c-2.34,1.32-4.71,2.61-7.08,3.89-1.36.72-2.76,1.37-4.13,2.08-4.06,2.1-8.13,4.18-12.15,6.36-2.67,1.45-5.33,2.92-7.85,4.59a47.87,47.87,0,0,0-6.61,5c-1,.93-2,1.79-2.94,2.77a43.71,43.71,0,0,0-6.58,8.87,38,38,0,0,0-4,11.09,23.78,23.78,0,0,0-.11,7.58,31,31,0,0,0,2.41,8.37,15.19,15.19,0,0,0,2.71,4.11,16.72,16.72,0,0,0,10.21,5.37,23.79,23.79,0,0,0,5.85.16c3.82-.35,7.43-1.52,11.11-2.46,1.41-.36,2.85-.59,4.28-.85a5.74,5.74,0,0,1,1,0,5.27,5.27,0,0,1-1.66,1.17c-1.22.73-2.51,1.35-3.71,2.12a18.91,18.91,0,0,0-4.27,3.63,14.34,14.34,0,0,0-3.35,6.84,8.72,8.72,0,0,0,0,3.77c.21.89.35,1.8.64,2.68a12.91,12.91,0,0,0,1.35,3,24.3,24.3,0,0,1,2.15,3.94,11.13,11.13,0,0,1,1.23,5.21,6.93,6.93,0,0,1-2.47,5,11.23,11.23,0,0,1-2.62,1.86,16.16,16.16,0,0,1-9.1,1.33,20.33,20.33,0,0,1-8.92-3.51,16.34,16.34,0,0,1-6.06-7.66,26.21,26.21,0,0,1-1.44-6.12,64.43,64.43,0,0,1-.2-6.8,18.74,18.74,0,0,0-1.44-6.95,11.59,11.59,0,0,0-1.8-2.81,24.59,24.59,0,0,0-5.25-4.83,5.68,5.68,0,0,0-5.92-.24,10.54,10.54,0,0,0-3.44,2.66.91.91,0,0,0-.13.3.34.34,0,0,0,.05.11c.25.16.44-.05.63-.15a6.49,6.49,0,0,1,3.51-.38,2.52,2.52,0,0,1,1.52.76,6,6,0,0,1,2,4.95,6.25,6.25,0,0,1-2.5,4.51,11.83,11.83,0,0,1-7.91,2.7,11.27,11.27,0,0,1-6.8-2.49,10,10,0,0,1-3.57-6.1,2.6,2.6,0,0,1,0-1,11.44,11.44,0,0,1,2.41-5.26,40,40,0,0,1,7.15-6.31c1-.73,1.85-1.64,2.82-2.37a16.31,16.31,0,0,0,3-3.33,8.16,8.16,0,0,0,1.46-4.66,18.08,18.08,0,0,0-1.16-7,19.23,19.23,0,0,1-1.34-8.22,8.31,8.31,0,0,1,2.36-5,18.26,18.26,0,0,1,6.07-4.14,28.08,28.08,0,0,0,5.82-3.25,14.15,14.15,0,0,0,3.63-3.8,13.52,13.52,0,0,0,2-8.1c0-.73-.27-1.43-.23-2.17a8.91,8.91,0,0,1,2.5-6,15.63,15.63,0,0,1,4.9-3.38c.17-.08.33-.18.5-.28-.24-.34-.55-.2-.8-.12a6.8,6.8,0,0,1-.9.17,14.1,14.1,0,0,0-7.09,3.12,8.12,8.12,0,0,0-2.81,5.62c-.09.79-.2,1.59-.36,2.38-.78,3.93-3.25,6.59-6.53,8.65a36.84,36.84,0,0,1-7.31,3.13,28.56,28.56,0,0,0-5.55,2.5,12.46,12.46,0,0,0-5.23,5.52,8.84,8.84,0,0,0-.72,3,18,18,0,0,0,.48,5.72c.34,1.34.82,2.64,1.29,3.94a11.09,11.09,0,0,1-.61,9.35,16,16,0,0,1-4.6,4.95,48.71,48.71,0,0,0-6.47,5.36,19.08,19.08,0,0,0-3.78,6,13.12,13.12,0,0,0-.38,7.71,11.17,11.17,0,0,0,2.23,4.89c.39.47.7,1,1.07,1.51a18.82,18.82,0,0,0,7.11,5.54,22.36,22.36,0,0,0,6.14,1.9,31.75,31.75,0,0,0,5.42.16,15.18,15.18,0,0,0,2.94-.54c1.34-.3,2.68-.64,4-.95.86-.21,1-.16,1.12.73.27,1.54.48,3.1.77,4.64a26.5,26.5,0,0,0,2.19,6.52,24,24,0,0,0,6.05,7.88,31.26,31.26,0,0,0,12.63,6.2,30.17,30.17,0,0,0,10.4,1A22.72,22.72,0,0,0,175,457.5a28.39,28.39,0,0,0,7.56-4.79,42.61,42.61,0,0,0,5.16-5.42c.36-.47.68-.54,1.26-.22,1.68.92,3.35,1.85,5.1,2.62a46.06,46.06,0,0,0,12.16,3.85,39.4,39.4,0,0,0,4.46.45,9.41,9.41,0,0,0,2.63.18,31.84,31.84,0,0,1,4.13-.37,45.31,45.31,0,0,0,8.06-1.86,53.24,53.24,0,0,0,12-5.84c2.65-1.71,5-3.74,7.54-5.67,2-1.58,4-3.29,5.94-4.92,1.77-1.47,3.61-2.87,5.3-4.45,1.23-1.15,2.65-2.1,3.92-3.21,2.51-2.21,5.31-4,7.86-6.21a22.06,22.06,0,0,0,5.8-7.38,13.85,13.85,0,0,0,1.29-5.56,30.51,30.51,0,0,1,.13-3.57,8,8,0,0,1,1.18-3,12.84,12.84,0,0,1,3-3.46c1.26-1,2.61-1.86,3.92-2.79-.15-.42-.45-.31-.69-.24a19.13,19.13,0,0,0-6.56,3.06,10.94,10.94,0,0,0-4.28,7.26,15.58,15.58,0,0,1-3.09,7.83,17.17,17.17,0,0,1-5.52,4.48,40.59,40.59,0,0,1-6.6,2.38,24.07,24.07,0,0,0-8.41,4.44,31.66,31.66,0,0,0-6.11,7,25.54,25.54,0,0,1-6.05,6.44,33.24,33.24,0,0,1-13.34,5.68,48.43,48.43,0,0,1-12.19.64,29.22,29.22,0,0,1-6.89-1.26,40.4,40.4,0,0,1-6.91-2.57,47.11,47.11,0,0,1-9.52-6.25,23.85,23.85,0,0,1-4-4.27,12.93,12.93,0,0,1-2.16-4.9,11.34,11.34,0,0,1,2.76-9.95,19,19,0,0,1,8.24-5.34c3.26-1.16,6.61-2,9.88-3.13a32.66,32.66,0,0,0,8.39-4,16.38,16.38,0,0,0,3.59-3.56,33.47,33.47,0,0,0,4.06-6.68c.36-.8.82-1.55,1.24-2.34.5.21.36.65.28.9a20.18,20.18,0,0,0-.38,3.55,23.61,23.61,0,0,1-2.65,7.81,20.71,20.71,0,0,1-4.55,5.77c-1.42,1.29-3,2.4-4.43,3.67s-2.87,2.39-3.6,4.27c-1.06,2.72-.58,4,2.11,5.37a8.26,8.26,0,0,0,5.85.44,19.53,19.53,0,0,0,8.35-4,17.73,17.73,0,0,0,4.05-4.85,25.65,25.65,0,0,0,2.76-7.42,24.35,24.35,0,0,0,.63-4.89c0-2.51,0-5,0-7.53a25.12,25.12,0,0,1,2-9.41,25.53,25.53,0,0,1,4.31-6.76,32.41,32.41,0,0,1,5-4.6,35.93,35.93,0,0,1,5.78-3.57l7.75-3.87a1.43,1.43,0,0,1,.43-.17.35.35,0,0,1,.3.1.29.29,0,0,1,0,.3,6,6,0,0,1-.84,1.1c-1.07,1-2,2.14-3,3.23a67.32,67.32,0,0,0-4.72,5.52c-.72,1-1.54,2-2.19,3.1a13.44,13.44,0,0,0-1.5,3.46,13.67,13.67,0,0,0,.11,7.29,10.26,10.26,0,0,0,2.39,4.28,5.74,5.74,0,0,0,4.17,1.92,9.17,9.17,0,0,0,4.9-1,5.83,5.83,0,0,0,3.11-5.05,9.14,9.14,0,0,0-.87-4.46,9,9,0,0,1-.59-5.52c.22-1.28.23-2.6.53-3.87.23-.93.47-1.86.73-2.78a1.58,1.58,0,0,1,.87-1.17,7.2,7.2,0,0,1,4.09-.79,9.2,9.2,0,0,0,5.95-.94,5.71,5.71,0,0,0,3-4c.34-1.6-.13-3.05-.35-4.55a20.28,20.28,0,0,1-.39-3.65,36.53,36.53,0,0,1,.2-5.53,24.69,24.69,0,0,1,2.37-7.06,30.12,30.12,0,0,1,3.14-4.81,35,35,0,0,1,3.64-3.86,26.45,26.45,0,0,1,3.44-2.71,1.3,1.3,0,0,1,.41-.11Zm74.2,14.42a.62.62,0,0,0,.63.07,16.36,16.36,0,0,1,2.93-.59,24.55,24.55,0,0,1,9.07,1.33,63.81,63.81,0,0,0,7,2.27,10.5,10.5,0,0,0,4.89,0c2.5-.7,4-2.51,5.12-4.68.81-1.56,1.45-3.21,2.39-4.72a9.59,9.59,0,0,1,4.27-3.9,19.68,19.68,0,0,1,6.73-1.39c2.24-.16,4.46.24,6.69.22,1.7,0,3.37.39,5.07.25a1.33,1.33,0,0,1,.34.05c1.79.22,3.59.3,5.39.4.49,0,.88-.1,1-.61s-.39-.5-.71-.61c-1.89-.63-3.8-1.24-5.68-1.91A66.12,66.12,0,0,0,398,330.7a25.68,25.68,0,0,0-7.22-.21,14.88,14.88,0,0,0-9.37,5.4c-1.33,1.54-2.38,3.3-3.69,4.86a8.57,8.57,0,0,1-4.25,2.78,9.52,9.52,0,0,1-2.76.19,41.05,41.05,0,0,0-5.76.24,19,19,0,0,0-8.05,3.22A1.75,1.75,0,0,0,356.05,348.18ZM284,395.52c0-.1,0-.12-.13-.06a.92.92,0,0,0,0,.09Z"/><path class="cls-2" d="M145.61,271.23a4.66,4.66,0,0,0,.95,1.55,21.19,21.19,0,0,0,5.15,5.07,26.64,26.64,0,0,0,11.24,4.5c.12,0,.24,0,.35.06l1.12.35c-1.37,0-2.44.35-3.56.3-.87,0-1.73.26-2.63.22a34.9,34.9,0,0,1-14.17-3.2,43.07,43.07,0,0,1-6.45-4A25.36,25.36,0,0,0,127,271.28a22.27,22.27,0,0,0-7-.09,35,35,0,0,0-5,.95,10.4,10.4,0,0,0-6.36,4.46,7.27,7.27,0,0,0-1.32,4.24,2.36,2.36,0,0,1,0,.46c-.29,2.57,1,4.5,2.58,6.28a15.79,15.79,0,0,0,3.2,2.63c.27.18.59.35.31.72s-.45.7-1,.45a15.49,15.49,0,0,1-1.75-1.08c-2.34-1.41-4.63-2.88-7-4.26-.72-.42-1.39-.93-2.31-1.43.82,6.93,4.46,11.79,10.2,15.46a4.86,4.86,0,0,1-2.12-.18,20.75,20.75,0,0,1-7.36-3.17c-2.13-1.39-4-3.05-6.07-4.56a12.69,12.69,0,0,0-2.68-2.11c.46,6.75,4,11.51,9.54,15.12a3.78,3.78,0,0,1-2.12-.18,23.63,23.63,0,0,1-10-4.41A29.81,29.81,0,0,1,87,297.31l-.33-.33a.61.61,0,0,0-.92-.07.63.63,0,0,0-.19.9c.83,1.55,1.66,3.12,2.48,4.68s1.66,3.2,2.5,4.79l2.71,5.09a19.07,19.07,0,0,0,1.67,3.1,7.27,7.27,0,0,1-2.85-1.11,35,35,0,0,1-8.44-7.27,78.53,78.53,0,0,1-6.17-7.89c-.89-1.29-1.71-2.63-2.57-3.95a.76.76,0,0,0-.58-.45c-.34,2.29.47,4.52.38,6.94a5,5,0,0,1-1.41-1.62,19.4,19.4,0,0,1-2.76-6.54,26.3,26.3,0,0,1-.4-7.81,17.26,17.26,0,0,1,1-4.7,22,22,0,0,1,3-6.22c.41-.56.7-1.44,1.29-1.54s1,.83,1.54,1.23a23.67,23.67,0,0,1,2.8,2.59.57.57,0,0,0,1,0c.73-.75,1.46-1.49,2.21-2.21,1-1,2.09-1.92,3.11-2.89.34-.32.57-.31.81.11a10.62,10.62,0,0,0,1.83,2.35,4.21,4.21,0,0,0,3.73,1.12,3.22,3.22,0,0,0,2.34-1.87,19.07,19.07,0,0,1,1.92-3.15,16.46,16.46,0,0,1,3.82-3.48,27.18,27.18,0,0,1,10.13-3.54,50.9,50.9,0,0,0,8.08-1.78,14.82,14.82,0,0,0,5-2.85,5.08,5.08,0,0,0,1.66-5.21,10.67,10.67,0,0,0-.92-2.61,20.36,20.36,0,0,1-.76-1.93c-.18-.45-.41-.62-1-.48-2.09.52-4.18,1-6.24,1.64a3,3,0,0,0-2.3,1.88,3.72,3.72,0,0,1-.57.86c-.89-1-1.71-2.07-2.67-3a6.23,6.23,0,0,0-3.09-1.71,8.14,8.14,0,0,0-4.55.34,16.35,16.35,0,0,0-3.59,2c-1,.75-1,.74-2.11,0a7,7,0,0,0-4.93-1.24A5.7,5.7,0,0,0,89.76,251a9.75,9.75,0,0,0-2.37,2.34c-.31.53-.76.53-1.27.22-.92-.57-1.87-1.08-2.78-1.66a9.16,9.16,0,0,0-2.11-.91,2.88,2.88,0,0,0-3,.67,17.68,17.68,0,0,0-2.16,2.25,1.57,1.57,0,0,1-2.2.64c-.83-.3-1.66-.61-2.47-1a9,9,0,0,0-2.69-.6,3.33,3.33,0,0,0-3.19,1.72c-.63,1-1.14,2-1.69,3a2.08,2.08,0,0,0-.12.32c-.17.35-.33.79-.74.82s-.45-.46-.61-.74c-1.84-3.32-3.69-6.64-5.52-10-.53-1-1.05-2-1.52-3-.39-.81-.49-.9-1.2-.29-1.48,1.26-3.06,2.42-4.68,3.69a24.84,24.84,0,0,1-1.4-3.46,26.88,26.88,0,0,1-1-3.43c-.33-2.4-.38-4.79.88-7A9.77,9.77,0,0,1,51,231.05a1.13,1.13,0,0,0,.59-.73,11.31,11.31,0,0,0-3.68-.73,27.8,27.8,0,0,0-5.17-.12c-1.73.26-3.49.39-5.23.73a32.48,32.48,0,0,0-6.64,2.25,20.19,20.19,0,0,0-4.85,2.9c-2.49,2.11-4.76,4.41-5.4,7.8a8.81,8.81,0,0,0,.18,4.56,7.44,7.44,0,0,0,2.42,3.19A11.21,11.21,0,0,0,29,253.57a11.56,11.56,0,0,0,5.55-.75,37.25,37.25,0,0,0,6.26-3.19c.79-.47,1.61-.9,2.42-1.35.45-.25.62-.08.63.4a5.15,5.15,0,0,1-.47,2.24,9.57,9.57,0,0,1-3.65,4.34A18,18,0,0,1,32.23,258a18.29,18.29,0,0,1-5.06-.09,16.76,16.76,0,0,1-5.76-1.93A12.47,12.47,0,0,1,15,241.6a13.56,13.56,0,0,1,2.89-5.46,25.08,25.08,0,0,1,5.28-5,28.32,28.32,0,0,1,5.9-3.09,40.44,40.44,0,0,1,8-2.16,42.1,42.1,0,0,1,5.14-.58c1.54-.07,3.07-.26,4.61-.21a35.74,35.74,0,0,1,13.46,2.75,33.59,33.59,0,0,1,6.47,3.72A10.32,10.32,0,0,0,73,233.75a15.25,15.25,0,0,0,7.16-1.94,1.79,1.79,0,0,0,.28-.2c.19-.13.41-.3.62-.11s0,.39-.16.57c-1.09,1.85-2.29,3.64-3.28,5.55,0,0,0,.07.06.2l4.89-1.13c2.65-.62,5.33-1.15,7.94-1.89a39.23,39.23,0,0,0,7.8-2.8,28.81,28.81,0,0,0,3.89-2.67,27.14,27.14,0,0,0,2.52-2.51,32.18,32.18,0,0,1,5.69-4.63,24.23,24.23,0,0,1,8.86-3.35,37.33,37.33,0,0,1,3.78-.33,16,16,0,0,1,4,.26,31,31,0,0,0,8,.55,19.48,19.48,0,0,0,10-3.71,2.82,2.82,0,0,1,.5-.29,1.19,1.19,0,0,1,.32,0c.26.27.1.52,0,.75a17.5,17.5,0,0,1-6.61,7.22,21.41,21.41,0,0,1-8.39,2.64c-1.7.21-3.38.12-5.07.18a22.75,22.75,0,0,0-10.43,2.5,16.7,16.7,0,0,0-7.28,7.63c-.25.52-.13.78.36,1a16.54,16.54,0,0,0,4.43,1.21,11.75,11.75,0,0,0,3.08,0,8.93,8.93,0,0,0,4.76-2.38,18.36,18.36,0,0,0,2.68-3.44,6.83,6.83,0,0,1,6.1-3.5A25.67,25.67,0,0,0,142,226a24.09,24.09,0,0,0,6.92-5.84c1.18-1.38,2-3,3.27-4.31a15,15,0,0,1,5.68-3.65,24.93,24.93,0,0,1,6-1.44,18,18,0,0,0,1.92-.36c.18,0,.37-.12.55.21a15.62,15.62,0,0,0-2.72,1.34,17.92,17.92,0,0,0-4.46,3.78c-.84,1.06-1.62,2.15-2.41,3.23a19.9,19.9,0,0,0-1.08,1.77c-1.06,1.87-2.16,3.73-3.38,5.5-.76,1.1-1.65,2.11-2.51,3.14-2.06,2.51-4.5,4.66-6.75,7a1.3,1.3,0,0,0-.41.62,2.43,2.43,0,0,0,1.75.18,15.18,15.18,0,0,0,6.08-1.61,10.36,10.36,0,0,0,4.23-3.81,4.75,4.75,0,0,0,.54-1.14,28,28,0,0,1,2.3-5.88,17.93,17.93,0,0,1,2.22-3.22,19.29,19.29,0,0,1,8.14-5.65,31.19,31.19,0,0,1,5.23-1.37c5.5-1.06,11.06-.59,16.59-.67a12.51,12.51,0,0,1,2,.31,11.15,11.15,0,0,1-2.55,1.07c-2.72,1-5.49,1.77-8.26,2.57a67.92,67.92,0,0,0-9.46,3.31,24.84,24.84,0,0,0-8.42,5.74,24.28,24.28,0,0,0-3.35,4.94c-.33.63-.24.92.31,1.27a14,14,0,0,0,4.19,1.87,5.78,5.78,0,0,0,4.33-.61,8,8,0,0,0,2.91-2.39,3.26,3.26,0,0,0,.58-1.48,7.27,7.27,0,0,0-1.37-5.12c-.08-.13-.22-.23-.3-.36-.25-.4-.17-.59.32-.71l6.48-1.59,5.15-1.25c1.3-.32,1.58-.19,2.29,1.07a14,14,0,0,1-2.87.56c-3.21.74-4.81,2.93-5.52,6-.36,1.53-.64,3.08-1.1,4.58a10.19,10.19,0,0,1-4.54,5.75,22.55,22.55,0,0,1-7.53,2.76,43.65,43.65,0,0,0-4.77,1.3L153.1,245c-.42.14-1,.15-1,.79s.43.92,1,1.11c2,.71,4.05,1.46,6.08,2.17a59.93,59.93,0,0,0,5.91,1.93,14.33,14.33,0,0,0,8.29-.5,16.8,16.8,0,0,0,6.77-4.68,19.63,19.63,0,0,0,2.1-3c.75-1.3,1.46-2.62,2.32-3.85a12.33,12.33,0,0,1,7.51-5.17A13.16,13.16,0,0,1,198,234c.87.2,1.75.21,2.62.37a30.45,30.45,0,0,0,6.33.24,40.49,40.49,0,0,0,11.18-1.94,48.28,48.28,0,0,0,8.29-3.48,78.16,78.16,0,0,0,8.21-5.12q2.31-1.64,4.54-3.35c1.22-.93,2.42-1.89,3.56-2.92,1.51-1.37,3.07-2.69,4.68-3.93.95-.73,1.71-1.65,2.7-2.34,2.07-1.46,4-3.12,6.08-4.56a39.26,39.26,0,0,1,9.9-4.86,32.5,32.5,0,0,1,6.28-1.34c1.66-.21,3.31-.13,5-.19a23,23,0,0,1,5,.55,37.26,37.26,0,0,1,7.07,2,5.16,5.16,0,0,1,2.32,1.46.45.45,0,0,1,.12.5,7.53,7.53,0,0,1-1.7.17,48.58,48.58,0,0,0-7-.29,38.07,38.07,0,0,0-14.07,3.69,43.35,43.35,0,0,0-9,5.89c-3.93,3.37-7.77,6.87-12,9.88-1.91,1.36-3.87,2.65-5.82,3.95-2.85,1.92-5.82,3.61-8.81,5.26-2.57,1.41-5.23,2.64-7.92,3.81a58.94,58.94,0,0,1-15,4.53,14.06,14.06,0,0,1-5-.35c-1.75-.43-3.49-.91-5.24-1.35a10.46,10.46,0,0,0-6,.16,8.25,8.25,0,0,0-3.3,2.27,37.41,37.41,0,0,0-3.3,4.86,32.16,32.16,0,0,1-3.78,4.92,38.48,38.48,0,0,1-4.44,4.22,35.5,35.5,0,0,1-7.14,4.2,39.44,39.44,0,0,1-4.2,1.6,6.73,6.73,0,0,0-4.18,3.36c-.42.74-.82,1.48-1.23,2.22-.12.23-.15.43.16.55,2,.78,4.07,1.73,6.31,1.61,1.76-.09,3.5-.39,5.25-.58s3.5-.42,5.26-.58a66.68,66.68,0,0,1,7.74-.19,42.58,42.58,0,0,1,7.3.8,34.46,34.46,0,0,0,10.4,1c1.53-.16,3.07-.06,4.59-.36a16.21,16.21,0,0,1,3.12,0c0,.46-.31.65-.58.82a27.07,27.07,0,0,1-7.14,3.7,23.34,23.34,0,0,1-5.52,1.06,25.11,25.11,0,0,1-6.92-.67,50.88,50.88,0,0,0-5.77-1,37.14,37.14,0,0,0-6.58-.13,29.88,29.88,0,0,0-7.11,1.3,35,35,0,0,1-5.19,1,37.31,37.31,0,0,1-5,.19,27.54,27.54,0,0,1-7.59-1.21,40.75,40.75,0,0,1-7.8-3.42,4.94,4.94,0,0,0-2.06-.69c0-.11-.08-.13-.1-.05Zm-1.27-13.62a7.75,7.75,0,0,0,2,1.39,21.38,21.38,0,0,0,7,2.84,5.73,5.73,0,0,0,3.14-.36c2.16-.81,3.49-2.59,4.83-4.33.31-.4.22-.7-.26-1a11.43,11.43,0,0,0-8.89-1.81A26.51,26.51,0,0,0,144.34,257.61Z"/><path class="cls-2" d="M359.63,478.53a17.18,17.18,0,0,1-4.76-1A22.75,22.75,0,0,1,347.4,473c-1.43-1.28-2.85-2.56-4.3-3.82a6.93,6.93,0,0,0-7-1.36c-2.07.6-4.1,1.33-6.15,2a36.05,36.05,0,0,1-7.21,1.4,36.72,36.72,0,0,1-4.7-.1A17.94,17.94,0,0,1,313.1,470a29.44,29.44,0,0,1-8.18-4.18,24.69,24.69,0,0,1-7-7.71,19.26,19.26,0,0,1-2.15-10.8,18.4,18.4,0,0,1,1.49-6.47,19.94,19.94,0,0,1,3.38-5.34,22.55,22.55,0,0,1,5-4.25,21.39,21.39,0,0,1,8.38-3.06,25.16,25.16,0,0,1,5.41-.14,19.8,19.8,0,0,1,7,1.85,22.82,22.82,0,0,0,6.19,2.13,8.68,8.68,0,0,0,4.89-.3,5,5,0,0,0,3.16-5,10.44,10.44,0,0,0-1.26-3.57c-1.35-2.42-2.79-4.79-4-7.26a17.34,17.34,0,0,1-1.8-9.84,13.86,13.86,0,0,1,3-7.14,19.76,19.76,0,0,1,10.27-6.67c2.07-.63,4.21-.85,6.3-1.32a6.3,6.3,0,0,0,5.21-5.18,16.1,16.1,0,0,1,2.49-5.68A10.15,10.15,0,0,1,367,376a18.51,18.51,0,0,1,6.08-.11,35,35,0,0,1,6.74,1.89,17.4,17.4,0,0,0,7.19.69,9.65,9.65,0,0,0,5.41-2.64,12.19,12.19,0,0,0,1.13-1.39,1.4,1.4,0,0,1,.19,1.35,28.66,28.66,0,0,1-1.41,3.4,11.3,11.3,0,0,1-7.62,5.11,20.44,20.44,0,0,1-5.41.2,27.52,27.52,0,0,1-3-.33c-2.22-.4-5.29.28-6.54,2.42a4.77,4.77,0,0,0-.5,3.24,6.64,6.64,0,0,0,3.68,5.26,3.6,3.6,0,0,0,2.58.2,6.94,6.94,0,0,0,3.25-1.88,1.87,1.87,0,0,1,.79-.61,7,7,0,0,1-.32,3.46,8.49,8.49,0,0,1-5.39,5.61,13.58,13.58,0,0,1-5.88.94,28.45,28.45,0,0,1-5.08-.89,11.62,11.62,0,0,0-7.37.13,8.07,8.07,0,0,0-5.17,5.79,8.54,8.54,0,0,0,.61,5.62,55.42,55.42,0,0,0,4.9,7.64,23.83,23.83,0,0,1,3.22,6.34,16,16,0,0,1,.64,5.22,11.66,11.66,0,0,1-1.41,5.17,15.52,15.52,0,0,1-3.59,4.62,28.67,28.67,0,0,1-6,4,18.11,18.11,0,0,1-6.37,1.91,20,20,0,0,1-5.3-.08,22.24,22.24,0,0,1-5.74-1.65c-1.25-.58-2.47-1.24-3.68-1.91-2.07-1.16-4.18-2.24-6.63-2.05a7.88,7.88,0,0,0-6.37,3.8,7.7,7.7,0,0,0-.06,8,9.51,9.51,0,0,0,7.12,5.12,18.32,18.32,0,0,0,7.41-.53c2.09-.47,4.13-1.14,6.27-1.48a15.23,15.23,0,0,1,8.25.69,12.36,12.36,0,0,1,4.64,3.5c1.76,2,2.84,4.47,4.31,6.67.89,1.34,1.81,2.66,2.73,4C356.67,474.4,358.24,476.29,359.63,478.53Z"/><path class="cls-2" d="M179.21,205.08a3.84,3.84,0,0,0-1.6.08c-1.51.22-3,.35-4.56.53-1.71.2-3.42.45-5.13.63-1.38.14-2.74.33-4.11.5-2.59.33-5.15.79-7.71,1.27a48.28,48.28,0,0,0-9.3,3,77.51,77.51,0,0,1-13.64,4.24,16,16,0,0,1-5.37.51,49.84,49.84,0,0,0-6.69-.18,28.85,28.85,0,0,0-5.93.7,25.74,25.74,0,0,0-9.32,3.87A21,21,0,0,0,103.7,222a47.65,47.65,0,0,1-5.11,4.3c-.49.34-.79,1-1.57,1a8.46,8.46,0,0,1,.28-3.51,20.6,20.6,0,0,1,1.91-5.17,18.39,18.39,0,0,1,4.34-5.2,40.4,40.4,0,0,1,9.8-5.51c1.91-.83,3.78-1.73,5.67-2.59,2.38-1.08,4.77-2.16,7.17-3.21.31-.14.76-.51,1-.13s-.25.66-.49.93q-2.34,2.7-4.69,5.39a.65.65,0,0,0,0,1,.65.65,0,0,0,1,.09c1.52-1.23,3.06-2.44,4.59-3.67,2.4-1.91,4.79-3.84,7.2-5.74,1.84-1.45,3.72-2.85,5.49-4.38,1.2-1,2.45-2,3.68-3a2.29,2.29,0,0,1,.51-.28.53.53,0,0,1,.72.13c.19.23,0,.41-.1.62-.92,1.5-1.83,3-2.82,4.48s-1.9,3.07-2.82,4.62a11.59,11.59,0,0,0-1.35,2.23,1.66,1.66,0,0,0,1,.07c2.37-.43,4.79-.56,7.18-.86,1.75-.21,3.51-.35,5.26-.55,2.47-.29,5-.48,7.42-.85,1.78-.27,3.59-.32,5.38-.51s3.42-.45,5.13-.64l2.52-.26c1.9-.2,3.8-.45,5.7-.66,1.64-.18,3.28-.37,4.92-.53s3-.4,4.55-.59,3-.37,4.45-.56,3-.39,4.56-.6c1.21-.17,2.42-.42,3.63-.53,1.84-.17,3.63-.61,5.44-1a52.88,52.88,0,0,0,7.11-1.91,60.53,60.53,0,0,0,7.44-3.11,61.53,61.53,0,0,0,7.32-4.59,17.6,17.6,0,0,0,2.17-1.89c1-1,2-1.87,2.94-2.91a43.72,43.72,0,0,0,3.78-4.79c.88-1.32,1.65-2.69,2.41-4.06a36.51,36.51,0,0,0,1.68-3.78,37.84,37.84,0,0,0,2.38-8.74,11.72,11.72,0,0,0,.21-2.64,21.46,21.46,0,0,1,.3-2.32,3.75,3.75,0,0,1,.62,1.29c.42,1.95,1.09,3.84,1.35,5.82a2.09,2.09,0,0,1,0,.35c-.13,1.58.35,3.13.24,4.72a40.93,40.93,0,0,1-1.9,10.72,54.26,54.26,0,0,1-2.51,5.8,28.31,28.31,0,0,1-2.51,4,35.16,35.16,0,0,1-5.1,5.8,42.74,42.74,0,0,1-8.65,6.25,74.2,74.2,0,0,1-12.1,5.1,84.1,84.1,0,0,1-10.84,2.68c-2.33.43-4.68.77-7,1-2,.18-3.9.3-5.85.47-5,.43-10,0-15.28.25C175.29,208.07,177.46,206.94,179.21,205.08Z"/><path class="cls-2" d="M609.22,391.44a16.52,16.52,0,0,1-4.37,8.9,12.47,12.47,0,0,1-6.08,3.13,24.73,24.73,0,0,1-6.07.48,23.89,23.89,0,0,0-6.83.87,17.94,17.94,0,0,0-6.09,3.18,13.11,13.11,0,0,0-3,3.31,12.62,12.62,0,0,0-1.81,4.57,12.34,12.34,0,0,0,.09,5.7,30,30,0,0,0,1.17,4c.2.47-.07.75-.61.58-.73-.22-1.44-.53-2.16-.8l-12.3-4.63a15.61,15.61,0,0,0-7.07-.72,9.54,9.54,0,0,0-5.06,2.35,41.76,41.76,0,0,0-4.72,5.31,16.79,16.79,0,0,1-3.63,3.15,30.51,30.51,0,0,1-8.37,3.77c-.76.21-.75.22-1-.56a14.39,14.39,0,0,1-.06-6.84,22.48,22.48,0,0,1,.68-3,21.45,21.45,0,0,1,3-6,22.93,22.93,0,0,1,7.5-6.38,25.17,25.17,0,0,1,8.31-2.65,22.18,22.18,0,0,1,5.52-.23l3,.33c2.93.32,5.74.14,8.14-1.95a12.74,12.74,0,0,0,2.21-2.6,36.23,36.23,0,0,1,3.4-4.51,15.13,15.13,0,0,1,4.42-3.43,14,14,0,0,1,5.56-1.32,36.87,36.87,0,0,1,9,1,22.07,22.07,0,0,0,5.6.57c3.8-.18,7.24-1.3,9.92-4.19.47-.5,1-1,1.43-1.49Z"/><path class="cls-2" d="M172.77,266.35l3.49-2.7c1.92-1.47,3.81-3,5.78-4.39,2.46-1.77,4.81-3.7,7.44-5.24,1.09-.64,2.12-1.37,3.23-2a23.46,23.46,0,0,1,7.82-2.62,37.17,37.17,0,0,1,6.32-.43c1.46,0,2.89.28,4.34.42,4.46.43,8.7,1.81,13.05,2.74a25,25,0,0,0,7.31.77,22,22,0,0,0,8.38-2.28,20.38,20.38,0,0,0,5.63-4.15,7.38,7.38,0,0,0,1.13-1.63c-5.79,1.36-11.45,3.12-17.31,4.42l1.91-1.64c1.31-1.12,2.65-2.21,4-3.36,2.33-2.06,4.55-4.26,7-6.19a21.71,21.71,0,0,1,6.27-3.42,37.27,37.27,0,0,1,7.68-1.94,33.78,33.78,0,0,1,6.11-.13,17.43,17.43,0,0,1,8.09,2.47,16.07,16.07,0,0,1,7.23,8.63,17.36,17.36,0,0,1,1,6.21c0,1.2,0,2.39,0,3.59v.69c0,.32,0,.66-.42.73s-.44-.25-.56-.49c-.5-1-1-2-1.5-3a19,19,0,0,0-6.07-7.83,12.15,12.15,0,0,0-5.19-2c-4-.62-7.38.8-10.68,2.76a54.5,54.5,0,0,0-7.79,5.91,47.72,47.72,0,0,1-13.64,8.29,69.19,69.19,0,0,1-10.33,3.26c-2.8.63-5.61,1.19-8.46,1.6-2.05.3-4.1.53-6.14.86a22,22,0,0,1-2.31,0l11.53-6a17.24,17.24,0,0,0-3-.95,32.12,32.12,0,0,0-10.72-1.15,19.68,19.68,0,0,0-8.25,2.38c-1.92,1.05-3.6,2.46-5.48,3.58a29.42,29.42,0,0,1-9.74,3.75,49.33,49.33,0,0,1-6.17.68A.93.93,0,0,1,172.77,266.35Z"/><path class="cls-2" d="M467.09,264.87a8,8,0,0,1,1.59,2.45,30.46,30.46,0,0,0,8.23,8.77,73.7,73.7,0,0,0,8.46,5.15,41.89,41.89,0,0,1,6.69,4.69,38.71,38.71,0,0,1,4.63,5,27.37,27.37,0,0,1,2.74,4,16.21,16.21,0,0,0,7,6.83,15.86,15.86,0,0,0,3.43,1A16.79,16.79,0,0,0,514,303a3.64,3.64,0,0,0,.81-.06,6.51,6.51,0,0,1,4.26.51,4.41,4.41,0,0,1,2.63,4.47c0,.63-.19.71-.81.45-.25-.1-.49-.24-.73-.35a4.38,4.38,0,0,0-5.41,1.81,1.18,1.18,0,0,0-.14,1,4.53,4.53,0,0,0,4.52,3.56,30.14,30.14,0,0,0,5-.56,23.76,23.76,0,0,1,13.78,1.44,34.22,34.22,0,0,1,5.42,3c1,.65,1.91,1.42,2.85,2.15.16.12.39.25.33.6-1-.24-1.93-.46-2.88-.73a24.21,24.21,0,0,0-6.83-.87c-1.35,0-2.7-.06-4,0a50.4,50.4,0,0,0-5.6.59c-1.35.23-2.73.36-4.09.56-2,.28-4,.59-6,.88l-.23,0c-1.74-.13-3.45.35-5.19.24-5.22-.31-10.32-1.11-14.92-3.81a16.93,16.93,0,0,1-3.37-2.4c-.55-.54-1.19-1-1.74-1.51a27.21,27.21,0,0,1-4.61-6.31,37.32,37.32,0,0,1-2.41-5.94,40.55,40.55,0,0,1-1.12-4.56,5.13,5.13,0,0,1,1.3,1.21c.77,1,1.55,1.91,2.39,2.81,1.21,1.29,2.24,2.73,3.51,4a1.31,1.31,0,0,0,1.53.4c1-.33,1-.28,1-1.21s.24-2.06.28-3.1a11.47,11.47,0,0,0-2.58-7.45,23.46,23.46,0,0,0-7.43-6.29c-2-1.13-4.09-2.14-6-3.47A28.73,28.73,0,0,1,472,279a21.28,21.28,0,0,1-3.59-6.13,19.08,19.08,0,0,1-1.41-5.2,9.77,9.77,0,0,1-.23-1.71A1.67,1.67,0,0,1,467.09,264.87Z"/><path class="cls-2" d="M607.15,422.85a6.26,6.26,0,0,1-3.08,1.67,17.28,17.28,0,0,0-8.33,6.29,11.13,11.13,0,0,0-1.13,2.13,44,44,0,0,1-2.38,5,21,21,0,0,1-4.69,5.48,20,20,0,0,1-10.19,4.22c-1.48.19-3,.65-4.56.08a25.37,25.37,0,0,1-9.28-2.07,28.34,28.34,0,0,1-4.3-2.25A30,30,0,0,0,548.13,439c-1.37-.2-2.79-.67-4.21-.11-4.06.16-7.56,1.89-11,3.9-1,.56-1.86,1.21-2.81,1.8-.56.35-.8.23-.84-.39-.09-1.85.07-3.65,1.4-5.08a8.83,8.83,0,0,1,3.06-2.21,23.08,23.08,0,0,1,3.6-1.21,111,111,0,0,0,11.94-3.91,19.7,19.7,0,0,1,9-1.43A16.5,16.5,0,0,1,565,432.5a23.2,23.2,0,0,0,8.4,3.11,10.42,10.42,0,0,0,7.35-1.35,8.7,8.7,0,0,0,2.82-2.84,18.63,18.63,0,0,1,6.75-7,15.82,15.82,0,0,1,5.39-2A20.73,20.73,0,0,1,601,422,36.65,36.65,0,0,1,607.15,422.85Z"/><path class="cls-2" d="M217.71,218.1a19.29,19.29,0,0,0-5.14-1.79,39.31,39.31,0,0,0-4.72-.2,5.47,5.47,0,0,0-1.27.09c-1.32.31-1.53.18-1.93-1.08q-.06-.21-.12-.45a13.56,13.56,0,0,1,3-1c4.21-1.31,8.43-2.62,12.72-3.69,1.44-.36,2.92-.6,4.4-.82a36.79,36.79,0,0,0,19.6-9,41.75,41.75,0,0,0,5.23-5.65c2.17-2.6,3.93-5.49,5.93-8.21A24.37,24.37,0,0,1,263.8,179a28.38,28.38,0,0,1,13.26-2.92,31.55,31.55,0,0,1,7.34,1.28.9.9,0,0,1,.28.22,6.64,6.64,0,0,1-2.15.36,24.41,24.41,0,0,0-4.87.81,26.17,26.17,0,0,0-8.11,3.48A30.72,30.72,0,0,0,263,188c-1.51,1.8-2.78,3.77-4.15,5.67-.45.62-.76,1.33-1.16,2a71.1,71.1,0,0,1-4.74,6.92,49.4,49.4,0,0,1-4.27,4.84,60.12,60.12,0,0,1-6.19,5.51c-1.93,1.47-4,2.79-6,4.13a46,46,0,0,1-4.09,2.35,92.3,92.3,0,0,1-9.41,4.37,36.84,36.84,0,0,1-8,2.1c-1.63.26-3.24.56-4.87.84a7,7,0,0,1-.91.08c-.44,0-.76-.13-.83-.61a.72.72,0,0,1,.51-.91,31.27,31.27,0,0,0,3-1.23,8.06,8.06,0,0,0,4.24-3.37A28.93,28.93,0,0,1,217.71,218.1Z"/><path class="cls-2" d="M60.82,431.51c-.2-.75.36-1.34.75-1.92A4.66,4.66,0,0,1,64,427.7c3.53-1.22,7-2.45,10.63-3.46,1.52-.43,3-1,4.51-1.43.55-.15.81-.07,1,.49.73,1.78,1.5,3.53,2.28,5.27.86,1.93,1.76,3.83,2.59,5.76.5,1.15.9,2.36,1.36,3.53a2.69,2.69,0,0,1-.35,2.41A40.24,40.24,0,0,0,83.34,446a24.05,24.05,0,0,0-1.16,10.46,24.87,24.87,0,0,0,3,9.6,43.45,43.45,0,0,0,4.14,6.65,11.22,11.22,0,0,1,.81,1.39c.12.21.2.45,0,.62s-.43,0-.62-.11c-.34-.26-.67-.52-1-.76A92.38,92.38,0,0,1,81.17,468,61.57,61.57,0,0,1,72,457.7a56,56,0,0,1-3.26-5A60.1,60.1,0,0,1,65,445.3q-.93-2.22-1.69-4.52c-.7-2.08-1.36-4.15-1.86-6.28A9.69,9.69,0,0,1,60.82,431.51Z"/><path class="cls-2" d="M491.55,220.26a51.82,51.82,0,0,0-4,5.48,36.81,36.81,0,0,0-1.68,3.39,26.74,26.74,0,0,0-1.63,6.2,24.69,24.69,0,0,0-.09,3.11,18.23,18.23,0,0,0,.82,6.25,12.76,12.76,0,0,0,5.81,7.75,9.79,9.79,0,0,1,4.77,8.19,35.33,35.33,0,0,0,.39,4.47,22.66,22.66,0,0,1,.22,2.74,42,42,0,0,0,1.48,7.9,46.86,46.86,0,0,0,3,8.21,16.1,16.1,0,0,0,1.49,2.85,2.33,2.33,0,0,1,.27.52.37.37,0,0,1-.55.48,26.44,26.44,0,0,0-2.2-1.48c-2.53-1.87-5.15-3.62-7.74-5.39-2.28-1.56-4.54-3.16-6.8-4.74-.19-.13-.33-.34-.53-.45-.45-.26-.38-.52-.06-.8a13.2,13.2,0,0,0,2-2.5,6.39,6.39,0,0,0,1.32-3.95,7.45,7.45,0,0,0-1.47-3.94,22.76,22.76,0,0,0-3.07-3.29,22,22,0,0,1-4.38-5.61,22.49,22.49,0,0,1-1.72-4.39,20.42,20.42,0,0,1-.74-5.34,26.64,26.64,0,0,1,.31-5.93,21.31,21.31,0,0,1,1.44-5c.45-.92.76-1.91,1.21-2.85a29.63,29.63,0,0,1,4.16-6.18,25.68,25.68,0,0,1,5.64-4.87A5.23,5.23,0,0,1,491.55,220.26Z"/><path class="cls-2" d="M222.06,350.63c.52-1.55,1-3.11,1.56-4.65.62-1.74,1.21-3.48,1.74-5.24.37-1.22.83-2.4,1.2-3.61a6.12,6.12,0,0,0,0-3.9,7.52,7.52,0,0,1,1.28-7.19c1.32-1.7,2.76-3.3,4.18-4.91.91-1,1.72-2.17,2.53-3.29,1.68-2.33,3.38-4.65,5-7,.71-1.05,1.42-2.1,2.18-3.11.54-.72.87-.73,1.37,0a14,14,0,0,1,2.14,4.93c.16.79.29,1.58.44,2.37a8.78,8.78,0,0,1-.26,3,33.88,33.88,0,0,1-4.23,11.25c-1.11,2-2.39,3.85-3.64,5.74a29.27,29.27,0,0,1-2.14,2.71,91.53,91.53,0,0,1-7.79,8.21A41.4,41.4,0,0,1,222.06,350.63Z"/><path class="cls-2" d="M129.16,486.08A42.62,42.62,0,0,1,119,483.65a47.3,47.3,0,0,1-5.26-2.3,40.81,40.81,0,0,1-6.32-4,41.94,41.94,0,0,1-3.84-3.3,33.38,33.38,0,0,1-3.43-3.88,25.67,25.67,0,0,1-3.76-7.11,8.62,8.62,0,0,1-.63-3.14,7,7,0,0,0-.18-1.13,16.83,16.83,0,0,1,.75-5.78c.9.66,1.68,1.25,2.47,1.82,1.75,1.25,3.52,2.47,5.24,3.75,2.22,1.65,4.54,3.16,6.7,4.89,1,.83,2.24,1.49,3.3,2.32a27.73,27.73,0,0,1,3.22,2.6,1.43,1.43,0,0,1,.52,1.11,11.76,11.76,0,0,0,.19,2.05,14.92,14.92,0,0,0,3.61,7.94,32.66,32.66,0,0,0,6.35,5.27A2.81,2.81,0,0,1,129.16,486.08Z"/><path class="cls-2" d="M59.2,389.41c.78-1.75,1.54-3.42,2.28-5.09,1.13-2.56,2.24-5.13,3.39-7.68.77-1.71,1.63-3.38,2.41-5.09a3.13,3.13,0,0,1,3-1.91,19.46,19.46,0,0,1,4.76.75c3.34.71,6.66,1.5,10,2.28.81.19.85.23.58,1-.47,1.38-.93,2.76-1.52,4.09-.71,1.62-1.26,3.29-1.93,4.92-.78,1.91-1.52,3.84-2.17,5.81-.34,1-.54,1.11-1.58,1.11h-18A2.21,2.21,0,0,1,59.2,389.41Z"/><path class="cls-2" d="M606.78,319.2a9.45,9.45,0,0,1-1.71-2.63,65.72,65.72,0,0,1-3.21-5.74c-1.21-2.5-2.69-4.83-4-7.28-.35-.66-.31-.78.29-1.21,1.25-.89,2.69-1.48,3.93-2.4a7.19,7.19,0,0,0,3.18-6.77,12.44,12.44,0,0,0-.9-3.55,23.43,23.43,0,0,0-3.34-5.9,23.79,23.79,0,0,0-4-3.91,28.75,28.75,0,0,0-4.86-2.82,1.48,1.48,0,0,1,1.17-.19,22.22,22.22,0,0,1,5.32,1.41,26.38,26.38,0,0,1,4.79,2.52,34,34,0,0,1,3.39,2.58,25.89,25.89,0,0,1,4.84,5.55A20.11,20.11,0,0,1,615,297.6a15.38,15.38,0,0,1-.26,5.74,15.85,15.85,0,0,1-2.26,5.12,29.55,29.55,0,0,0-3.93,6.86C608,316.59,607.41,317.82,606.78,319.2Z"/><path class="cls-2" d="M58.5,408V397.8c0-.46.28-.65.68-.52a14.58,14.58,0,0,0,2.87.19c1.94.25,3.91.06,5.85.43a.87.87,0,0,0,.23,0c2-.14,4.06.33,6.1.23,1,0,2,.35,3,.26.32,0,.49.18.5.5s0,.47,0,.7v13.54c0,1.2,0,1.21-1.22,1.5L60.4,418.48c-1.9.45-1.9.43-1.9-1.58Z"/><path class="cls-2" d="M222.42,468.35c1.75-1,3.42-2,5.14-3s3.48-1.9,5.19-2.92,3.69-2,5.53-3.05c3.53-1.95,7.07-3.88,10.57-5.88q5.81-3.32,11.68-6.53c2.87-1.57,5.69-3.22,8.54-4.82.18-.1.4-.32.62-.1s0,.41-.09.62a61.4,61.4,0,0,1-4.91,7.78,23.13,23.13,0,0,1-2.87,3.46c-.6.55-1,1.27-1.59,1.82a49.49,49.49,0,0,1-8.34,6.49,43.81,43.81,0,0,1-8.46,3.91,41.1,41.1,0,0,1-7.14,1.74c-1.52.22-3,.31-4.55.62a2.79,2.79,0,0,1-.58,0h-8.22A.56.56,0,0,1,222.42,468.35Z"/><path class="cls-2" d="M154,199.05c.21-.83.95-1.05,1.46-1.47a40.5,40.5,0,0,1,7.89-4.94,60.89,60.89,0,0,1,12.39-4.33c3.24-.79,6.51-1.48,9.68-2.57a33.76,33.76,0,0,0,9.66-5.26c2.15-1.67,4.3-3.34,6.44-5a1.39,1.39,0,0,1,1-.46,12.14,12.14,0,0,1-.78,3.18,24.09,24.09,0,0,1-7.55,10.72,30.21,30.21,0,0,1-7.25,4.47,49.19,49.19,0,0,1-11.06,3.54c-1.91.38-3.82.83-5.75,1.09-1.63.22-3.28.35-4.91.57s-3,.09-4.47.36a22,22,0,0,1-3.35.06,7.86,7.86,0,0,0-2.41.19A1.2,1.2,0,0,1,154,199.05Z"/><path class="cls-2" d="M190,352.89c.26.65-.08,1.28-.18,1.89a24.67,24.67,0,0,1-3.19,8.58,28.26,28.26,0,0,1-6.81,7.58,37.64,37.64,0,0,0-5.65,5.43,19.73,19.73,0,0,0-2.75,4.62,9.9,9.9,0,0,0-.77,3.58,20.82,20.82,0,0,0,.58,5.94c.06.22.21.47-.11.58s-.32-.15-.44-.29a19.15,19.15,0,0,1-3.5-5.93,14.63,14.63,0,0,1-1.17-5.48,16.64,16.64,0,0,0,0-1.73,14.75,14.75,0,0,1,1.21-6.06,21.1,21.1,0,0,1,3.72-6.31,36.86,36.86,0,0,1,6.89-6.43,51.88,51.88,0,0,1,11.25-5.8A1.48,1.48,0,0,1,190,352.89Z"/><path class="cls-2" d="M497.13,247c.2-1,.33-2,.58-2.93a29.34,29.34,0,0,0,.52-4.57,26.72,26.72,0,0,0,0-3.35c0-1.66.16-3.31.3-4.94a23.71,23.71,0,0,1,1.72-6.89A19.64,19.64,0,0,1,507.2,216a54,54,0,0,1,7.49-4.3,86.78,86.78,0,0,0,7.86-4.31,3.5,3.5,0,0,1,.49-.29.39.39,0,0,1,.31.06.22.22,0,0,1,0,.31c-.33.52-.78,1-1.12,1.46a27.83,27.83,0,0,1-5.19,5.21c-2.69,2.33-5.16,4.91-6.1,8.5a8.62,8.62,0,0,0-.28,4.08c.24,1.16.41,2.33.71,3.49a3,3,0,0,1-.85,2.87c-2.51,2.61-4.9,5.32-7.4,7.94-1.68,1.75-3.39,3.47-5.07,5.22A1.88,1.88,0,0,1,497.13,247Z"/><path class="cls-2" d="M598.9,367.57a27,27,0,0,1-7.61-.92c-.63-.14-.72-.31-.33-.82q1.35-1.72,2.72-3.43c1.2-1.49,2.39-3,3.6-4.47.85-1.05,1.66-2.13,2.6-3.08a3.67,3.67,0,0,1,3.74-1.16,15.09,15.09,0,0,0,11.83-1.9,39.19,39.19,0,0,0,7.82-6.22c.65-.66,1.47-1.12,2.07-1.83a.73.73,0,0,1,.74-.22c.55.1.8.58.46,1a38.3,38.3,0,0,0-2.45,3.75c-.88,1.4-1.83,2.75-2.67,4.17-.67,1.15-1.46,2.25-2.24,3.34a41.3,41.3,0,0,1-5.31,6.35,20,20,0,0,1-5.33,3.57A21,21,0,0,1,598.9,367.57Z"/><path class="cls-2" d="M573.87,288.85c-1.53-.44-3-.86-4.39-1.25-3-.84-6.1-1.59-9.11-2.53s-6.34-1.84-9.47-2.9a43,43,0,0,1-8.76-4.07,11.87,11.87,0,0,1-3.9-3.69,9.36,9.36,0,0,1-1.54-4.88,12.16,12.16,0,0,1,1.45-6.44,11.43,11.43,0,0,1,5.63-5.08,30.1,30.1,0,0,1,4.59-1.52c.22-.05.43-.15.68,0-1.13.74-2.28,1.43-3.34,2.23a9.3,9.3,0,0,0-3.33,4.47,8.76,8.76,0,0,0,.3,6.21,10.46,10.46,0,0,0,3.8,5,12.88,12.88,0,0,0,3,1.46,18.81,18.81,0,0,0,4,.94,57.64,57.64,0,0,1,8.77,1.12,16.59,16.59,0,0,1,8.59,5.11C571.74,284,573.78,287.36,573.87,288.85Z"/><path class="cls-2" d="M451.11,426.82a13.85,13.85,0,0,1,4.63.92A5.8,5.8,0,0,1,458.3,430a29.27,29.27,0,0,1,1.57,2.93,23.41,23.41,0,0,0,3.34,5.75,8.49,8.49,0,0,0,6.25,3c3.15.08,5.71-1.26,8.12-3.08A24.46,24.46,0,0,0,482,434c.59-.77.84-.75,1.57-.12,1.31,1.12,2.65,2.21,4,3.32l.26.23c.55.52.56.8-.06,1.16s-1.46,1-2.21,1.46c-2.26,1.38-4.47,2.83-6.76,4.14a21.21,21.21,0,0,1-6.73,2.57,13.39,13.39,0,0,1-9.79-2,20,20,0,0,1-4.69-4.4,6.46,6.46,0,0,0-1.22-1.23c-1.34-1-2.63-2-4-2.93a13.76,13.76,0,0,1-4.53-5.13,1.8,1.8,0,0,1,.21-2.22C449,427.74,449.91,426.6,451.11,426.82Z"/><path class="cls-2" d="M192.79,369.75c.51-1.28,1.06-2.38,1.59-3.47q1.29-2.7,2.4-5.48a17.22,17.22,0,0,0,1.41-8,8.72,8.72,0,0,0-.8-3.21c-.35-.7-.58-.88.39-1.5l6.95-4.52c2-1.33,4-2.68,6.07-4l6.18-4a4.56,4.56,0,0,1,.68,2,12.52,12.52,0,0,1-1.52,6.76,47,47,0,0,1-6.21,8.42c-2.47,2.91-5.14,5.63-7.85,8.31s-5.3,5.3-8,7.94A1.79,1.79,0,0,1,192.79,369.75Z"/><path class="cls-2" d="M387.7,447.21c-.36.75-.69,1.51-1.07,2.24-.95,1.84-1.84,3.71-2.74,5.57a44.5,44.5,0,0,1-3.42,5.87,12.85,12.85,0,0,1-5.4,4.38,16.18,16.18,0,0,1-6.25,1.38,15.54,15.54,0,0,1-5.86-1,13.85,13.85,0,0,1-5.53-3.64,9,9,0,0,1-2.56-7.58,7,7,0,0,1,1.48-3.22.41.41,0,0,1,.69,0,35.36,35.36,0,0,0,3.59,2.88c3.05,2.27,6.38,3.76,10.27,3.33a14.52,14.52,0,0,0,5.37-1.65A34.84,34.84,0,0,0,382,452a56.79,56.79,0,0,0,4.53-4.1A1.51,1.51,0,0,1,387.7,447.21Z"/><path class="cls-2" d="M173.74,489.3a6.34,6.34,0,0,1-2.47.34c-1.77,0-3.53.45-5.29.21s-3.6-.21-5.39-.37a73,73,0,0,1-8-1.24,46.22,46.22,0,0,1-9.52-3.08,36.53,36.53,0,0,1-4-2.1,18.69,18.69,0,0,1-5.39-4.77,10,10,0,0,1-2-4.11c1.32.26,2.59.49,3.85.75,2.81.57,5.63,1.14,8.44,1.74,2.55.54,5.1,1.08,7.63,1.7a10.34,10.34,0,0,1,2.55,1.06c3.13,1.78,6.33,3.45,9.51,5.15,2.1,1.13,4.19,2.28,6.28,3.43a9.57,9.57,0,0,0,2.48.9A5.24,5.24,0,0,1,173.74,489.3Z"/><path class="cls-2" d="M558.79,217c-1.31,0-2.34.25-3.41.3-2.18.12-4.37.15-6.54.39a32.22,32.22,0,0,1-4.17,0c-.77,0-1.13-.62-1.37-1.24a7.11,7.11,0,0,1-.4-3.94,11.19,11.19,0,0,1,3.59-6.52,16,16,0,0,1,6.36-3.37c2.69-.83,5.48-1.09,8.19-1.79a26.2,26.2,0,0,0,7.56-3.05,18.12,18.12,0,0,0,4.89-4.15,23.16,23.16,0,0,0,2.45-3.61,1.83,1.83,0,0,1,.55-.6,10.55,10.55,0,0,1-.42,2.64,3.48,3.48,0,0,0-.22.78,15.8,15.8,0,0,1-3.17,6.19,19.77,19.77,0,0,1-7.23,5.37,15.48,15.48,0,0,1-4.69,1.54,4.17,4.17,0,0,0-1.46.65c-1.67,1-3.53,1.73-4.87,3.24a1.48,1.48,0,0,0-.21,2.14,15.65,15.65,0,0,0,2.72,3.13Z"/><path class="cls-2" d="M514.25,380.07a22.73,22.73,0,0,1,1.18-8.28,23.32,23.32,0,0,1,4.44-8.35,27.54,27.54,0,0,1,5.33-5.07,42.56,42.56,0,0,1,11.08-5.58c1-.34,2-.62,3-.91.21-.06.48-.13.6.15s-.09.36-.22.49c-.76.77-1.51,1.54-2.3,2.29-1.7,1.62-3.28,3.35-4.85,5.1a8.28,8.28,0,0,0-2,4.28,13.45,13.45,0,0,1-2.32,5.44,29.46,29.46,0,0,1-4.75,5.33c-1.64,1.46-3.24,3-4.82,4.46a20.76,20.76,0,0,0-3.66,4.42c-.1.17-.22.35-.44.29s-.21-.29-.21-.48C514.24,382.58,514.25,381.5,514.25,380.07Z"/><path class="cls-2" d="M253.53,253.74a3.19,3.19,0,0,1,2.12.67,12,12,0,0,1,4.14,4.39,29.29,29.29,0,0,1,2.34,4.73,34.48,34.48,0,0,1,1.89,7c.11.83.37,1.63.49,2.47a51.91,51.91,0,0,1,.4,9.32,25.92,25.92,0,0,1-1.1,7.24,12.51,12.51,0,0,1-1.11-2.45,26.53,26.53,0,0,0-3.87-6.38c-1.84-2.34-4.25-4-6.53-5.78-.31-.25-.69-.3-1-.53a5.59,5.59,0,0,1-2.08-4.19c-.08-.61-.17-1.21-.24-1.82-.12-.95.06-1.15,1-1.33,1.51-.29,3-.67,4.51-.86,2-.25,3.13-2.41,3.3-4.05a7.27,7.27,0,0,0-1.71-5C255.28,256,254.43,255,253.53,253.74Z"/><path class="cls-2" d="M145.29,327.36a1.32,1.32,0,0,1-.8.58c-3.47,1.44-6.88,3-10.29,4.55-2.52,1.14-5.06,2.22-7.58,3.33q-2.46,1.1-4.91,2.23a2.06,2.06,0,0,1-2.25-.16c-2.45-1.65-5-3.22-7.44-4.82l-.2-.12c-.59-.44-.56-.77.11-1,1.32-.54,2.65-1.05,4-1.58,3.1-1.24,6.2-2.51,9.31-3.73,3.58-1.4,7.21-2.68,10.89-3.78a3.58,3.58,0,0,1,2.46.24,21.28,21.28,0,0,1,2.88,1.69C142.74,325.55,144,326.46,145.29,327.36Z"/><path class="cls-2" d="M553.47,194.13l-2.85,1.1a24.21,24.21,0,0,0-6.51,3.85A18.82,18.82,0,0,0,540,204a21.28,21.28,0,0,0-2.37,5.93c-.42,1.57-.46,3.18-.89,4.73a8.92,8.92,0,0,1-2.59,4.48,14.86,14.86,0,0,1-5.3,2.93c-2.69.94-5.34,2-8,2.94-1,.35-1.18.24-1.89-.82a29.37,29.37,0,0,0,3.34-1.74,19.13,19.13,0,0,0,6.08-6.82,17.22,17.22,0,0,0,1.49-4.09,29.82,29.82,0,0,1,2.13-6.92,17.6,17.6,0,0,1,5.65-7,21.37,21.37,0,0,1,7.81-3.27c1.77-.38,3.58-.35,5.36-.65A4.81,4.81,0,0,1,553.47,194.13Z"/><path class="cls-2" d="M72.75,362.46c.08-.2.09-.28.14-.33,3-3.32,6.19-6.44,9.36-9.59a7.08,7.08,0,0,1,1.51-1.23,3.58,3.58,0,0,1,2.9-.24,21.81,21.81,0,0,1,2.85,1.22c2.51,1.17,5,2.4,7.47,3.6l.41.21c.57.33.61.49.22,1-.93,1.17-1.87,2.33-2.8,3.51-1.3,1.65-2.63,3.29-3.9,5s-1.23,1.66-3.25,1.08c-3.28-.95-6.58-1.84-9.87-2.75Z"/><path class="cls-2" d="M168.85,247.35a10.72,10.72,0,0,1-2.67-.23,1,1,0,0,1-.43-.15c-.83-.44-.85-.79,0-1.26s1.69-.91,2.56-1.32a21.29,21.29,0,0,0,6.73-5,14.58,14.58,0,0,0,3-5.17,7.75,7.75,0,0,0,.3-2.15,7.33,7.33,0,0,1,7-7.43,40.83,40.83,0,0,0,7.87-1.59c2.77-.81,5.47-1.8,8.16-2.84a1.09,1.09,0,0,1,1.41.58c.11.28-.06.45-.23.6-.46.4-.92.81-1.41,1.18a84,84,0,0,1-7.47,5.37c-1.46.86-3,1.64-4.43,2.45a28.13,28.13,0,0,0-3.38,2.39,24,24,0,0,0-5.89,6.58,36.34,36.34,0,0,1-2.32,3.57,11,11,0,0,1-7.07,4.39A11.83,11.83,0,0,1,168.85,247.35Z"/><path class="cls-2" d="M215.14,478.75a11.26,11.26,0,0,1-3.92,2.26,47.85,47.85,0,0,1-10.49,3c-1.46.26-3,.4-4.44.57a55.53,55.53,0,0,1-8.55.14,36.22,36.22,0,0,1-9.26-1.62,30.73,30.73,0,0,1-7.16-3.1,4.11,4.11,0,0,1-.44-.32,3.06,3.06,0,0,1,1.55-.44c2.11-.13,4.18-.58,6.28-.76s4.24-.64,6.37-.84c1-.09,2.07-.19,3.09-.32,1.33-.18,2.67-.11,4-.37a7.92,7.92,0,0,1,3.64.35c1.44.39,2.9.76,4.35,1.12a3.84,3.84,0,0,0,.68.09c4,.31,7.93.22,11.9.23Z"/><path class="cls-2" d="M359.63,412.34c.92.14,1.42.91,2.07,1.4,2.6,2,5.1,4.06,7.73,6q1.76,1.31,3.47,2.65a13.43,13.43,0,0,1,1.9,2.16,17.63,17.63,0,0,1,3,5.8,13,13,0,0,1,.43,5.13,7.55,7.55,0,0,1-1.22,3.42c-1.45,2.29-3.69,3.49-6.11,4.44a7.41,7.41,0,0,0-.87.3,2.58,2.58,0,0,1-2.63-.11c-1.42-.76-2.69-1.73-4.11-2.65,1-.38,1.93-.6,2.83-.93a11.65,11.65,0,0,0,3.64-2.18,5.38,5.38,0,0,0,1.7-5.23,11.9,11.9,0,0,0-2.86-5.46c-1.43-1.75-3.05-3.35-4.42-5.15a14.06,14.06,0,0,1-1-1.56c-1.35-2.37-2.41-4.88-3.56-7.34A.64.64,0,0,1,359.63,412.34Z"/><path class="cls-2" d="M435.82,306.56c-1.62.42-3.24.86-4.87,1.24-2.2.52-4.4,1.08-6.56,1.76a26.42,26.42,0,0,0-5.09,2.12,5.85,5.85,0,0,0-2.51,2.6,6.63,6.63,0,0,1-4.72,4.07,13.47,13.47,0,0,1-4.25,0c-1.14-.13-2.24-.51-3.39-.61a.67.67,0,0,1-.69-.76,7.22,7.22,0,0,1,.14-2.17c.21-.62.26-1.28.42-1.91a7.39,7.39,0,0,1,3.67-4.68,27.39,27.39,0,0,1,7.67-2.76c3.94-.9,7.95-.76,11.95-.64a27.73,27.73,0,0,1,5.33.76A6.65,6.65,0,0,1,435.82,306.56Z"/><path class="cls-2" d="M513.85,466.21a42.88,42.88,0,0,1,2.69-3.72c1.15-1.68,2.43-3.27,3.64-4.9,1-1.33,2-2.65,2.94-4a.92.92,0,0,1,1.27-.36,14.74,14.74,0,0,0,11.75-.49,27.53,27.53,0,0,0,5.37-3.14,7.21,7.21,0,0,1,.88-.55c.16-.09.36-.2.5,0a.39.39,0,0,1,0,.44,48.21,48.21,0,0,1-4.51,6.94,27.56,27.56,0,0,1-8.32,6.64,27.88,27.88,0,0,1-7.12,2.59c-1.34.3-2.72.44-4.09.63s-3,.09-4.49.16A.46.46,0,0,1,513.85,466.21Z"/><path class="cls-2" d="M101.76,350.89a7.43,7.43,0,0,1-4.94-1.5,34.25,34.25,0,0,0-5.91-2.86c-.46-.18-1.14-.25-1.22-.72s.62-.67,1-.93l5.43-3.69c.93-.62,1.87-1.22,2.81-1.81,1.11-.7,2.29-1.29,3.32-2.07a3.65,3.65,0,0,1,3.92-.32,31.4,31.4,0,0,1,3.76,2c1.48.88,3,1.73,4.45,2.63.75.46.8.56,0,1.15a28.5,28.5,0,0,1-2.7,1.77,24.79,24.79,0,0,0-5,4.09,8.87,8.87,0,0,1-2,1.59A4.52,4.52,0,0,1,101.76,350.89Z"/><path class="cls-2" d="M249.15,283a12.55,12.55,0,0,1,3.33,2.8,23,23,0,0,1,3.4,5.72c.42,1.05.59,2.15.93,3.21a27.68,27.68,0,0,1,.68,4.53,5.33,5.33,0,0,1-.11,2.41,1.83,1.83,0,0,0-.08.57,19,19,0,0,1-1.16,5.83A17.54,17.54,0,0,1,252,315c.08-.93.09-1.71.23-2.46a14.57,14.57,0,0,0,0-4.47,11.66,11.66,0,0,0-.93-3.42,15.32,15.32,0,0,0-2.74-4.22c-.5-.54-1-1.06-1.56-1.55a2.61,2.61,0,0,1-.88-2,22.5,22.5,0,0,1,.57-4.09c.44-2.3,1.16-4.52,1.55-6.83A10.44,10.44,0,0,1,249.15,283Z"/><path class="cls-2" d="M473,401.06c-.56-.57-1.17-1.09-1.66-1.7-1.07-1.32-2.27-2.51-3.36-3.79-1.44-1.7-3-3.28-4.38-5a20.57,20.57,0,0,1-1.78-2c-.42-.7-.45-.72.29-1.07a13,13,0,0,0,2.9-1.86c1.7-1.44,1.55-3.62.48-5.31a22.36,22.36,0,0,0-3.1-3.55c-.54-.55-.51-.58.08-1A7.43,7.43,0,0,1,467,374a4.63,4.63,0,0,1,4.15,2.46,12.26,12.26,0,0,1,1.39,3.75c.67,2.61.49,5.26.71,7.89.27,3.12,0,6.23.2,9.34.06,1.17-.37,2.28-.24,3.44Z"/><path class="cls-2" d="M569,329.4a13.22,13.22,0,0,1,1,9.17,15.18,15.18,0,0,1-3.82,6.87,36,36,0,0,1-5.1,4.62c-1.63,1.17-3.33,2.2-5.05,3.22-2,1.2-4.13,2.24-6.26,3.24-1.87.87-3.78,1.65-5.77,2.51a1.6,1.6,0,0,1,.36-1.17c.79-1.23,1.59-2.44,2.41-3.65a43.35,43.35,0,0,1,5.74-6.74,28.08,28.08,0,0,1,6.79-4.69,19.69,19.69,0,0,0,7.13-5.71,12.07,12.07,0,0,0,2.23-5.6A8.85,8.85,0,0,0,569,329.4Z"/><path class="cls-2" d="M480.73,379.51a14.39,14.39,0,0,0-4.7-8.75,18.39,18.39,0,0,0-5.19-3.18c-.93-.36-1.85-.75-2.75-1.19a7,7,0,0,1-3.72-4.07,4.4,4.4,0,0,1,1.41-4.86,7.75,7.75,0,0,1,3.29-1.52,5.19,5.19,0,0,1,4,1,26.11,26.11,0,0,1,6.62,8,18.51,18.51,0,0,1,2,5.72,26.61,26.61,0,0,1,.09,3.46,15.39,15.39,0,0,1-.46,4.11A3.17,3.17,0,0,1,480.73,379.51Z"/><path class="cls-2" d="M481.45,356.05c-.31,0-.46-.27-.62-.47a17.54,17.54,0,0,0-8.08-5.88,27.17,27.17,0,0,0-6-1.37,17,17,0,0,1-5.15-1.1,6.22,6.22,0,0,1-3.61-3.67c-1.12-3.39.78-5.91,4.19-6.3,2.19-.25,4,.76,5.75,2s3.24,2.32,4.82,3.54a28.59,28.59,0,0,1,6.4,6.59,16.23,16.23,0,0,1,2.44,6.17,1,1,0,0,1,0,.34C481.55,355.93,481.49,356,481.45,356.05Z"/><path class="cls-2" d="M172.61,318c-1.38.51-2.49.94-3.6,1.33l-9.24,3.24-6.41,2.27a2.86,2.86,0,0,0-.54.19c-1.16.8-2,.19-2.82-.61-1.27-1.22-2.61-2.38-3.95-3.52-1.15-1-1.09-1.12.3-1.67,2.9-1.14,5.78-2.3,8.68-3.45a51.18,51.18,0,0,1,7.25-2.27A4.63,4.63,0,0,1,166,314C168.05,315.34,170.22,316.55,172.61,318Z"/><path class="cls-2" d="M604.38,182.84a107.81,107.81,0,0,0-4.89,9.72,25.35,25.35,0,0,1-2.37,4.85,21.8,21.8,0,0,1-5.12,5.42,27.33,27.33,0,0,1-4.73,2.84c-.82.36-.95.29-1-.58a22.87,22.87,0,0,1,1.13-6.3,21.4,21.4,0,0,1,2.64-5.72,13.59,13.59,0,0,1,2-2.78c.72-.69,1.38-1.44,2.08-2.14a24,24,0,0,1,7.56-4.73A4.78,4.78,0,0,1,604.38,182.84Z"/><path class="cls-2" d="M508.56,372.82c-.33.72-.68,1.44-1.05,2.13a16,16,0,0,0-1.8,6.13,8.44,8.44,0,0,0,.55,3.48,11.53,11.53,0,0,0,3.4,4.71A1.26,1.26,0,0,1,510,391c-.54,1.23-1.26,2.37-1.81,3.59-.74,1.64-1.64,3.21-2.44,4.82s-.95,1.58-2.19.46a12.7,12.7,0,0,1-3.91-7.16,17.5,17.5,0,0,1,.05-7.1,20.48,20.48,0,0,1,2.25-5.87,23.85,23.85,0,0,1,4.37-5.47c.63-.59,1.34-1.1,2-1.64Z"/><path class="cls-2" d="M569.06,273.69a19.58,19.58,0,0,1,3.75.42,14.87,14.87,0,0,1,8,4.92c1.78,1.8,3.39,3.77,5.55,5.15,1.46.93,2.94,1.84,4.33,2.85,1.91,1.39,3.37,3.16,3.25,5.76a9.33,9.33,0,0,1-1,3c-.2.5-.66.54-1.29.18-.87-.49-1.75-1-2.57-1.54a50.54,50.54,0,0,1-5.31-4,31.23,31.23,0,0,1-6.44-8.33,14.64,14.64,0,0,0-3.41-4A47,47,0,0,1,569.06,273.69Z"/><path class="cls-2" d="M500.81,410.43a27.91,27.91,0,0,1-1.07,7.13c-.37,1.24-.6,2.53-1,3.76s-.12,2.38-.46,3.53c-.05.18,0,.42-.19.5s-.43-.12-.56-.3a26.83,26.83,0,0,1-3.52-5.93,19.15,19.15,0,0,1-1.49-8.43,26.75,26.75,0,0,1,1.12-5.85c.5-1.7,1.19-3.32,1.8-5,.34-.93.72-1,1.35-.28a15.6,15.6,0,0,1,3.71,7.06A12.33,12.33,0,0,1,500.81,410.43Z"/><path class="cls-2" d="M453.21,316.49a2.23,2.23,0,0,1-1.13.13,46.82,46.82,0,0,0-10.17,1,18,18,0,0,0-8.23,3.93,25.33,25.33,0,0,0-1.9,1.68c-.28.31-.58.48-1,.19a38.79,38.79,0,0,0-3.64-2,2.91,2.91,0,0,1-1-4.46,7,7,0,0,1,2.86-2.26,15.55,15.55,0,0,1,5.09-1.32,30.07,30.07,0,0,1,17.22,2.13A5.59,5.59,0,0,1,453.21,316.49Z"/><path class="cls-2" d="M471.29,333.76a14.31,14.31,0,0,1-2.35-1.4,22.48,22.48,0,0,0-7.22-2.56,19.3,19.3,0,0,0-10.32,1.58,3,3,0,0,1-2,.13,7.36,7.36,0,0,1-2.6-1.16,2.52,2.52,0,0,1-1-2.84c.18-.67.31-1.34.51-2a1.28,1.28,0,0,1,1-1c1.38-.27,2.79-.46,4.18-.75a27.5,27.5,0,0,1,5.29-.21,13.46,13.46,0,0,1,7,2,20.27,20.27,0,0,1,6.62,6.44C470.7,332.53,471.3,332.89,471.29,333.76Z"/><path class="cls-2" d="M489.07,481.48c.66-.24,1.29-.49,1.92-.71a43.62,43.62,0,0,0,5.25-2.4,22.63,22.63,0,0,1,6.38-2.28,8.73,8.73,0,0,1,3.22,0,10.64,10.64,0,0,0,4.21-.19,58.71,58.71,0,0,0,7.47-2.32,2,2,0,0,1,1.23-.27,16.89,16.89,0,0,1-4,4.15,35.15,35.15,0,0,1-4.65,3.15,28,28,0,0,1-6.72,2.35,25,25,0,0,1-4.23.41,27.46,27.46,0,0,1-4.22-.33,30.89,30.89,0,0,1-5-1A1.11,1.11,0,0,1,489.07,481.48Z"/><path class="cls-2" d="M181.42,304.11a13.93,13.93,0,0,1,5.07,1.35c1.37.62,2.71,1.32,4,2,.64.33.64.57,0,.94-3.21,1.87-6.36,3.84-9.71,5.47l-.11,0c-2.11,1.67-4,.53-5.81-.56a33.9,33.9,0,0,1-3.66-2.78c-.35-.28-.43-.52-.1-.84a11.88,11.88,0,0,1,1.08-1.05c1.41-1.05,2.8-2.15,4.29-3.08A9,9,0,0,1,181.42,304.11Z"/><path class="cls-2" d="M196.58,281.88h6.71c1.2,0,1.2,0,1.18,1.23a19.2,19.2,0,0,1-.29,2.28c-.15.94-.17,1.9-.38,2.84a1.17,1.17,0,0,1-1,1,3,3,0,0,1-.8.05H190c-1.25,0-1.31-.06-1.32-1.3,0-1.69,0-3.39,0-5.08,0-1,0-1,1-1Z"/><path class="cls-2" d="M463.52,427.51c-1.48-.81-3-1.62-4.49-2.46-1.68-.93-3.38-1.83-5-2.85-1.9-1.2-4-2.16-5.5-3.9a2.9,2.9,0,0,1-.69-2.54c.25-1.72,1.29-3.1,1.82-4.7a.46.46,0,0,1,.65-.28,29,29,0,0,1,4.23,1.47,5.67,5.67,0,0,1,2.17,2.48c1.27,2,2.57,4.1,3.68,6.25s2.17,4,3.28,6.06C463.75,427.17,463.71,427.34,463.52,427.51Z"/><path class="cls-2" d="M193.46,302.5c-1.8.17-3.4-.76-5.05-1.44-1.38-.58-2.72-1.26-4.13-1.78-.68-.26-.72-.32-.44-1,1.19-2.9,3.34-4.74,7.39-4.19a27,27,0,0,0,8,.12,2.94,2.94,0,0,1,2.52.46c.36.31.49.62.15,1-1.61,1.7-2.85,3.71-4.58,5.32A4.32,4.32,0,0,1,193.46,302.5Z"/><path class="cls-2" d="M492.46,487.74a1.38,1.38,0,0,1-.77.49,55.6,55.6,0,0,1-7.33,1.36,26.66,26.66,0,0,1-5.05.28,32.8,32.8,0,0,1-8.42-1.7,37.91,37.91,0,0,1-4.44-2.16.79.79,0,0,1-.56-.68A41.78,41.78,0,0,1,492.46,487.74Z"/><path class="cls-2" d="M582,197.7a6.66,6.66,0,0,1-.32,2.71c-.3,1.74-.7,3.45-1.12,5.17a9.39,9.39,0,0,1-4,6A23,23,0,0,1,572,213.8c-1.89.68-3.82,1.2-5.74,1.76a1.06,1.06,0,0,1-1-.07c.69-.84,1.43-1.62,2.16-2.38,1.4-1.49,2.74-3,4.15-4.5,2.26-2.36,4.49-4.76,6.7-7.17C579.48,200.16,580.77,199,582,197.7Z"/><path class="cls-2" d="M453.78,400.34c0-2.37,2.75-4.23,4.74-3.39a8.35,8.35,0,0,1,3.41,2.65c1.24,1.61,2.43,3.26,3.62,4.91.93,1.3,1.77,2.69,2.65,4,.11.17.2.36.08.53s-.34.08-.51,0c-2.35-.75-4.63-1.67-6.92-2.55-1.18-.46-2.36-.92-3.5-1.47A7.07,7.07,0,0,1,453.78,400.34Z"/><path class="cls-2" d="M404.67,407a18.31,18.31,0,0,1-.21,3.9.79.79,0,0,0,0,.34c.15,1.85-.27,3.67-.27,5.52a30.44,30.44,0,0,1-.38,3.53,3.44,3.44,0,0,0,0,.45c.15,1.93-.35,3.83-.24,5.75a2.36,2.36,0,0,1,0,.8c-.41,1.27-.08,1.2-1.4,1.16-.59,0-1.12.28-1.71.26s-.72-.15-.8-.71a46,46,0,0,1-.19-7.6,20.66,20.66,0,0,1,1-4.82,26.41,26.41,0,0,1,1.83-4.68c.45-.94.93-1.85,1.41-2.77A2.25,2.25,0,0,1,404.67,407Z"/><path class="cls-2" d="M416.71,461.87a1.58,1.58,0,0,1-.32.91,5,5,0,0,1-1.44,1.46c-1.48,1-1.47,1-2.5-.45-1.86-2.58-3.73-5.15-5.56-7.74a3.67,3.67,0,0,1-.6-2.64,1.59,1.59,0,0,1,.61-1.08,6.92,6.92,0,0,1,1.67-1,1.35,1.35,0,0,1,1.93.67,56.87,56.87,0,0,0,5,7.16A4,4,0,0,1,416.71,461.87Z"/><path class="cls-2" d="M404.6,447.72c-1.29,0-1.49-.15-1.79-1.26-.68-2.56-1.36-5.11-2-7.67-.14-.55-.12-1.13-.29-1.69a1.37,1.37,0,0,1,.29-1.09,6.63,6.63,0,0,1,1.39-1.68c.3-.24.37-.88.94-.67s1.29.45,1.45,1.2a38.11,38.11,0,0,0,1.22,4.07c.55,1.66.84,3.4,1.56,5a2.51,2.51,0,0,1-.66,3.22A3,3,0,0,1,404.6,447.72Z"/><path class="cls-2" d="M307.57,317.78s0-.09.05-.09.06.06-.05.09Z"/><path class="cls-2" d="M281.85,333.77s0-.1,0-.1.06.06,0,.09Z"/><path class="cls-3" d="M284,395.52l-.1,0a.92.92,0,0,1,0-.09C284,395.4,284,395.42,284,395.52Z"/><path class="cls-3" d="M145.61,271.23l-.09-.05c0-.08.06-.06.1.05Z"/></g></svg>