<svg xmlns="http://www.w3.org/2000/svg" viewBox="0 0 700 700"><defs><style>.cls-1{fill:#d62024;}.cls-2{fill:#f5eded;}</style></defs><g id="Capa_3" data-name="Capa 3"><circle class="cls-1" cx="598.54" cy="352.2" r="315.07"/><path class="cls-2" d="M362.32,628.39a.83.83,0,0,0-.81-.85,26.58,26.58,0,0,1-6.76-1.62,28.14,28.14,0,0,1-10.13-6.24,43.88,43.88,0,0,1-4.53-5,32.18,32.18,0,0,1-5.23-12.1,22.19,22.19,0,0,1,.2-6.94,33.22,33.22,0,0,1,6.27-13,24.26,24.26,0,0,1,7.8-6.48,22.55,22.55,0,0,1,8.45-2.73,14.27,14.27,0,0,1,6.71.32,1.36,1.36,0,0,1,.31.25c0,.46-.42.55-.73.71-1.43.72-2.88,1.41-4.3,2.16a23.43,23.43,0,0,0-8.58,7.57,15,15,0,0,0-2.71,7.28c-.06.64-.38,1.27-.38,1.91a17.67,17.67,0,0,0,2.38,9.14c2.48,4.27,6.33,6.47,10.91,7.71a12.59,12.59,0,0,0,4.1.47c.51,0,1,0,1.53,0a27.57,27.57,0,0,0,11.6-2.55,34.61,34.61,0,0,0,7-4,28.16,28.16,0,0,0,6.5-6.07c.84-1.18,1.75-2.31,2.59-3.5a31.79,31.79,0,0,0,4.33-9.45,33.17,33.17,0,0,0,1.08-11.87,27.2,27.2,0,0,0-2-8.22A31.21,31.21,0,0,0,390,553.92a28.67,28.67,0,0,0-3-2.46,54.87,54.87,0,0,0-6.05-3.87,36.48,36.48,0,0,0-4.4-1.9,76.84,76.84,0,0,0-8.13-2.46c-1.07-.26-2.16-.23-3.23-.4a25.72,25.72,0,0,0-5.39-.66,6.74,6.74,0,0,1-2.59-.29,5.51,5.51,0,0,0-1.73-.13H344.73a6,6,0,0,0-2.37.29,1.8,1.8,0,0,1-.86.12c-2.05-.22-4,.4-6.06.55a42.66,42.66,0,0,0-6.39,1.24,66.07,66.07,0,0,0-8.41,2.27c-3.19,1.2-6.39,2.38-9.52,3.78a103.49,103.49,0,0,0-13.66,7.69c-4.09,2.64-8.19,5.25-12.44,7.65-3.24,1.82-6.58,3.45-9.91,5.09-1.88.92-3.88,1.62-5.85,2.39a79.54,79.54,0,0,1-12.09,3.59c-2.62.57-5.26.92-7.92,1.29-4.73.65-9.45.17-14.17.36a5,5,0,0,1-2-.22,3.94,3.94,0,0,0-1.28-.2,41,41,0,0,1-7.3-1.07A73.66,73.66,0,0,1,212.21,573a62.38,62.38,0,0,1-7.85-3.25q-3.42-1.74-6.85-3.42a52.46,52.46,0,0,1-5.28-3.06c-1.83-1.18-3.7-2.29-5.45-3.59a72,72,0,0,1-8.88-7.37c-1.22-1.25-2.47-2.48-3.71-3.71a76.29,76.29,0,0,1-7.09-8.54c-3.31-4.4-5.62-9.35-7.92-14.29a74,74,0,0,1-4.35-13.23c-.74-2.88-1.06-5.84-1.7-8.73a7.08,7.08,0,0,1,0-1.53c0-3.06,0-6.12,0-9.19a13.64,13.64,0,0,1,.37-4.54,4.73,4.73,0,0,0,.06-1.31,13.83,13.83,0,0,1,.35-3.89,8.28,8.28,0,0,0,.09-2.18,11.13,11.13,0,0,1,.36-3.89,2.23,2.23,0,0,0,.07-.86,33.24,33.24,0,0,1,.77-8.21.69.69,0,0,0-.73-.86,9.45,9.45,0,0,0-2.61.08,8.73,8.73,0,0,1-3.24.31c-1.34-.13-2.55.54-3.88.48a9.73,9.73,0,0,0-3.9.32,4.49,4.49,0,0,1-1.52.09H122.65a5.61,5.61,0,0,1-2.15-.27,3,3,0,0,0-1.07-.15c-2.63.09-5.19-.58-7.77-.8a98,98,0,0,1-16.4-3.28A82.1,82.1,0,0,1,83.33,460c-3-1.3-6-2.59-9-4a104.27,104.27,0,0,1-13-7.92c-2.64-1.81-5.08-3.87-7.61-5.81-1.63-1.25-2.94-2.83-4.54-4.07a55.58,55.58,0,0,1-4.64-4.29A84.62,84.62,0,0,1,39,427.51,79.26,79.26,0,0,1,33,419.45a87.35,87.35,0,0,1-6.16-11.78,65.65,65.65,0,0,1-2.71-7.36A79.64,79.64,0,0,1,21.69,390c-.26-1.49-.32-3-.68-4.5a18.25,18.25,0,0,1-.12-3.92,13,13,0,0,0-.07-1.53c-.06-.41-.43-.55-.81-.61V373.7c.38-.06.76-.19.81-.6a10.25,10.25,0,0,0,.06-1.75,39.34,39.34,0,0,1,.72-6.68c.31-2.54,1-5,1.59-7.44a55.38,55.38,0,0,1,2.46-7.44A98.84,98.84,0,0,1,30.86,339a50.57,50.57,0,0,1,5-7.62,52.59,52.59,0,0,1,5.23-6.13c.84-.79,1.3-1.93,2.24-2.65,2.08-1.59,3.9-3.48,5.91-5.15A82.55,82.55,0,0,1,56.9,312a68.66,68.66,0,0,1,10.21-5.4,70.69,70.69,0,0,1,7.37-2.69,57.55,57.55,0,0,1,8.24-2c1.38-.23,2.77-.13,4.1-.41,2.68-.58,5.37-.3,8.05-.38a5.62,5.62,0,0,1,2.37.26,3.25,3.25,0,0,0,1.08.16,51.89,51.89,0,0,1,11.14,1.73A73.85,73.85,0,0,1,120,306.63c3.46,1.39,6.75,3.12,10,4.84a64,64,0,0,1,7.63,5,68.61,68.61,0,0,1,10.1,9.31,46.64,46.64,0,0,1,6.16,8.43,32.41,32.41,0,0,1,3.7,9.26,21.09,21.09,0,0,1,.69,5.37c0,1.09,0,2.19,0,3.28A34.34,34.34,0,0,1,156,364.71a36.26,36.26,0,0,1-4.62,8.88,41.42,41.42,0,0,1-6.49,7.61,35.22,35.22,0,0,1-11.52,6.91,34,34,0,0,1-5.44,1.52,15.78,15.78,0,0,1-2.37.27,10.87,10.87,0,0,0-3.67.35,4.27,4.27,0,0,1-1.52.07c-2.54-.1-5.1.33-7.61-.4a2,2,0,0,0-.65,0,44,44,0,0,1-9.69-1.19A37.83,37.83,0,0,1,92,385a38.56,38.56,0,0,1-5.9-4.09,5.29,5.29,0,0,1-1.48-1.58c-.31-.58-1.2-1-.82-1.84.68-.15,1.24.25,1.86.4,3.09.78,6.16,1.69,9.29,2.31a35.09,35.09,0,0,0,4.74.61,31.83,31.83,0,0,0,5,.36c4.55-.43,9.08-1,13.3-3a38.49,38.49,0,0,0,7.48-4.41,28.24,28.24,0,0,0,7.59-8.59,17.31,17.31,0,0,0,2-10.77,20.69,20.69,0,0,0-4.87-10.78,23.77,23.77,0,0,0-2.38-2.83c-3.82-3.31-7.85-6.26-12.74-7.79a33.92,33.92,0,0,0-7.24-1.37,18.47,18.47,0,0,0-6.25.07,47.23,47.23,0,0,0-16.85,3.92,46.23,46.23,0,0,0-9.39,5.48,39.33,39.33,0,0,0-7.53,7.23,48,48,0,0,0-5.48,8.37,41.81,41.81,0,0,0-3.77,10.2c-.4,1.91-.7,3.83-1,5.77-.71,4.8-.2,9.6-.35,14.39a22.57,22.57,0,0,0,.53,4.09,51,51,0,0,0,2.44,9.69A60.37,60.37,0,0,0,69,417.29a50.4,50.4,0,0,0,5.42,6.25,6.1,6.1,0,0,1,1.25,1.51,2.06,2.06,0,0,0,.71.81,26.91,26.91,0,0,1,3.88,3.5c1,.92,2.09,1.81,3.16,2.68a124,124,0,0,0,10.49,7.42c1.34.87,2.77,1.59,4.16,2.39,1,.57,2,1.23,3,1.71,2.45,1.11,4.9,2.23,7.42,3.17a66.64,66.64,0,0,0,9.38,2.83c2.19.47,4.4.87,6.61,1.26,2,.36,4.08,0,6,.72a4,4,0,0,0,1.3.06h6.79a5.8,5.8,0,0,0,2.37-.29,2.23,2.23,0,0,1,.85-.13,68,68,0,0,0,16-2.77,40.35,40.35,0,0,0,10-4.18,86.23,86.23,0,0,0,9.25-6.14c2.75-2.15,5.55-4.23,8.45-6.15A104.36,104.36,0,0,1,201,423.55a99.44,99.44,0,0,1,18.14-6.09c3.33-.77,6.69-1.25,10-1.83,1.86-.32,3.75-.27,5.61-.68a26.92,26.92,0,0,1,5-.12,10.48,10.48,0,0,0,3.9-.33,1,1,0,0,1,.64-.05c2.44.72,4.93.27,7.39.38a15.88,15.88,0,0,1,2.81.3c1.33.31,2.72.33,4.09.53a80.34,80.34,0,0,1,11.69,2.43c2.57.76,5.13,1.6,7.69,2.42a82.63,82.63,0,0,1,8.67,3.56c1.06.48,2.08,1.05,3.13,1.56a90.33,90.33,0,0,1,12.14,6.9,12.74,12.74,0,0,1,2.21,1.38c1.06,1.09,2.15,2.15,3.18,3.19a.61.61,0,0,1-.93.42,6.49,6.49,0,0,0-3-.35,11.7,11.7,0,0,1-3.44-.46,52.77,52.77,0,0,0-5.59-.73c-1.94-.21-3.86-.77-5.84-.58a3.14,3.14,0,0,1-1.3-.06,12.48,12.48,0,0,0-4.34-.37q-7.22,0-14.44,0a8.48,8.48,0,0,0-3.24.33,3.48,3.48,0,0,1-1.3.1,6.47,6.47,0,0,0-2.58.33,2.08,2.08,0,0,1-.86.1,40.48,40.48,0,0,0-7.52,1.1,111.32,111.32,0,0,0-11.81,2.94,74.76,74.76,0,0,0-9,3.3c-1.86.81-3.74,1.6-5.61,2.4a10.67,10.67,0,0,0-1.18.57,100.83,100.83,0,0,0-9.24,5.35c-2.6,1.86-5.21,3.69-7.67,5.74a79.44,79.44,0,0,0-7.68,7.44,68.77,68.77,0,0,0-8,10.88c-1.25,2.06-2.3,4.22-3.39,6.36a51.33,51.33,0,0,0-3.31,8.06,70.72,70.72,0,0,0-2.22,9.08,21.28,21.28,0,0,0-.54,6.27c.15,1.19-.43,2.3-.4,3.45s.47,2.11.41,3.23c-.13,2.33.46,4.6.71,6.89a48,48,0,0,0,1.6,6.77,33,33,0,0,0,2,5.32A62,62,0,0,0,195,543.54a53.94,53.94,0,0,0,7.19,7.61,65.74,65.74,0,0,0,9.37,6.72,62.52,62.52,0,0,0,18,6.92c2.24.54,4.57.75,6.86,1.1a65.14,65.14,0,0,0,8.71.35,32.33,32.33,0,0,0,5-.32c1.86-.26,3.71-.62,5.56-.91a42.76,42.76,0,0,0,8.56-2.52,55.12,55.12,0,0,0,12.5-6.64c1.88-1.35,3.73-2.75,5.52-4.24,1.45-1.23,2.86-2.48,4.18-3.83a38.93,38.93,0,0,0,8.22-12.48,55.16,55.16,0,0,0,2.78-9.38,8.51,8.51,0,0,0,.07-1.52,11.4,11.4,0,0,1,.27-2.59,9.15,9.15,0,0,0,.05-4.13c-.22-1-.2-2-.34-3a40.91,40.91,0,0,0-.95-4.91,35.92,35.92,0,0,0-6.78-13.27,29.94,29.94,0,0,0-10.44-8,33.21,33.21,0,0,0-7.71-2.28,34.68,34.68,0,0,0-8.69-.43,22.1,22.1,0,0,0-4.52.57c-1.84.43-3.66.91-5.46,1.48a29.23,29.23,0,0,0-9.08,4.68A22,22,0,0,0,236.7,502a40.06,40.06,0,0,0-1.65,6.07,9.89,9.89,0,0,0-.1,2.61,17.88,17.88,0,0,0,4.93,11.79,27.72,27.72,0,0,0,7.58,5.44c1.35.71,2.72,1.4,4.08,2.11a.52.52,0,0,1,.24.33.42.42,0,0,1-.38.45,12.16,12.16,0,0,1-3,.51,2.46,2.46,0,0,0-1.07.17,4.71,4.71,0,0,1-2.37.23c-3.61-.45-7.22-.95-10.49-2.65a25,25,0,0,1-8.59-6.89,29.63,29.63,0,0,1-4.28-7.53,28,28,0,0,1-1.17-4.63,26.72,26.72,0,0,1-.37-5.42,38.32,38.32,0,0,1,2.71-13.36A35.53,35.53,0,0,1,228.63,481c1.47-1.77,2.66-3.87,4.82-5a36.5,36.5,0,0,1,9.56-6.41,37.86,37.86,0,0,1,7.83-2.66,25.59,25.59,0,0,1,7.54-1,3.76,3.76,0,0,0,1.3,0c2.15-.67,4.35-.26,6.52-.37,2.31.82,4.8,0,7.11.84A53.36,53.36,0,0,1,296,474.32c1.81,1.21,3.65,2.4,5.37,3.72a64.48,64.48,0,0,1,8,7.45,36.73,36.73,0,0,1,3.67,4.59,45.34,45.34,0,0,1,3.82,7.1,59,59,0,0,1,2.93,9.8c.33,1.4.24,2.91.64,4.28.64,2.21,0,4.52.77,6.69a5.17,5.17,0,0,1,.06,1.53c0,.43,0,.88,0,1.31.28,2.32,1.05,3,3.38,3a29.94,29.94,0,0,0,5.18-.64c2.22-.31,4.42-.75,6.62-1.15,1.29-.23,2.56-.48,3.84-.72s2.78,0,4.09-.56c2.69,0,5.33-.68,8-.48a12.28,12.28,0,0,0,3.46-.29,9,9,0,0,1,3.69,0,21.22,21.22,0,0,0,4.34.33c1.38,0,2.74.2,4.11.35,2.17.23,4.3.59,6.44,1,1.14.21,2.25.55,3.38.81a67.19,67.19,0,0,1,13.69,5,58,58,0,0,1,9.41,5.89A42.94,42.94,0,0,1,408,540a47.13,47.13,0,0,1,6.86,10.05,75.51,75.51,0,0,1,3.35,7.81,49.9,49.9,0,0,1,1.4,5.7c.32,1.49.57,3,.82,4.48a8.67,8.67,0,0,1,.07,1.53c0,2.11,0,4.23,0,6.34a43.86,43.86,0,0,1-2.08,13.27,48.23,48.23,0,0,1-3.59,9.36,58.66,58.66,0,0,1-5.58,8.83,49,49,0,0,1-6.72,7.16,62.26,62.26,0,0,1-10.91,7.53,63,63,0,0,1-15.2,5.29,14.47,14.47,0,0,1-2.39.16c-.53,0-.74.37-.81.85Z"/><path class="cls-2" d="M325.11,100.2c0,.07,0,.16,0,.22,1.33,1.92,1.33,4.2,1.78,6.38a32,32,0,0,0,2.25,6.81,55.7,55.7,0,0,0,8.11,12.59c1.81,2.18,3.66,4.31,5.52,6.45a56.25,56.25,0,0,1,3.65,4.32c1.09,1.52,2.53,2.8,3.71,4.27,1.73,2.15,3.76,4,5.47,6.21,1,1.26,2.07,2.43,3.13,3.63,2.21,2.51,4.25,5.14,6.24,7.82a45.21,45.21,0,0,1,4.67,8.12,31.41,31.41,0,0,1,2.27,7.26c.28,1.42.56,2.84.8,4.26a8.67,8.67,0,0,1,.08,1.53c0,1.46,0,2.92,0,4.37A28.74,28.74,0,0,1,368.91,199a10.77,10.77,0,0,1-1.65,2.29c-1.61,1.56-2.62,3.68-4.68,4.83a12.28,12.28,0,0,0-1.9,1.79.75.75,0,0,1-1.16,0,5.09,5.09,0,0,1-.57-.66q-2.71-4.08-5.73-7.94a7.43,7.43,0,0,0-.63-.89c-2.11-2-3.72-4.49-5.93-6.4-2-1.72-3.39-4-5.32-5.78a65.88,65.88,0,0,1-5.4-5.43c-4.15-4.9-9-9.12-13.39-13.79a7,7,0,0,0-3.59-1.93,3.38,3.38,0,0,0-2.35.23,16.49,16.49,0,0,0-5.05,3.37c-1.77,1.85-3.6,3.63-5.42,5.42-2.74,2.71-5.28,5.59-7.75,8.56A131.36,131.36,0,0,0,290,194a111.05,111.05,0,0,0-6.44,11.14,58.72,58.72,0,0,1-3.47,6.56,8.5,8.5,0,0,1-1.75,1.93,3.84,3.84,0,0,1-4.46.16,12.87,12.87,0,0,1-3.22-2.93c-1-1.16-1.87-2.41-2.74-3.66a36.24,36.24,0,0,1-3.55-6.75,38.78,38.78,0,0,1-2.24-8.62,6.63,6.63,0,0,1,0-1.09c0-.88,0-1.75,0-2.63-.25-4.64.8-9.08,2-13.5a53.26,53.26,0,0,1,4.15-10.53,47.06,47.06,0,0,1,4.9-7.72,85.51,85.51,0,0,1,6.92-7.83c7.56-7.5,15.19-14.93,22.56-22.62,4.28-4.48,8.65-8.85,12.93-13.33a54.4,54.4,0,0,0,4.13-5c1.3-1.74,2.48-3.58,3.72-5.37a3.83,3.83,0,0,0,.87-2Z"/><path class="cls-2" d="M618.83,339.13c-.29.06-.62.08-.73.4a8.14,8.14,0,0,0-.47,1.67,29.09,29.09,0,0,1-2.51,7.86,54.1,54.1,0,0,1-6.19,10.76c-1.18,1.58-2.75,2.81-3.77,4.52a4.58,4.58,0,0,1-1.13,1c-.29.23-.62.4-.88.64-5.25,4.89-11.56,7.69-18.39,9.56-2.74.75-5.57,1-8.31,1.63a7.09,7.09,0,0,1-1.53,0H567.7a49.46,49.46,0,0,1-17.19-3.5,37.33,37.33,0,0,1-6.21-3.15,12,12,0,0,1-2.77-2.12c-1.07-1.16-2.36-2.09-3.38-3.34a19.31,19.31,0,0,1-2-2.82,30.68,30.68,0,0,1-3.57-9.77,23.21,23.21,0,0,1,2.61-15.78,16.76,16.76,0,0,1,4.57-5.23c1-.73,1.89-1.57,2.91-2.28A43.32,43.32,0,0,1,550.5,325a20.16,20.16,0,0,1,8.06-1.63,5.07,5.07,0,0,1,2.3.56c1.62.8,1.65,1,0,2-2.21,1.39-4.39,2.82-6.46,4.43a14.16,14.16,0,0,0-5.53,8.87,14.9,14.9,0,0,0,1.7,9.9c2.18,4,5.61,6,9.79,7a28.1,28.1,0,0,0,3.43.52,24.46,24.46,0,0,0,5.8,0,33.32,33.32,0,0,0,5.71-1.31,20.13,20.13,0,0,0,4.85-2.46,11.51,11.51,0,0,0,2.72-2.16c.68-.76,1.43-1.47,2.16-2.17A23.42,23.42,0,0,0,591.37,338a18.28,18.28,0,0,0,.46-8.82A38.61,38.61,0,0,0,591,325a33.93,33.93,0,0,0-6.2-11.69A35,35,0,0,0,571,303.11a68,68,0,0,0-11.28-3.23,61.28,61.28,0,0,0-7.69-1.35c-2-.17-4-.78-6.07-.54a2.11,2.11,0,0,1-.87,0c-1.63-.59-3.32-.36-5-.38-2.48,0-5,0-7.44,0a9.48,9.48,0,0,0-3.67.36,1.78,1.78,0,0,1-.65.07,57.88,57.88,0,0,0-11,1.61,94.21,94.21,0,0,0-13.69,4.32,45.29,45.29,0,0,0-4.38,2c-2.22,1.13-4.66,1.66-6.94,2.63-1.19.51-1.22.42-1.92-.61-.17-.24-.36-.46-.51-.71a.54.54,0,0,1,.07-.77,17.9,17.9,0,0,1,1.53-1.23c2.09-1.45,4.22-2.84,6.29-4.31,2.31-1.64,4.61-3.3,7.05-4.74,1.63-1,3.21-2,4.86-2.91a124,124,0,0,1,12.14-6c2.35-1,4.74-1.89,7.13-2.72a99.33,99.33,0,0,1,10.09-2.71c2.53-.58,5.13-.9,7.7-1.31a11.13,11.13,0,0,1,1.53-.05,7.64,7.64,0,0,0,2.37-.26,6.2,6.2,0,0,1,1.73-.17h8.32a5.82,5.82,0,0,1,2.15.25,3.2,3.2,0,0,0,1.07.17,52.15,52.15,0,0,1,11.75,2,54.07,54.07,0,0,1,6.23,1.93,76,76,0,0,1,7.52,3.42c2.65,1.41,5.11,3.08,7.62,4.69.87.56,1.54,1.32,2.37,1.92a54.81,54.81,0,0,1,13.13,14.14,39.52,39.52,0,0,1,5.31,13.29c.1.57.25,1,.89,1Z"/><path class="cls-2" d="M216.56,360.19a2.25,2.25,0,0,0,1.64-.46c1.9-1.08,3.78-2.19,5.67-3.27,2.15-1.22,4.28-2.48,6.46-3.64s4.68-2.37,7-3.53a62.61,62.61,0,0,1,8.24-3.45c1.87-.61,3.7-1.3,5.59-1.84,2.08-.6,4.23-.95,6.35-1.42,1.71-.38,3.49-.17,5.16-.76a4.31,4.31,0,0,1,1.3-.06c1.17,0,2.34.05,3.5,0a25.76,25.76,0,0,1,9.61,1.6c4.15,1.41,4.16,1.4,7,4.48l.3.32a.77.77,0,0,1,.05,1.16c-1.58,1.6-3,3.36-5.21,4.23a21,21,0,0,0-6.59,4.58,23.67,23.67,0,0,0-6.6,11.37,16.4,16.4,0,0,0-.94,5.77c-.64,1.81-.18,3.77-.79,5.59a5.1,5.1,0,0,0-.07,1.52,10.93,10.93,0,0,1-.36,3.68,3.14,3.14,0,0,0-.07,1.3,16.57,16.57,0,0,1-1,6.42,11.45,11.45,0,0,1-5.92,7.23,26.85,26.85,0,0,1-8.08,2.47c-1.15.16-2.3.32-3.44.52-2,.35-4,.52-6,.86s-4.22.08-6.26.7a7.5,7.5,0,0,1-2,.1,8.9,8.9,0,0,0-3.24.34,4,4,0,0,1-1.3.09,20.33,20.33,0,0,0-5.21.39,10.07,10.07,0,0,1-2.4.06,17.17,17.17,0,0,0-3.9.32,14.71,14.71,0,0,1-3.26.11,11.43,11.43,0,0,0-3.68.34,5.9,5.9,0,0,1-1.74.1c-2,.07-4.06-.16-6.08.38a12.2,12.2,0,0,1-2.84.06,22,22,0,0,0-4.34.33,20.42,20.42,0,0,1-3.92.11,21.44,21.44,0,0,0-3.9.31,22.79,22.79,0,0,1-4.14.13,11.17,11.17,0,0,0-3.68.33,5.9,5.9,0,0,1-1.74.1c-2,.07-4.06-.16-6.08.38a12.2,12.2,0,0,1-2.84.06,19.16,19.16,0,0,0-4.33.33,14.8,14.8,0,0,1-3.27.11,25.83,25.83,0,0,0-3,.27,16,16,0,0,1-6.92-.31,3.42,3.42,0,0,1-2.24-3.76,50.21,50.21,0,0,1,3.17-9.72c1.7-4.33,3.57-8.59,5.66-12.76a139.77,139.77,0,0,1,9.4-16c1.72-2.52,3.63-4.89,5.52-7.28a102.14,102.14,0,0,1,8.82-9.66c2-1.94,4.13-3.65,6.23-5.44a88.93,88.93,0,0,1,9.71-7c1.41-.9,2.87-1.71,4.32-2.54,1.2-.69,2.38-1.42,3.63-2a92.35,92.35,0,0,1,13.28-5.54,76.3,76.3,0,0,1,8.47-1.92,73.21,73.21,0,0,1,13.47-.81,5.59,5.59,0,0,1,1.94.24,3.19,3.19,0,0,0,1.06.18c3.73,0,7.32.94,10.95,1.61a28.16,28.16,0,0,1,6,1.91,5.08,5.08,0,0,1,3,2.38c.32.69.21,1.09-.56,1.32a28.08,28.08,0,0,1-2.75.62,89,89,0,0,0-16.12,4.56,56.84,56.84,0,0,0-12.42,6.34,38.28,38.28,0,0,0-5.65,4.43,13.61,13.61,0,0,1-1.18.95,6.74,6.74,0,0,0-1,.84c-1.71,2-3.39,4-5.09,6a1.81,1.81,0,0,0-.4,1.22Z"/><path class="cls-2" d="M179.29,276.08c1.45.72,2.53,1.31,3.65,1.82,2.18,1,4.4,1.9,6.59,2.89s4.61,2.16,6.93,3.22c3,1.39,6.1,2.73,9.13,4.15,4.74,2.24,9.46,4.57,13.52,7.92a48.37,48.37,0,0,1,6.89,6.37c3.12,3.81,6.42,7.48,9.17,11.6a12,12,0,0,1,1.82,3.43c.33,1.22-.07,1.79-1.3,1.95a113.82,113.82,0,0,0-17.41,3.72c-5,1.49-10,2.89-15.07,4.3q-4.82,1.35-9.66,2.62a12.35,12.35,0,0,1-6,0c-2.61-.6-5.23-1.21-7.83-1.85a102.59,102.59,0,0,1-13.45-4.4,115.37,115.37,0,0,1-10.62-5.14,73.47,73.47,0,0,1-9.08-6A80.14,80.14,0,0,1,136,302.93a56.06,56.06,0,0,1-6.79-9,50.17,50.17,0,0,1-4.05-7.46c-1-2.35-2-4.65-2.84-7.07a62.94,62.94,0,0,1-2.35-9.49,18.81,18.81,0,0,1-.57-5.18c-.84-4-.28-8.13-.42-12.2a9.83,9.83,0,0,1,.37-4.1,1.24,1.24,0,0,0,0-.43c.07-4.83,1.21-9.48,2.38-14.11,1.08-4.29,2.37-8.53,3.51-12.8a27.44,27.44,0,0,1,2.69-5.69.47.47,0,0,1,.75-.12,13.14,13.14,0,0,1,2.33,2.87c1.45,1.9,2.75,3.92,4.1,5.9a50.32,50.32,0,0,0,6.72,8.27c.89.86,1.77,1.73,2.62,2.63a41.21,41.21,0,0,0,9,6.83,45.11,45.11,0,0,0,15.27,5.56c2.7.49,5.4,1,8.07,1.71A59.28,59.28,0,0,1,188,253.1a75.35,75.35,0,0,1,8.38,4.68c2.07,1.33,4,2.94,6,4.37a47.76,47.76,0,0,1,5.14,4.71,7.75,7.75,0,0,0,1.19.95,4,4,0,0,1,1.43,1.33,12.22,12.22,0,0,0,2.29,2.62,61.45,61.45,0,0,1,5.64,6.64,15.7,15.7,0,0,1,2.38,5.34,1.55,1.55,0,0,1,0,.43.49.49,0,0,1-.75.45,45.09,45.09,0,0,0-5.42-2.84,61.6,61.6,0,0,0-15.86-5.26c-2.07-.39-4.17-.54-6.23-.91-2.83-.51-5.66-.25-8.48-.37A9.11,9.11,0,0,0,179.29,276.08Z"/><path class="cls-2" d="M347.43,380.15c0-.87,0-1.75,0-2.62a35.27,35.27,0,0,0-3-13.29c-1.27-2.86-2.92-5.51-4.37-8.27-.88-1.68-1.65-3.41-2.68-5a10.64,10.64,0,0,1-1.55-3.81,2.49,2.49,0,0,1,2.47-3.22,14,14,0,0,1,3.88.49c3.83.75,7.64,1.66,11.48,2.4A98.2,98.2,0,0,1,365,350a19.59,19.59,0,0,1,7.15,4.05,20.34,20.34,0,0,1,4.18,5.27,36,36,0,0,1,4,11,35.4,35.4,0,0,1,.27,9.13,26.3,26.3,0,0,1-1.72,6.71,57,57,0,0,1-4.31,9.31c-2.18,3.93-4.5,7.8-7,11.54s-5,7.34-7.71,10.81c-2,2.56-3.93,5.21-6.13,7.63s-4.2,5-6.28,7.52l-.15.15c-3.27,3.32-6.22,6.95-9.65,10.1a5.86,5.86,0,0,1-4.08,1.81,3.57,3.57,0,0,1-2.59-1,29.89,29.89,0,0,1-3-3.19,47.65,47.65,0,0,0-3.85-4.44c-1.35-1.44-2.75-2.82-4.17-4.18-2-1.91-4.16-3.62-6.22-5.46-2.82-2.52-5.91-4.69-8.88-7-1.15-.89-2.33-1.74-3.52-2.57-5.59-3.91-11.24-7.74-16.76-11.75a26.92,26.92,0,0,1-5.79-6.2,32,32,0,0,1-5.42-13A24.35,24.35,0,0,1,273,382c0-.8,0-1.6,0-2.4a30.43,30.43,0,0,1,3.46-14.47,29.88,29.88,0,0,1,5.29-7.43,59.15,59.15,0,0,1,11.59-8.82,76.68,76.68,0,0,1,7.35-3.85,25.73,25.73,0,0,1,5.3-2,15.67,15.67,0,0,1,12.35,2,20,20,0,0,1,4.27,3.35,60.19,60.19,0,0,1,4.37,5.42,71,71,0,0,1,6.21,10.76,76.14,76.14,0,0,1,3.58,9.36A114,114,0,0,1,340,386.75c.56,2.84,1.19,5.67,1.84,8.49.13.57.28,1.12.37,1.7a4.11,4.11,0,0,0,.51,1.42,1,1,0,0,0,1.9.09,9.47,9.47,0,0,0,1.54-4,36.38,36.38,0,0,1,.74-4.48,1.67,1.67,0,0,0,.06-.44C346.92,386.38,347.84,383.3,347.43,380.15Z"/><path class="cls-2" d="M414.41,247.4c0-2.84,0-5.68,0-8.53a13.72,13.72,0,0,0-.37-4.55A4.29,4.29,0,0,1,414,233a11.6,11.6,0,0,0-.37-3.89,4.37,4.37,0,0,1-.07-1.31V216.45a5.85,5.85,0,0,1,.25-2.16,3.21,3.21,0,0,0,.18-1.07,54.09,54.09,0,0,1,1.56-10.29,63.3,63.3,0,0,1,2.59-9,58.4,58.4,0,0,1,4.82-10.25c.9-1.49,1.76-3,2.69-4.49a12.82,12.82,0,0,0,1.48-4.31c.08-.42.17-.85.26-1.27,0-.22,0-.45-.18-.56a.49.49,0,0,0-.41,0c-1,.63-2,1.23-2.9,1.94a42.26,42.26,0,0,0-5,4.53,53.68,53.68,0,0,0-5.49,6.74c-2.11,3.14-4.21,6.28-6.22,9.48-1.46,2.31-1.69,1.39-3.05.28-2.54-2.07-4.71-4.54-7.3-6.55-1.15-.88-2.14-1.95-3.32-2.82-2.3-1.72-4.11-1.65-6.2.38-1,1-2.1,2-3.08,3.1a29.72,29.72,0,0,1-3.32,2.83,2.39,2.39,0,0,1-.77.37.85.85,0,0,1-1.11-.73,14.68,14.68,0,0,1,.2-4.13c.3-1.11.36-2.29.65-3.41a35.1,35.1,0,0,1,6.87-13.72c1.1-1.37,2.29-2.63,3.5-3.88a41.72,41.72,0,0,1,6.23-5.11c4.86-3.44,9.7-6.91,14.64-10.23,3.74-2.51,7.42-5.12,10.95-7.9a41.88,41.88,0,0,0,8.43-8.18c.85-1.18,1.87-2.23,2.71-3.4a59.27,59.27,0,0,0,7-13.29,22.91,22.91,0,0,1,1.2-2.31,2.76,2.76,0,0,1,3.05-1.56,2.24,2.24,0,0,1,1.38.56,11.28,11.28,0,0,1,2.5,3c1.25,2.3,2.78,4.44,3.91,6.81.63,1.31,1.47,2.52,2.09,3.83a80,80,0,0,1,4.07,9.87q1.9,6,3.28,12.19c.77,3.39,1.55,6.78,2.09,10.21.23,1.41.37,2.88.61,4.29a44.44,44.44,0,0,0,.7,5.16,7.18,7.18,0,0,1,.12,1.74,11.18,11.18,0,0,0,.35,3.68,4.49,4.49,0,0,1,.09,1.52v16.84a6.21,6.21,0,0,1-.29,2.38,2.28,2.28,0,0,0-.13,1.07,27.2,27.2,0,0,1-.53,6.5c-.32,2.5-.62,5-1.12,7.51-.71,3.62-1.32,7.27-2.3,10.83a22.74,22.74,0,0,1-3.59,7.41,26.52,26.52,0,0,1-8.34,7.21c-6.66,3.89-13.11,8.1-19.52,12.37-3.82,2.54-7.69,5-11.54,7.46a6.25,6.25,0,0,1-1.36.7c-.75.27-1.26,1-2.1,1-.76-.8-.36-1.79-.38-2.68-.05-3.21,0-6.42,0-9.63Z"/><path class="cls-2" d="M440.77,401.71c1.16,0,2,0,2.77,0a40.65,40.65,0,0,1,11.4,1.48,44.61,44.61,0,0,1,11,4.16,40.36,40.36,0,0,1,9.63,6.7c.77.77,1.76,1.27,2.54,2.06a70.34,70.34,0,0,1,6.45,7.65,51.29,51.29,0,0,1,8.58,19.64,30.8,30.8,0,0,1,.95,9.28c-.08,1,.41,1.87.31,2.78a15,15,0,0,0-.3,2.59c.19,3.22-.57,6.33-1.13,9.47a46.58,46.58,0,0,1-2.11,7.54,54.62,54.62,0,0,1-5.14,10.57,50.71,50.71,0,0,1-9.46,11.08,75.84,75.84,0,0,1-7.63,5.76A100.86,100.86,0,0,1,457,508.88a53.13,53.13,0,0,1-8.58,3.16,73.63,73.63,0,0,1-8.25,1.93,21,21,0,0,1-5.17.65,3.16,3.16,0,0,0-.87,0c-3.83.83-7.7.24-11.55.4-2-.69-4.16-.42-6.25-.76-2.5-.42-5-.83-7.46-1.42a34.69,34.69,0,0,1-6.57-2.32c-1.71-.8-3.38-1.66-5.05-2.53a50,50,0,0,1-6.42-4.12,42.07,42.07,0,0,1-5.38-4.43c-.75-.76-1.72-1.31-2.49-2.1a109.43,109.43,0,0,1-8.32-9.79,58.72,58.72,0,0,1-5.36-8.71,47.74,47.74,0,0,1-4.77-13.73,41.24,41.24,0,0,1-.83-8.86,8.1,8.1,0,0,1,.31-2.81,2.15,2.15,0,0,0,.11-1.07c-.23-2.06.43-4,.52-6.07a51.77,51.77,0,0,1,.84-5.79,3.3,3.3,0,0,1,.35-1q1.25-2.29,2.56-4.56a1,1,0,0,1,.67-.49c.46-.05.53.44.62.75.51,1.74,1,3.49,1.43,5.24,1.33,5,2.62,10,4.4,14.82a70.73,70.73,0,0,0,6.24,12.94,55.46,55.46,0,0,0,9.83,11.9,50.4,50.4,0,0,0,16.88,10.19,38.75,38.75,0,0,0,7.19,1.65,58.37,58.37,0,0,0,10.89.29A38,38,0,0,0,435,490.9a68.18,68.18,0,0,0,9.13-2.9,49,49,0,0,0,10.41-5.87,32.12,32.12,0,0,0,10.27-13,38.66,38.66,0,0,0,2.39-8.34,31.86,31.86,0,0,0,.58-7.37,37.72,37.72,0,0,0-3.45-13.85,25,25,0,0,0-5.3-7.4c-.64-.6-1.27-1.22-1.86-1.86a22.17,22.17,0,0,0-5.63-4.07A42.07,42.07,0,0,0,440.15,422a7.82,7.82,0,0,0-1.73-.18c-1.54,0-3.07.07-4.6,0a22.28,22.28,0,0,0-7.53,1,25.6,25.6,0,0,0-6.32,2.94,26.48,26.48,0,0,0-11.14,14.35,35.9,35.9,0,0,0-1.92,8.47c-.25,2.51-.82,5-1.27,7.48-.14.71-.53.84-1,.4a14.7,14.7,0,0,1-3.31-4,28.46,28.46,0,0,1-2.77-6.16c-.25-.85-.32-1.71-.52-2.56a21,21,0,0,1-.62-7.56c.5-3.58,1.08-7.17,2.83-10.44a36.52,36.52,0,0,1,4.13-6.91c.43-.5.83-1,1.28-1.49,1.17-1.2,2.41-2.34,3.55-3.57a33.78,33.78,0,0,1,6.86-5.35,45.26,45.26,0,0,1,11.32-5c1.81-.54,3.68-.79,5.52-1.2C435.61,401.52,438.37,401.79,440.77,401.71Z"/><path class="cls-2" d="M434.64,335.79a.82.82,0,0,0-.46-.69,33.69,33.69,0,0,0-8.27-4.35,63.71,63.71,0,0,0-8.66-2.06,9.29,9.29,0,0,0-1.75-.06H395.59c-1.25-.05-1.51-.39-1-1.45a39.57,39.57,0,0,1,4.85-8,22.07,22.07,0,0,1,12.22-7.46,15.73,15.73,0,0,1,5-.63,33,33,0,0,0,3.72,0,26.09,26.09,0,0,1,6,.71l5.55,1c2.92.54,5.79,1.32,8.66,2.1a99.94,99.94,0,0,1,11.52,4A107.65,107.65,0,0,1,464.65,325a103.07,103.07,0,0,1,9,5.68c2.48,1.76,4.9,3.61,7.28,5.52,1.71,1.36,3.08,3.11,5,4.22,2.48,2.65,5.37,4.92,7.53,7.89a9,9,0,0,0,.9,1c1.55,1.54,2.82,3.31,4.22,5a75.18,75.18,0,0,1,4.78,6.2c1.42,2.11,2.88,4.19,4.28,6.3,1.21,1.82,2.38,3.66,3.55,5.5a17,17,0,0,1,2,4.35.75.75,0,0,1-.54,1,6.58,6.58,0,0,1-2.33.46q-15,0-30,0a2.79,2.79,0,0,1-.87,0,15.74,15.74,0,0,0-5.2-.39H445a8.13,8.13,0,0,0-2.81.28,5.51,5.51,0,0,1-1.73.14c-1.6,0-3.21,0-4.81,0a9.37,9.37,0,0,0-3.24.33,5.29,5.29,0,0,1-1.74.1c-2.19,0-4.37,0-6.56,0a22,22,0,0,1-4.12-.31c-1.33-.26-2.73-.27-4.08-.56a59.87,59.87,0,0,1-10.42-3.09,58.05,58.05,0,0,1-8.59-4.7,39.1,39.1,0,0,1-7.13-5.71c-.71-.73-1.43-1.46-2.16-2.16a77.2,77.2,0,0,1-6.37-7.16c-1.65-2-3.15-4.17-4.62-6.33a6.92,6.92,0,0,1-1.14-4.34,2.27,2.27,0,0,1,.69-1.54,7.56,7.56,0,0,1,3-1.72,42.6,42.6,0,0,1,6.95-1.75c2.28-.44,4.55-.89,6.84-1.22,1.86-.27,3.75-.39,5.62-.53a7.32,7.32,0,0,0,2.59-.32,1,1,0,0,1,.42-.09c2.63.14,5.22-.35,7.82-.45,2.33-.09,4.67,0,7,0a8.7,8.7,0,0,1,3.24.33,3.7,3.7,0,0,0,1.3.1h9.41A11.25,11.25,0,0,0,434.64,335.79Z"/><path class="cls-2" d="M337.22,338.7c-5.21,0-9.37,0-13.53,0a15.49,15.49,0,0,0-5,.36,4.79,4.79,0,0,1-1.52.06h-17.5a8.77,8.77,0,0,1-6.28-2.57,38.73,38.73,0,0,1-8.67-13.21,49.51,49.51,0,0,1-2.88-10.68,36,36,0,0,1-.48-9.56c.18-2.3.67-4.57,1.05-6.85a44,44,0,0,1,3.05-9.52,34.46,34.46,0,0,1,4-6.72,52.92,52.92,0,0,1,7.36-7.75c2.08-1.9,4.25-3.72,6.4-5.57,1.92-1.65,4-3.16,5.93-4.76,1.18-1,2.32-2,3.5-2.94.72-.6,1.47-1.17,2.21-1.76,2.89-2.31,5.77-4.62,8.67-6.92,2-1.63,4.08-3.26,6.16-4.83a19.33,19.33,0,0,1,4.07-2.09.62.62,0,0,1,.86.43c.55,1.88,1.12,3.76,1.63,5.65a28,28,0,0,1,.58,4.08,33,33,0,0,0,1.94,8.23,46.76,46.76,0,0,0,4.07,7.93,86.51,86.51,0,0,0,5.39,7.38c1.21,1.53,2.62,2.91,3.89,4.41s2.29,2.81,3.38,4.25,2.33,3.15,3.49,4.73a47,47,0,0,1,5.78,10.72,45.5,45.5,0,0,1,1.88,6.91c.79,3.53.55,7.11.36,10.65a31.38,31.38,0,0,1-1.6,8.08c-.4,1.17-.84,2.33-1.15,3.52a10.79,10.79,0,0,1-2.81,4.86,10.38,10.38,0,0,1-6.35,3C348.82,339.08,342.48,338.46,337.22,338.7Z"/><path class="cls-2" d="M251.4,200.41h-3.5a21.41,21.41,0,0,0-7.05,1.17,14,14,0,0,1-4.66,1,6.79,6.79,0,0,1-4.24-1.46c-3.84-3-7.71-5.92-11.65-8.77-2-1.44-4-3-5.92-4.44a8,8,0,0,0-1.47-.92.86.86,0,0,0-.84,0,.92.92,0,0,0-.28,1,2.25,2.25,0,0,0,.2.62,50.4,50.4,0,0,0,6.22,10.22,60,60,0,0,1,4,5.7,51.85,51.85,0,0,1,5.57,11.33c.7,2.07,1,4.23,1.5,6.34.72,3,.47,6.1.33,9.13a32.26,32.26,0,0,1-1.41,7c-.32,1.11-.64,2.23-1,3.33a35.57,35.57,0,0,0-1.9,9.35c-.67,1.8-.15,3.77-.82,5.57a.94.94,0,0,0,0,.44c.24,2-.32,3.9-.53,5.84a18.56,18.56,0,0,1-2.51,7.38c-.29.51-.51.52-1.08.29a7.81,7.81,0,0,1-1.75-1.3c-2.73-2.16-5.49-4.28-8.18-6.48a134.06,134.06,0,0,1-11.27-11,77.86,77.86,0,0,1-6.65-8.05c-2.11-2.87-4.09-5.83-5.9-8.89-1.14-1.94-2-4-3.09-6a59.3,59.3,0,0,1-4.1-9.86,70.25,70.25,0,0,1-2.65-10.31c-.38-2.28-.63-4.59-1-6.87-.73-5-.17-10-.37-15a95.73,95.73,0,0,1,2.39-13,78.79,78.79,0,0,1,5.46-14,82.53,82.53,0,0,1,8.06-12.67c1.55-2,3.17-4,4.87-5.86,1.27-1.4,2.53-2.8,3.83-4.17a12.85,12.85,0,0,1,4.7-2.66,2.51,2.51,0,0,1,.87-.06.87.87,0,0,1,.85.56,24.4,24.4,0,0,1,1.83,6.23,23.85,23.85,0,0,0,3.43,9.12,27.62,27.62,0,0,0,3.82,4.75,90.68,90.68,0,0,0,9.22,8c1.84,1.41,3.59,3,5.4,4.4s3.67,2.84,5.47,4.29c1.08.87,2.14,1.75,3.16,2.67,1.35,1.22,2.76,2.37,4.15,3.53,1.79,1.5,3.39,3.18,5.1,4.76a37.24,37.24,0,0,1,5.37,6.57c1.48,2.15,2.83,4.4,4.29,6.57a2.6,2.6,0,0,1,.44,1.85c-.09.65-.32,1.27-.42,1.91a.94.94,0,0,1-1.05.87H251.4Z"/><path class="cls-2" d="M439.69,273.49H436a8.82,8.82,0,0,0-2.59.3c-1.24.37-2.63-.09-3.86.54a69.13,69.13,0,0,0-9.74,2.26c-.92.23-1.81.53-2.73.76s-1.4-.21-1.14-1.15a27.15,27.15,0,0,1,5.1-10,40.19,40.19,0,0,1,5.67-5.7c1.51-1.24,3.1-2.39,4.65-3.59a48.62,48.62,0,0,1,4.22-2.69,52.69,52.69,0,0,1,6-3.2,88.36,88.36,0,0,1,13.64-5.17c2.73-.76,5.46-1.5,8.22-2.13s5.38-1.15,8.08-1.69c6.91-1.39,13.81-2.83,20.4-5.35a56.05,56.05,0,0,0,9.43-4.55c3.16-1.94,6.34-3.83,9.43-5.88,2.19-1.44,4.31-3,6.48-4.44.48-.33.87-.14.91.39a3.08,3.08,0,0,1,0,1.09c-.52,1.61-.21,3.33-.72,4.93-.26.84-.17,1.72-.38,2.58-1.45,5.77-2.74,11.57-4.22,17.33A102.9,102.9,0,0,1,508,262.76a63.62,63.62,0,0,1-8.5,14.68,37.11,37.11,0,0,1-4,4.58c-1.55,1.43-3.06,2.92-4.49,4.48-2.56,2.8-5.5,5.21-8.3,7.74-2.42,2.18-4.83,4.39-7.47,6.34a58,58,0,0,0-4.56,4,16.55,16.55,0,0,1-7.64,4c-2.81.65-5.47.17-8.19-.27-2.14-.35-4.27-.75-6.41-1.11-1.72-.29-3.43-.56-5.14-.82-1-.16-2-.14-3-.38a43.81,43.81,0,0,0-4.74-.57c-1.73-.22-3.43-.53-5.16-.75-1.43-.17-2.88-.26-4.31-.52-2-.37-4-.51-6-.81-1.35-.2-2.73-.4-4.09-.48-1.18-.07-2.27-.54-3.44-.54-.36,0-.41-.35-.27-.65a3,3,0,0,1,.44-.75c1.76-1.93,3.44-4,5.33-5.76a49.74,49.74,0,0,1,15-10.34c1.6-.67,3.29-1.17,4.95-1.69,2-.62,4-1.18,6.06-1.77a9.18,9.18,0,0,0,5.22-4.39.57.57,0,0,0-.11-.78,6.42,6.42,0,0,1-.53-.38c-2.9-3.05-3.2-2.24-6.2-2.33-.88,0-1.75,0-2.63,0Z"/><path class="cls-2" d="M231.44,274.37c0-1.6,0-3.2,0-4.81a59.87,59.87,0,0,1,.77-8.86A71.19,71.19,0,0,1,234,252a47,47,0,0,1,2.25-6.59c1.06-2.56,2.37-5,3.57-7.48a5.41,5.41,0,0,1,.8-1.28,1,1,0,0,1,1.72.4,19.34,19.34,0,0,1,.51,2.77,21.86,21.86,0,0,0,1.59,5.86,38.89,38.89,0,0,0,6.16,10.47,79.27,79.27,0,0,0,6.47,7.35c2.15,2.16,4.21,4.44,6.22,6.72a53.62,53.62,0,0,1,8.82,13.69,42.88,42.88,0,0,1,1.73,5.62,20.8,20.8,0,0,1,.84,4.69,44.05,44.05,0,0,1-.17,7.61,46.13,46.13,0,0,0,0,10.24,43.19,43.19,0,0,0,3.1,11.5c.89,2,1.7,4,2.79,5.9a39,39,0,0,1,4.12,8.89c.21.77.44,1.53.67,2.3.08.28.16.65-.13.76a1.1,1.1,0,0,1-.81-.21c-.86-.54-1.56-1.29-2.38-1.9-3.9-2.89-7.72-5.9-11.59-8.84a78.2,78.2,0,0,0-12.87-8.13,44.25,44.25,0,0,1-7.07-3.89,36.49,36.49,0,0,1-3.93-3.08c-.68-.66-1.57-1.1-2.18-1.8a61,61,0,0,1-6.13-7.89,41.73,41.73,0,0,1-3.71-8.11,50.07,50.07,0,0,1-2.09-8.42c-.3-1.71-.19-3.48-.73-5.16a5.83,5.83,0,0,1-.09-1.73C231.43,279.62,231.44,277,231.44,274.37Z"/><path class="cls-2" d="M365.16,342.53c.12-3.11,1.28-5.71,2.29-8.34s2.31-5.34,3.48-8a31.18,31.18,0,0,0,2.81-10,29.5,29.5,0,0,0,.4-4.1,32.93,32.93,0,0,0-1.3-8.13,34.93,34.93,0,0,0-3.79-8.32c-1-1.66-1.92-3.42-2.83-5.16-1-1.93-1.05-1.64.43-3.13,1.64-1.66,3.3-3.3,5-5,2.46-2.47,4.78-5.09,7.13-7.67A64.07,64.07,0,0,0,387,263.21c1.2-2.09,2.36-4.19,3.38-6.37,1.26-2.7,2.42-5.44,3.68-8.15.89-1.91,1.87-3.79,2.84-5.67.29-.57.8-.62,1.2-.06,1.6,2.24,3.54,4.25,4.7,6.8a58,58,0,0,1,2.59,5.53,59,59,0,0,1,1.68,7.19c.57,2.76.26,5.51.38,8.26-.63,2-.21,4.19-.77,6.25a33.87,33.87,0,0,0-.44,3.66,112,112,0,0,1-5,20c-.87,2.47-1.81,4.91-2.92,7.29-.82,1.78-1.57,3.6-2.49,5.34a102.43,102.43,0,0,1-9.1,14.34c-1.68,2.19-3.42,4.32-5.16,6.46a24.49,24.49,0,0,1-4.1,3.58,29.7,29.7,0,0,1-10,4.76,4.78,4.78,0,0,1-1.07.17A10.43,10.43,0,0,1,365.16,342.53Z"/><path class="cls-2" d="M344.28,222.73a38,38,0,0,1-9.24-.93,12.41,12.41,0,0,1-7.76-5.25c-.89-1.24-1.71-2.53-2.57-3.79a5,5,0,0,0-.8-1,2.15,2.15,0,0,0-3.14-.13,9.72,9.72,0,0,0-2,2,19.12,19.12,0,0,1-2,2.31,11.64,11.64,0,0,1-6.48,3.32,20.16,20.16,0,0,1-4.1.42,22.29,22.29,0,0,0-3.44.5c-3,.47-6,.8-9,1.51-1.89.45-3.84.71-5.77,1a3.85,3.85,0,0,1-3.78-1.7,1.3,1.3,0,0,1-.12-1.24,18.38,18.38,0,0,1,1.8-4c.83-1.46,1.72-2.87,2.54-4.32,2.74-4.79,5.42-9.61,8.4-14.27,2.35-3.67,4.95-7.14,7.6-10.6,1.67-2.19,3.53-4.23,5.24-6.38a16.9,16.9,0,0,1,4.5-4.09,4.55,4.55,0,0,1,5-.07,26.77,26.77,0,0,1,4.05,2.94c2.7,2.42,5.37,4.88,8.14,7.22a81.26,81.26,0,0,1,7.07,6.81c1.83,2,3.67,3.9,5.33,6a46.78,46.78,0,0,0,3.14,3.62,18.23,18.23,0,0,1,3.84,6.28,34.5,34.5,0,0,1,2.08,6.87,17.71,17.71,0,0,1,.28,2.8,3.31,3.31,0,0,1-2.75,3.61,10.44,10.44,0,0,1-3.65.5C346,222.67,345.26,222.73,344.28,222.73Z"/><path class="cls-2" d="M407.86,233.67c-.06,2.06.18,3.68-.49,5.21a7.42,7.42,0,0,1-.5,1,.48.48,0,0,1-.75.1,12.94,12.94,0,0,1-2.17-2.14,36.45,36.45,0,0,0-4-4.34c-.6-.64-1.22-1.25-1.86-1.85a3.94,3.94,0,0,0-2.13-1,3.49,3.49,0,0,0-3.77,2,39.89,39.89,0,0,0-2.62,5.28c-1.29,3.24-2.4,6.55-3.6,9.82a33.37,33.37,0,0,1-2,4.81,7.75,7.75,0,0,1-.87,1.25.74.74,0,0,1-1.28-.09,14,14,0,0,1-1.54-3.36,14.7,14.7,0,0,1,.17-8.16,53.66,53.66,0,0,1,2.07-5.51,50.68,50.68,0,0,0,2.67-7.14,35.25,35.25,0,0,0,.73-3.82.61.61,0,0,0-.26-.53.73.73,0,0,0-.59.06c-2.31,1.38-4.59,2.81-6.91,4.16-1.7,1-3.42,1.95-5.17,2.82a11.71,11.71,0,0,1-4.23.94,3.32,3.32,0,0,1-3.15-1.52,17.75,17.75,0,0,1-2.34-6.06,2.87,2.87,0,0,1,0-1.51,12.18,12.18,0,0,1,2.81-5.35c1.83-1.78,3.48-3.78,5.46-5.36,2.51-2,4.47-4.59,7.15-6.37a1.14,1.14,0,0,0,.16-.15c2-2.24,4.42-4,6.58-6.06,1.62-1.56,3.37-3,5-4.57.91-.91,1.73-.85,2.62.15a29.72,29.72,0,0,1,2.12,2.76,89.45,89.45,0,0,1,8.36,16,80.94,80.94,0,0,1,3.74,12.72A16.81,16.81,0,0,1,407.86,233.67Z"/><path class="cls-2" d="M274.64,224.44a1.77,1.77,0,0,1-.12.41,1.28,1.28,0,0,1-.26.35c-2.31,2.11-4.17,4.65-6.37,6.87q-3.75,3.81-7.3,7.79c-1.75,2-3.6,3.8-5.37,5.72-.69.74-1.27,1.59-1.95,2.34a1.78,1.78,0,0,1-2.33-.07.76.76,0,0,1-.19-.38c-.11-.93-.47-1.8-.53-2.77-.12-1.87-.46-3.72-.7-5.58a17,17,0,0,1-.13-1.74c0-1.53-.07-3.06,0-4.59a21.14,21.14,0,0,0-.49-5,4,4,0,0,0-4.23-3.32,40.89,40.89,0,0,0-4.07.63,9.21,9.21,0,0,1-1.28.2c-3.05.07-2.82,0-2-2.68a52.69,52.69,0,0,1,4.49-10.16,23.79,23.79,0,0,1,7.37-8.18c.78-.53,1-.5,1.74.09,2.88,2.43,5.74,4.88,8.64,7.29,2.12,1.76,4.3,3.44,6.42,5.19,1.29,1.06,2.5,2.2,3.79,3.27s2.71,2.17,4.06,3.27A1.64,1.64,0,0,1,274.64,224.44Z"/></g></svg>