<svg id="Capa_2" data-name="Capa 2" xmlns="http://www.w3.org/2000/svg" viewBox="0 0 700 700"><defs><style>.cls-1{fill:#d62024;}.cls-2{fill:#f4eae9;}</style></defs><path class="cls-1" d="M619,667.34H581.42c-1.19-2.09-3.23-1.19-4.91-1.3a309.83,309.83,0,0,1-118.8-32.17c-34.64-17.19-64.69-40.54-91.33-68.45,2.52-2.86,5.86-1.44,8.78-1.44q145.51-.13,291-.12c2.52,0,5.23.77,8.56-1.28-2.16-.21-3.4-.37-4.65-.44-18.2-1.08-36.39-2.32-54.61-3.12-7.21-.32-10.9-2.73-11-10.65a142.71,142.71,0,0,0-2.66-26.43c-1.3-6.32-5.17-11.62-5.28-18.88-.46-31-2.14-62-3.13-93-1.4-44.07-4-88.09-4.28-132.2,0-5.61,1.66-7,7-6.87,14.86.36,29.73.13,44.59.13,17.85,0,17.64,0,17.52-18.13,0-5-1.57-6.1-6.23-6-14.86.27-29.73.15-44.6,0-2,0-5.64,1.25-5.47-2.39.33-6.94-3.59-5.6-7.37-4.22-6.6,2.41-7.68-.33-7.92-6.47-.19-5.2,4.18-9,2.89-14.25-1.15-4.64,1.81-5.76,5.66-5.95,13.52-.68,27-1.8,40.57-2,7.69-.09,14.07-.65,15.75-9.84a4.16,4.16,0,0,1,2.59-2.71c6.39-1.46,8.37-6.53,10-11.86,2.18-7.23,6.59-11.57,14.37-12.3,3.77-.36,7.34-2,8.84-5.65,3.57-8.75,6.75-17.66,10.58-27.82-8.63,3.29-15.47,6.45-22.62,8.52-39.83,11.54-80.91,15-122,16.81-55.46,2.4-111,3-166.48.66-13.67-.59-27.45,0-40.9-3.37A289.88,289.88,0,0,1,380,125.5Q493.38,20.09,646.68,41.34c18.87,2.6,36.93,8.43,55.27,13.18V650.1c-19.34,4.64-38.32,10.77-58.12,13.54C635.54,664.79,627,664.14,619,667.34Z"/><path class="cls-2" d="M293.56,272.43c-9.34,0-18.69-.18-28-.07-4.54.06-6.62-1.69-6.58-6.41.17-22.31-2-18.27,16.93-18.62,8.57-.15,17.14-.1,25.7-.15,3.11.12,6.22.29,9.33.33,1.52,0,3.93.13,3.83-1.67-.54-9.74,5.3-6.15,9.92-4.93,4,1.06,6.13.57,6.33-4.44.29-7.17-4.21-13.36-3.49-20.58.18-1.78-2.3-1.63-3.78-1.83-2.56-.34-5.13-.62-7.69-.92-13.71-1.32-27.59,1.27-41.22-1.78-1.75-.39-4.67-.66-5-1.63-3.21-10.47-16.7-13.16-18.36-24.76-.92-6.42-5.49-9.14-11.5-9.68-6.19-.55-9.85-3.75-11.78-9.67-2-6.18-4.61-12.16-6.88-18.26-.52-1.4-1.37-3.24.36-4.18.89-.48,2.57-.08,3.66.43,30.89,14.3,64.43,14.94,97.29,19.21a142,142,0,0,0,23.29,1.35c13.45,3.34,27.23,2.78,40.9,3.37,55.5,2.37,111,1.74,166.48-.66,41.09-1.79,82.17-5.27,122-16.81,7.15-2.07,14-5.23,22.62-8.52-3.83,10.16-7,19.07-10.58,27.82-1.5,3.67-5.07,5.29-8.84,5.65-7.78.73-12.19,5.07-14.37,12.3-1.61,5.33-3.59,10.4-10,11.86a4.16,4.16,0,0,0-2.59,2.71c-1.68,9.19-8.06,9.75-15.75,9.84-13.53.16-27,1.28-40.57,2-3.85.19-6.81,1.31-5.66,5.95,1.29,5.22-3.08,9.05-2.89,14.25.24,6.14,1.32,8.88,7.92,6.47,3.78-1.38,7.7-2.72,7.37,4.22-.17,3.64,3.43,2.38,5.47,2.39,14.87.11,29.74.23,44.6,0,4.66-.08,6.19,1,6.23,6,.12,18.13.33,18.13-17.52,18.13-14.86,0-29.73.23-44.59-.13-5.38-.12-7.07,1.26-7,6.87.3,44.11,2.88,88.13,4.28,132.2,1,31,2.67,62,3.13,93,.11,7.26,4,12.56,5.28,18.88a142.71,142.71,0,0,1,2.66,26.43c.13,7.92,3.82,10.33,11,10.65,18.22.8,36.41,2,54.61,3.12,1.25.07,2.49.23,4.65.44-3.33,2-6,1.28-8.56,1.28q-145.53.07-291,.12c-2.92,0-6.26-1.42-8.78,1.44-3.34-2-7.05-1.52-10.68-1.52H227.61a197.46,197.46,0,0,1,22.95-2.9c16.07-1.12,32.2-1.3,48.32-1.78,10.79-.32,12.44-1.83,13.37-12.57.43-4.92,1.32-9.82,1.44-14.74.34-13.61.52-14,13.63-16.09-6.56.28-7.77-3.39-7.36-8.58.25-3.1,0-6.25,0-9.38.45-8.86,1-17.71,1.34-26.57q2.12-57.07,4.1-114.17C326.3,331,327.24,305,328,278.89c.09-2.87,1.93-7.44-4-7.23C313.85,272,303.67,270.73,293.56,272.43Zm268.2,243.63c-7,0-7.39-4-7.34-9.52.7-75.42,1.09-150.84,1.82-226.26.07-6.39-1.46-8.33-8.07-8.3q-89.94.39-179.9,0c-5.79,0-7.55,1.38-7.43,7.35.63,32.61.88,65.22,1.17,97.83q.6,66.15,1.11,132.31c0,2.27-1,5.83,1.2,6.53,6,1.89,4.06,6.44,4.16,10.2a226.12,226.12,0,0,1-.08,22.7c-.44,6,1.5,7.31,7.31,7.28,49.54-.25,99.08-.12,148.61-.17,7.78,0,18.25,2.65,22.61-1.3,5-4.55,1.41-15.2,1.54-23.2C548.71,517.67,548.54,517.67,561.76,516.06ZM471.85,232.7c0,3.13.18,6.26,0,9.37-.26,3.64,1,5.06,4.8,5,19.77-.15,39.54-.06,59.31-.09,1.75,0,4.28.34,4.28-2.15,0-7.86,4.6-5.58,8.75-4.23,5.07,1.65,7.11.8,7.45-5.37.31-5.55-4-9.58-3.17-14.88.62-3.93-1.38-4.79-4.92-4.72q-30.79.6-61.6.9C471.14,216.7,472,216.53,471.85,232.7Zm-68.39-15.45v-2c-11.17,0-22.34-.05-33.51,0-2.58,0-6.15-1.22-6.44,3.38-.26,4.18-1.86,8.05-2.76,12.07-2.14,9.53-.25,11.25,9.14,9.17,3.71-.82,7.25-2,6.59,4.28-.41,3.87,3,2.81,5,2.83,13.26.08,26.52,0,39.79,0,24.38,0,24.29,0,23.2-24.31-.17-3.84-1-5.62-5.22-5.54C427.34,217.39,415.4,217.25,403.46,217.25Zm147.29-16.34H387.17C441.67,206.1,496.18,205.75,550.75,200.91Zm-242.6-3.47.06-2.28c-13.63-2.93-27.25-5.92-40.9-8.72-2.16-.44-5.27-1-5.93,2s1.87,5,4.56,5.22C280,195.05,294.08,196.2,308.15,197.44Zm348.33-11-32.58,8.33C632.74,198.53,653.81,193.53,656.48,186.43Z"/><path class="cls-1" d="M293.56,272.43c10.11-1.7,20.29-.41,30.42-.77,5.94-.21,4.1,4.36,4,7.23-.75,26.08-1.69,52.15-2.61,78.22q-2,57.09-4.1,114.17c-.32,8.86-.89,17.71-1.34,26.57C304,470.06,294.62,440,288.82,408.66,280.34,362.93,282.74,317.51,293.56,272.43Z"/><path class="cls-1" d="M316,213.14c2.56.3,5.13.58,7.69.92,1.48.2,4,.05,3.78,1.83-.72,7.22,3.78,13.41,3.49,20.58-.2,5-2.32,5.5-6.33,4.44-4.62-1.22-10.46-4.81-9.92,4.93.1,1.8-2.31,1.7-3.83,1.67-3.11,0-6.22-.21-9.33-.33A308.59,308.59,0,0,1,316,213.14Z"/><path class="cls-1" d="M561.76,516.06c-13.22,1.61-13,1.61-13.29,15.47-.13,8,3.48,18.65-1.54,23.2-4.36,3.95-14.83,1.3-22.61,1.3-49.53.05-99.07-.08-148.61.17-5.81,0-7.75-1.33-7.31-7.28a226.12,226.12,0,0,0,.08-22.7c-.1-3.76,1.84-8.31-4.16-10.2-2.19-.7-1.18-4.26-1.2-6.53q-.58-66.15-1.11-132.31c-.29-32.61-.54-65.22-1.17-97.83-.12-6,1.64-7.37,7.43-7.35q90,.31,179.9,0c6.61,0,8.14,1.91,8.07,8.3-.73,75.42-1.12,150.84-1.82,226.26C554.37,512.07,554.79,516.06,561.76,516.06Z"/><path class="cls-1" d="M471.85,232.7c.12-16.17-.71-16,14.86-16.14q30.81-.26,61.6-.9c3.54-.07,5.54.79,4.92,4.72-.83,5.3,3.48,9.33,3.17,14.88-.34,6.17-2.38,7-7.45,5.37-4.15-1.35-8.76-3.63-8.75,4.23,0,2.49-2.53,2.14-4.28,2.15-19.77,0-39.54-.06-59.31.09-3.83,0-5.06-1.39-4.8-5C472,239,471.85,235.83,471.85,232.7Z"/><path class="cls-1" d="M403.46,217.25c11.94,0,23.88.14,35.81-.07,4.23-.08,5.05,1.7,5.22,5.54C445.58,247,445.67,247,421.29,247c-13.27,0-26.53,0-39.79,0-2.06,0-5.43,1-5-2.83.66-6.26-2.88-5.1-6.59-4.28-9.39,2.08-11.28.36-9.14-9.17.9-4,2.5-7.89,2.76-12.07.29-4.6,3.86-3.36,6.44-3.38,11.17-.1,22.34,0,33.51,0Z"/><path class="cls-1" d="M550.75,200.91c-54.57,4.84-109.08,5.19-163.58,0Z"/><path class="cls-1" d="M656.48,186.43c-2.67,7.1-23.74,12.1-32.58,8.33Z"/></svg>