<svg xmlns="http://www.w3.org/2000/svg" viewBox="0 0 700 700"><defs><style>.cls-1{fill:#d62024;}.cls-2{fill:#f5eded;}.cls-3{fill:#fff;}</style></defs><g id="Capa_3" data-name="Capa 3"><circle class="cls-1" cx="598.54" cy="352.2" r="315.07"/><path class="cls-2" d="M245.08,154.43a59.58,59.58,0,0,0-8.64.71A110.55,110.55,0,0,0,213.63,161c-3.78,1.36-7.47,3-11.14,4.63-5.56,2.51-11,5.23-16.47,8-4.53,2.33-9,4.8-13.3,7.56-2.33,1.5-4.69,3-6.94,4.58-2.41,1.74-4.8,3.52-7.07,5.46s-4.56,4-6.8,6c-1.16,1.07-2.25,2.21-3.44,3.24-2.91,2.55-5.47,5.46-8.34,8.05-2.22,2-4.21,4.25-6.46,6.22-1.53,1.35-2.91,2.84-4.42,4.2a9.72,9.72,0,0,0-2.46,4c-.41,1.08-.66,2.22-1,3.34-.06.23-.13.51.14.66s.41-.08.53-.23c1.3-1.72,2.85-3.22,4.22-4.88.84-1,1.72-2,2.66-3,.47-.48.83-1,1.27-1.53a.57.57,0,0,1,.79-.13c.35.24.14.54,0,.76-.9,1.34-1.8,2.69-2.75,4a104.24,104.24,0,0,0-6.07,9.24,70.37,70.37,0,0,1-5.36,7.76c-1.29,1.67-2.52,3.39-3.8,5.07-2.16,2.83-4.35,5.63-6.49,8.47-2.67,3.54-5.34,7.07-7.89,10.7a103.45,103.45,0,0,0-6.78,11A38.94,38.94,0,0,0,93.83,280a139.92,139.92,0,0,0-4,15.36c-.46,2.1-1.1,4.16-1.55,6.26-.62,3-1.3,6-1.69,9-.41,3.21-.61,6.42-.77,9.64-.12,2.29.09,4.54.12,6.81a55.6,55.6,0,0,0,.79,6.25c.22,1.72.5,3.43.69,5.15a20.75,20.75,0,0,0,.42,3.94.71.71,0,0,1,0,.25,37,37,0,0,0,.32,5.46,41.93,41.93,0,0,0,.41,5.81,3.18,3.18,0,0,1,0,.62,41.7,41.7,0,0,0,.47,5.68c.11.77.19,1.56.23,2.34,0,1.15.78,1.62,1.78,2.37-.18-2.53-.51-4.78-.76-7.14.61.48.48,1.13.69,1.65a17.44,17.44,0,0,1,.58,1.77c1.17,4,2.44,7.92,3.86,11.82,1.17,3.23,2.34,6.47,3.65,9.65.94,2.26,2,4.48,2.93,6.73,1.28,3,2.76,5.87,4.27,8.74q3,5.78,6.49,11.32c2.07,3.31,4.31,6.49,6.62,9.62,1.45,2,3,3.84,4.57,5.73a103.84,103.84,0,0,0,7.91,8.6c.28.27.47.7.95.68.21-.26,0-.41-.1-.56A137.72,137.72,0,0,1,120,416.8a111.62,111.62,0,0,1-7.58-13.87,99.47,99.47,0,0,1-5.72-15.9.63.63,0,0,1,.12-.68,11.5,11.5,0,0,1,4.21,3.87q3.08,5.11,6.33,10.12c2.12,3.27,4.24,6.54,6.43,9.77q4.41,6.47,9.2,12.65c2,2.57,4,5.14,6.23,7.58,1.44,1.6,2.89,3.19,4.3,4.82,2.25,2.57,4.72,4.92,7.15,7.3,1.77,1.73,3.65,3.36,5.57,4.94,3.29,2.72,6.71,5.26,10.12,7.81a29.37,29.37,0,0,1,4.31,3.55,6.28,6.28,0,0,1,.47.58s0,.15-.08.33l-2.14-1.17q-4.25-2.36-8.5-4.7c-.3-.17-.63-.45-1-.09s-.5.59-.05.91.84.54,1.25.82c2.67,1.82,5.32,3.68,8,5.44q5.11,3.31,10.45,6.26c4.22,2.34,8.43,4.68,12.79,6.72,2.41,1.13,4.74,2.41,7.12,3.59a3.8,3.8,0,0,1,1.38,1c-.36.4-.66.11-.94,0-5.08-1.68-10.13-3.44-15.18-5.2-2.78-1-5.57-1.93-8.33-2.95-3-1.11-6-2.26-8.88-3.58-1.81-.82-3.66-1.58-5.43-2.49-4.4-2.23-8.65-4.74-12.82-7.39-2.94-1.86-5.75-3.91-8.58-5.93-1.88-1.35-3.65-2.86-5.44-4.33a128.84,128.84,0,0,1-11.44-10.72c-1.71-1.8-3.34-3.68-4.93-5.58q-3-3.57-5.77-7.31c-2-2.63-3.77-5.35-5.5-8.13a142.05,142.05,0,0,1-7.46-13.65c-1.57-3.26-2.95-6.59-4.37-9.91-3.17-7.4-5.79-15-8.29-22.65a48.84,48.84,0,0,1-1.9-8.46c-.4-2.9-.86-5.79-1.19-8.7-.12-1-.29-1.94-.38-2.91-.48-.08-.54.28-.61.52a14.49,14.49,0,0,0-.81,4.37c0,1.46,0,2.91,0,4.37a33.63,33.63,0,0,0,.56,5.67,96.54,96.54,0,0,0,2.29,11c1.25,4.55,2.62,9.07,4.25,13.51s3.17,8.82,4.74,13.23a2.21,2.21,0,0,1,.2,1.45c-.62-1.07-1.13-1.89-1.58-2.75a123.32,123.32,0,0,1-8.19-20.42c-1.21-3.75-2.43-7.49-3.6-11.25a8,8,0,0,0-1.21-3c.24,1.42.41,2.55.63,3.67a115,115,0,0,0,3.54,13.56A113.76,113.76,0,0,0,88,393.67c1.08,2.38,2.08,4.81,3.32,7.11,2.09,3.86,4.18,7.73,6.53,11.45,2.61,4.14,5.34,8.2,8.27,12.11,2.2,3,4.42,5.88,6.79,8.71q2.16,2.56,4.27,5.16c1.26,1.54,2.61,3,3.93,4.49l5.86,6.59c.09.09.17.19.26.27,2,1.85,3.59,4,5.6,5.85a7.49,7.49,0,0,1,1,1.27.58.58,0,0,1-.1.88.59.59,0,0,1-.79-.06c-.81-.65-1.67-1.24-2.43-1.94-1.74-1.59-3.71-2.91-5.45-4.5-2.18-2-4.57-3.69-6.76-5.65-2-1.77-4.1-3.36-6.17-5a5.37,5.37,0,0,0-1.63-1.24,12.48,12.48,0,0,0,1.74,2.84,107.29,107.29,0,0,0,7.58,9.2c1.81,1.95,3.63,3.89,5.57,5.7s4.07,3.77,6.2,5.55c3.58,3,7.23,5.93,11,8.69q5.41,4,11.1,7.54c2.88,1.81,5.79,3.56,8.72,5.29,1.28.76,2.57,1.51,3.88,2.23,1.57.85,3.16,1.67,4.74,2.5,2,1,3.94,2.15,6,3.1,3.95,1.84,7.83,3.83,11.87,5.47a1.61,1.61,0,0,1,1,.72l-4.4-1.21a18.7,18.7,0,0,0-4.12-1,6.45,6.45,0,0,0,2.35,1.28,110,110,0,0,0,16.84,5.19c5.36,1.21,10.74,2.31,16.13,3.37,2.6.51,5.16,1.16,7.74,1.78a5.26,5.26,0,0,0,1.47.2,27.13,27.13,0,0,0,5.09-.23,5.69,5.69,0,0,1,1.37,0c.32,0,.7,0,.77.42a.85.85,0,0,1-.35,1,7.22,7.22,0,0,1-.91.37c-.43.17-.86.32-1.27.51-.19.08-.37.22-.3.48s.24.18.39.23a6.34,6.34,0,0,0,1.84.25c5.78,0,11.57,0,17.35,0,.37,0,.75,0,1.12,0a.31.31,0,0,1,.31.32.33.33,0,0,1-.28.35,2.33,2.33,0,0,1-.37,0c-2.2,0-4.39.22-6.59.3-2.82.1-5.65,0-8.45.26-2.12.17-4.24,0-6.33.22-2.37.26-4.74,0-7.08.27-2.17.23-4.32.08-6.47.22-1.21.07-2.42.28-3.66.38a2.09,2.09,0,0,0,1.43.54c1.87.33,3.75.55,5.63.81a.66.66,0,0,1,.25,0c.32.17.8.09,1,.48s-.24.66-.49.92c-1.12,1.2-1.57,1.29-3.06.61a8.44,8.44,0,0,1-1-.54,7.1,7.1,0,0,0-3.29-1,12.51,12.51,0,0,0-1.5,0,70.49,70.49,0,0,1-7.55-.45,41.81,41.81,0,0,0-8.1-.23,23.44,23.44,0,0,0,3.46.92c.4.1.8.18,1.21.27.22.05.39.16.34.42a.35.35,0,0,1-.47.28c-.61-.15-1.23-.16-1.84-.26-1.71-.26-3.41-.62-5.12-.9a6.25,6.25,0,0,0-1.37,0,.48.48,0,0,0-.51.45c0,.3.21.42.46.49,1.31.39,2.62.79,3.93,1.15,3.59,1,7.15,2.11,10.78,2.94,1.78.41,3.58.63,5.37.93,2.11.35,4.23.73,6.36.94q2.78.29,5.54.61a24.38,24.38,0,0,1,4.19.41,1.17,1.17,0,0,0,.37,0c2.91-.1,5.82.58,8.7.2,2.19-.29,4.38,0,6.57-.39a34.82,34.82,0,0,1,3.7-.28c1.7-.1,3.37-.38,5-.59,2.29-.3,4.55-.77,6.83-1.18,3.09-.56,6.13-1.37,9.16-2.21a100.47,100.47,0,0,0,12.41-4.4,112.28,112.28,0,0,0,10.26-5.07q4.16-2.29,8-5c2.63-1.81,5.13-3.78,7.62-5.77a53.33,53.33,0,0,0,5.13-4.71,50.94,50.94,0,0,0,4-4.89,4.78,4.78,0,0,0,.91-2.29,10.84,10.84,0,0,1,2.66-5.64c1.09-1.35,2.1-2.77,3.21-4.11a38,38,0,0,0,3.4-5.63c2.45-4.39,4.85-8.8,7.24-13.21,1.07-2,2.07-4,3.12-6,.4-.78.44-.81,1.19-.34s1.69.23,2.54.25c.31,0,.38-.28.4-.54a1.94,1.94,0,0,0-1-1.9,4.5,4.5,0,0,1-1.37-1.41c-.76-1.17-.38-2.37-.05-3.49a78.26,78.26,0,0,0,2.31-10.9,14.83,14.83,0,0,0,.32-3.58c-.14-1.59.42-3.14.24-4.71-.25-2.14-.22-4.29-.44-6.44a75,75,0,0,0-1.74-9.87,86.43,86.43,0,0,0-4-12,103.83,103.83,0,0,0-4.67-10A89.09,89.09,0,0,0,324,377.4a62.75,62.75,0,0,0-7.32-8.6,82.7,82.7,0,0,0-6.95-6.41,20.68,20.68,0,0,1-2.31-2.07,4.86,4.86,0,0,0-2.89-1.18c-.12.37.15.5.32.64a89.37,89.37,0,0,1,8.45,8.29,106.89,106.89,0,0,1,11.33,14.44,80.91,80.91,0,0,1,10,21.62,79.29,79.29,0,0,1,1.93,9,80.41,80.41,0,0,1,.63,15.88,64.41,64.41,0,0,1-1.55,11c-.68,3.25-1.58,6.43-2.46,9.62-.25.93-.64,1.61-1.83,1.47a12.65,12.65,0,0,1,.47-2.87,52.79,52.79,0,0,0,1.22-8.95,36,36,0,0,1,.81-5.13,7.43,7.43,0,0,0,.15-1.48c0-.79,0-1.58,0-2.37a31.14,31.14,0,0,0-1-8.1c-.68-3.2-1.42-6.38-2.26-9.54A111.65,111.65,0,0,0,326.18,399a78.22,78.22,0,0,0-8.73-15.89,69.57,69.57,0,0,0-4.9-6.1c-1.28-1.42-2.57-2.82-4-4.13-2.07-2-4.25-3.81-6.48-5.6a67.22,67.22,0,0,0-9-6,60.19,60.19,0,0,0-8.79-4.13,59,59,0,0,0-9.77-2.83c-2-.37-4-.71-6-.94a53.75,53.75,0,0,0-9-.42c-1.76.11-3.54.17-5.31.39-1.18.14-2.38.26-3.58.34a37,37,0,0,0-4.31.43,5.43,5.43,0,0,1-1,.05c-1.37,0-2.75,0-4.12,0a47.23,47.23,0,0,1-12.63-1.63,83.79,83.79,0,0,1-28.94-13.67c-2-1.49-3.86-3.11-5.74-4.74a40.52,40.52,0,0,1-3.42-3.26,90.32,90.32,0,0,1-6.72-8.13,79.93,79.93,0,0,1-7.46-12.77,94,94,0,0,1-4.95-13,107.65,107.65,0,0,1-2.8-11.57c-.39-2.15-.66-4.32-.92-6.49a99.13,99.13,0,0,1-.45-11.55,59.13,59.13,0,0,1,.45-5.94c.18-1.89.47-3.76.79-5.63a63.58,63.58,0,0,1,1.49-6.53A92,92,0,0,1,173.49,239a20.7,20.7,0,0,1,1.22-2.45,2.93,2.93,0,0,1,1.82-1.48,2,2,0,0,1-.23,1.24c-1.38,3.82-2.81,7.62-4.12,11.47a38.26,38.26,0,0,0-1.92,7.81c-.15,1.23-.31,2.46-.34,3.71-.11,4.24.15,8.47.34,12.7a64.7,64.7,0,0,0,2.5,14.37c1.23,4.45,2.83,8.75,4.47,13.05.85,2.25,1.84,4.44,2.8,6.65a8.69,8.69,0,0,0,2.73,3c-.53-1.41-1-2.68-1.49-3.93a124.79,124.79,0,0,1-6-18.54,66.45,66.45,0,0,1-1.4-7.93c-.18-1.81-.34-3.62-.5-5.43s-.16-3.39-.19-5.09.35-3.37.27-5.08a1.75,1.75,0,0,1,1.37-1.74,9.41,9.41,0,0,1,1.58-.32,1.69,1.69,0,0,0,1.52-2.36,2.69,2.69,0,0,0-.75-1.27,4.51,4.51,0,0,1-1.47-4.4A95.35,95.35,0,0,1,178,242.83a65.73,65.73,0,0,1,5.57-13.43,56.58,56.58,0,0,1,5-7.56,58.3,58.3,0,0,1,6.92-7.64,40.67,40.67,0,0,1,5.69-4.61l.51-.34c.19-.12.4-.21.57,0s0,.37-.11.53c-1.35,1.78-2.65,3.6-4,5.42-1.45,2-2.76,4.14-4,6.27a76.31,76.31,0,0,0-3.89,7.24,93.45,93.45,0,0,0-5.4,14.16,92.31,92.31,0,0,0-2.35,11c-.33,2.16-.48,4.35-.61,6.54a51.58,51.58,0,0,0-.17,6.21c.14,2,.2,4,.41,6.06.17,1.68.41,3.36.55,5a10.31,10.31,0,0,1,.29,2.15l.36,0c.3-3.2.61-6.39.91-9.59.06,2.2.59,4.35.46,6.55-.11,1.62.39,3.21.25,4.84,0,.25.05.52.37.53a.52.52,0,0,0,.55-.42,2.56,2.56,0,0,0,.06-.62V268.9a3.78,3.78,0,0,0-.08-.51c-.7-.11-.87.76-1.49.78,0-1.9.4-3.72.34-5.57a3.66,3.66,0,0,1,.2-.84c.08-.36.26-.48.63-.34a13.72,13.72,0,0,0,1.53.51c.73.19,1,0,1.11-.74.54-3.3,1.12-6.59,1.67-9.89l1.56-9.15a1.08,1.08,0,0,0-.13-1c-.36-.07-.43.24-.49.44q-1.44,5-2.85,9.91c-.18.63-.35,1.27-.53,1.91-.13.47-.41.55-.85.39s-.66-.25-.52-.78c.7-2.59,1.32-5.21,2-7.8a63.13,63.13,0,0,1,2.32-5.89,111.25,111.25,0,0,1,5-10.46A85.29,85.29,0,0,1,203,217.84a91,91,0,0,1,6.14-7.17,74,74,0,0,1,15.49-12.33,88.07,88.07,0,0,1,8-4.35,90.31,90.31,0,0,1,13.72-5.17c2.5-.73,5-1.33,7.59-1.83,2-.39,4.09-.53,6.13-.88,2.36-.4,4.78-.31,7.14-.71a1,1,0,0,1,.25,0c2.29.16,4.55-.32,6.83-.25,2.71.09,5.39-.22,8.08-.33,2.14-.09,4.3-.12,6.43-.41.53-.08.74-.25.73-.77s-.1-1-.7-1c-.84,0-1.65-.19-2.47-.25-2.34-.2-4.68-.52-7-.73-2-.18-4-.54-6-.54a1.27,1.27,0,0,1-1.12-.44,1,1,0,0,1,.49-1.38,1.94,1.94,0,0,1,.85-.18,27.37,27.37,0,0,0,5.2-.3c3.49-.35,7-.13,10.46-.18a30.79,30.79,0,0,1,3.69.39c1.4.15,2.78.38,4.17.55,2.18.27,4.32.72,6.46,1.16a175.93,175.93,0,0,1,22.06,6.37c3.25,1.13,6.42,2.46,9.55,3.91a156.83,156.83,0,0,1,16.65,9.21c2.5,1.56,5,3,7.49,4.66,4.43,2.92,8.92,5.76,13.07,9.05,2.05,1.62,4.09,3.24,6.07,4.94,4.07,3.5,7.83,7.32,11.56,11.16,1.55,1.6,3,3.34,4.41,5.05,2.11,2.5,4.16,5,6.1,7.67,2.25,3,4.38,6.14,6.33,9.37,2.53,4.18,5.09,8.35,7.59,12.55,1.51,2.54,3.34,4.86,4.78,7.43a26.09,26.09,0,0,1,2.18,5.4c.93,3.13,1.61,6.36,3.16,9.28a30.71,30.71,0,0,1,2.43,4.61c.14.43.4.62.83.25s.73-.08,1,.34l1.82,3.4c.1.18.18.37.28.56s.41.59.79.39.22-.52.11-.79c-.46-1.11-.94-2.21-1.39-3.33q-2.35-5.82-4.7-11.64c-.13-.32-.45-.66.09-.94a.72.72,0,0,1,1.12.37c.71,1.5,1.46,3,2.11,4.51,1.14,2.67,2.31,5.32,3.32,8q1.8,4.91,3.35,9.89c1,3.32,1.87,6.7,2.69,10.07s1.44,6.79,2,10.21c.5,2.89.87,5.79,1.24,8.7.32,2.54.55,5.09.75,7.64.23,2.85.32,5.7.52,8.55.41,5.81.07,11.63.2,17.44,0,1-.07,1-1.09,1l-.5,0c-.43,0-.94-.53-1.24,0s.25.84.44,1.23a18.51,18.51,0,0,1,1.81,4.88,2.81,2.81,0,0,1-1.45,3.21c-.35.2-.4.42-.31.81a15.11,15.11,0,0,1,.33,2.21,10.62,10.62,0,0,1-.38,3.18c-.46,1.94-1,3.85-1.59,5.75a43.71,43.71,0,0,0-.74,4.39c-.14.69.45,1.35.16,2.07-.07,0-.17.1-.21.08-.82-.62-1.39-.42-2.23.21a6.09,6.09,0,0,0-2.26,3.55c-.91,3.4-1.94,6.77-2.93,10.14-.4,1.35-.84,2.69-1.26,4a1,1,0,0,1-.51.77,12.77,12.77,0,0,1,0-1.86c.36-2.19.8-4.38,1.14-6.58a18.63,18.63,0,0,0-.18-8.37,6.51,6.51,0,0,0-1.57-3.13,5.94,5.94,0,0,0-.79,2.5c-.46,2.1-1,4.17-1.53,6.26-.13.57-.22,1.14-.35,1.7a3.16,3.16,0,0,1-.2.59c-.09.19-.24.35-.48.29s-.28-.27-.25-.49c.17-1,.35-2,.52-3.05l1.17-7.08,1.14-6.84c.19-1.09.4-2.19.58-3.29.09-.54-.28-.76-.71-.84s-.45.33-.52.65c-.64,3.08-1.31,6.14-1.92,9.22a19.81,19.81,0,0,1-.63,3.06c-.34-.33-.18-.7-.13-1,.32-2,.5-4.09.73-6.14a21.34,21.34,0,0,1,.41-3.56,1.17,1.17,0,0,0,0-.37,36.5,36.5,0,0,1,.32-5.33c.15-2.2,0-4.41.24-6.59a47.7,47.7,0,0,0,.16-7.46c-.1-2.36-.09-4.73-.25-7.08-.13-2.1-.24-4.21-.49-6.3-.4-3.4-.84-6.79-1.4-10.17-.68-4.13-1.59-8.19-2.58-12.25a4.5,4.5,0,0,0-.73-1.62,8.22,8.22,0,0,0,0,1.49c.36,2,.39,4,.65,6,.15,1.1.26,2.22.36,3.33a33,33,0,0,0,.4,3.82,19.08,19.08,0,0,1,.25,2.83c.09,1.36.22,2.73.37,4.08a23.61,23.61,0,0,0,.41,4.19.92.92,0,0,1,0,.37,43.63,43.63,0,0,0,.3,5.83c.41,5.4.1,10.8.19,16.2,0,1.77-.28,3.54-.42,5.31s-.35,3.62-.62,5.41c-.33,2.2-.73,4.4-1.24,6.57-.95,4.08-2.2,8.07-3.46,12.06q-2.51,7.94-5,15.88-1.95,6.11-3.92,12.2c-.06.19-.12.39-.2.59a1.61,1.61,0,0,0,.57,2.15,5.17,5.17,0,0,1,.88.87c.18.2.56.38.3.71s-.45,0-.68-.05c-.85-.34-1.72-.62-2.53-1-.65-.33-1-.08-1.34.41-1.33,1.72-.77,3.05.22,4.41.22.31.7.48.64,1.06-.79-.07-1.52-.38-2.3-.45a4.34,4.34,0,0,0-4,1.85c-.92,1.17-1.75,2.41-2.62,3.62-.27.37,0,.55.27.65a15.36,15.36,0,0,1,2.26,1c.87.45.88.54.47,1.46L400,452.82c-.38.17-.63-.12-.91-.25-.79-.37-1.57-.77-2.35-1.16-.24-.12-.48-.19-.59.16-.4,1.19-1.24,2.16-1.73,3.31a1.8,1.8,0,0,0,.38,2.15c.7.74.69.78,0,1.61-1.67,2.11-3.36,4.2-5.05,6.29-.39.49-.78,1-1.18,1.44a2.11,2.11,0,0,0-.44,1.33c-1-.23-1.39.38-1.74,1.16-.64,1.4-1.42,2.73-2,4.14a4.75,4.75,0,0,1-2,2.16,1.83,1.83,0,0,0-.92,1.13c-.53,2.48-2.37,3.91-4.23,5.32a9.17,9.17,0,0,0-3.13,3.64,9.6,9.6,0,0,1-1.61,2.35,45.24,45.24,0,0,1-3.77,4.28c-1,.92-1.85,1.89-2.77,2.83a7,7,0,0,0-1.87,3,14.12,14.12,0,0,1-3.9,6.27c-1.34,1.3-2.74,2.54-4.1,3.81-1.71,1.59-3.12,3.45-4.79,5.07-2.14,2.08-4.46,4-6.67,6a47.31,47.31,0,0,0-5.14,5.26,24.81,24.81,0,0,1-2.5,2.41,53.56,53.56,0,0,1-5.35,4,34.6,34.6,0,0,1-4,2.43c-5.11,2.62-10.26,5.15-15.39,7.72a1.36,1.36,0,0,1-1.39.17c-2.2-1.19-3.33-.29-4.58,1.49a7.56,7.56,0,0,1-2.84,2.72,26.54,26.54,0,0,1-4,1.45l-10,2.93c-4.45,1.3-8.91,2.56-13.36,3.88s-8.94,2.46-13.44,3.54c-3.38.81-6.76,1.61-10.19,2.1a49.81,49.81,0,0,1-6.89.81c-.36,0-.66.05-.71.49H229.61c-.07-.53-.47-.49-.85-.49a33.73,33.73,0,0,1-4.91-.58,3.76,3.76,0,0,1-1.6-.35.43.43,0,0,1,.55-.31,45.38,45.38,0,0,0,5.21-.31,24.78,24.78,0,0,0,3.33-.27c2-.32,4.11-.37,6.15-.67,1.68-.24,3.38-.29,5-.57,2.4-.39,4.8-.75,7.2-1.15,4.12-.68,8.2-1.53,12.26-2.48,4.88-1.15,9.66-2.67,14.4-4.3a13.79,13.79,0,0,0,1.5-.6.63.63,0,0,0,.32-.84c-.14-.4-.45-.24-.73-.17-.48.13-1,.25-1.45.36l-14.26,3.25-3.53.79a.62.62,0,0,1,.5-.49c5.5-1.83,11-3.78,16.41-5.79,2.41-.9,4.83-1.76,7.22-2.69,3.55-1.39,7.1-2.79,10.62-4.25q6.17-2.53,12.16-5.4c4.09-2,8.11-4,12.06-6.24,3-1.68,6-3.41,8.88-5.26s5.82-3.81,8.62-5.87c3-2.18,5.88-4.43,8.69-6.82.66-.56,1.34-1.1,2-1.71.12-.12.3-.18.43,0a.41.41,0,0,1,.06.34c-.15.38-.34.76-.51,1.13-.07.15-.17.31,0,.46s.39.11.57,0,.3-.28.46-.41c2-1.64,4-3.29,6-5,2.15-1.82,4.24-3.71,6.28-5.65a156.88,156.88,0,0,0,11.62-12.29c1.68-2,3.36-4,4.95-6.06q4.68-6.12,8.78-12.65c2.57-4.07,4.87-8.29,7.08-12.56,1.17-2.25,2.14-4.59,3.22-6.88A123.35,123.35,0,0,0,399,436c1.52-4.2,2.89-8.47,4-12.8a6.09,6.09,0,0,0,.53-2.56,15.75,15.75,0,0,0-1.51,3.14c-1.05,2.21-2,4.46-3,6.69q-.66,1.49-1.35,2.94c-.09.2-.24.36-.48.3s-.31-.36-.27-.61a1.6,1.6,0,0,1,.17-.46c.76-1.88,1.56-3.75,2.3-5.64a94.6,94.6,0,0,0,4.31-12.43c.9-3.7,2.87-6.62,7-7.42a2.12,2.12,0,0,0,.36-.1,1.1,1.1,0,0,0,.82-1l.11-.06-.05,0-.06.1a2.91,2.91,0,0,0-1.33.24c-1,.37-2,.74-3.05,1.08-.73.24-.89.1-.85-.66a4.31,4.31,0,0,1,.1-.61c.33-1.49.64-3,.95-4.48.84-4,1.44-8,2-12.09.39-2.87.7-5.75.88-8.62.15-2.48.4-5,.34-7.45-.09-3.37,0-6.74,0-10.11a6,6,0,0,0,0-1.12c-.41-2-.16-4-.43-5.94-.16-1.18-.24-2.38-.35-3.58-.2-2.21-.66-4.4-.91-6.61-.31-2.67-.87-5.3-1.41-7.92-.77-3.69-1.73-7.33-2.78-10.95a122.54,122.54,0,0,0-6.86-17.86c-.81-1.73-1.82-3.35-2.74-5a69.82,69.82,0,0,0-6.42-9.45c-.15-.18-.3-.41-.83-.21,4.62,8.86,9,17.81,11.44,27.64a.66.66,0,0,1-.59-.58c-1.39-3.91-2.92-7.75-4.64-11.53a111.61,111.61,0,0,0-7.44-13.79,93.42,93.42,0,0,0-7-9.67A3,3,0,0,0,378,285.5c-.32-.05-.71-.14-.94.14s0,.63.15.92c.85,1.76,1.71,3.51,2.54,5.28,1.7,3.6,3.56,7.13,5.24,10.75,1.08,2.34,2.29,4.62,3.44,6.93a6.13,6.13,0,0,1,.42.9c.07.22.13.52-.18.64s-.37-.12-.51-.26a2.17,2.17,0,0,1-.23-.3L380.53,300c-1.62-2.3-3.2-4.64-4.88-6.9-2.6-3.48-5-7.07-7.79-10.45a62.49,62.49,0,0,0-4.32-5.12c-1.87-1.88-3.55-3.92-5.55-5.7-2.68-2.4-5.33-4.84-8.15-7.1a127.11,127.11,0,0,0-10.95-7.94,98,98,0,0,0-13.26-7.36,87.69,87.69,0,0,0-9.63-3.7c-.2-.06-.43-.31-.65,0,0,.22.17.28.31.34,2.74,1.2,5.44,2.46,8.06,3.9,2.81,1.53,5.57,3.13,8.24,4.88a117,117,0,0,1,11.83,8.84c2.75,2.33,5.45,4.72,8,7.27,2.84,2.85,5.52,5.84,8.17,8.87,1.83,2.09,3.6,4.23,5.29,6.42,3.79,4.92,7.44,9.95,10.79,15.19.36.57.7,1.17,1.05,1.78-.65.27-.81-.66-1.35-.42,0,.09,0,.14,0,.16,1.48,2.78,3,5.55,4.46,8.34,1.86,3.52,3.69,7.06,5.56,10.59.91,1.72,1.88,3.41,2.8,5.13.45.85.86,1.71,1.25,2.58a.56.56,0,0,1-.23.76.51.51,0,0,1-.75-.16c-.18-.23-.34-.47-.52-.69a5.52,5.52,0,0,0-1-1.07c-.24.38,0,.64.08.89,1,3.79,2.14,7.56,3.05,11.39,1.29,5.39,2.41,10.8,3.21,16.28.47,3.27.89,6.54,1.23,9.82.11,1.12.1,2.24.25,3.34a55.92,55.92,0,0,1,.43,6.06c.1,3.28,0,6.57.05,9.86.07,3.07-.22,6.13-.27,9.2a2.73,2.73,0,0,1-.05.5c-.37,1.41-.16,2.88-.43,4.31-.2,1.05-.19,2.14-.33,3.2-.2,1.56-.45,3.1-.69,4.65-.36,2.33-.67,4.66-1.11,7-.49,2.6-1.08,5.18-1.69,7.75-.12.52-.05,1.17-.6,1.62a3.19,3.19,0,0,1-.09-1.25c0-5.91,0-11.82,0-17.72a6,6,0,0,0-.08-1.12.48.48,0,0,0-.57-.37c-.24,0-.3.23-.33.45q-.37,2.82-.76,5.64c-.24,1.71-.5,3.43-.74,5.14-.05.36-.09.69-.56.65s-.43-.42-.44-.75a1.53,1.53,0,0,1,0-.37,45.15,45.15,0,0,0,.48-5.93c0-1.2-.17-2.39-.23-3.59-.08-1.65-.28-3.28-.49-4.92A108.28,108.28,0,0,0,384.39,389c-.67-2.78-1.4-5.54-2.11-8.3,0-.14-.06-.41-.37-.34a1.29,1.29,0,0,0,0,.38c.49,1.82.25,3.71.42,5.56a35.2,35.2,0,0,1,.32,6.07,1,1,0,0,0,0,.25c.33,2.26.34,4.54.47,6.81,0,.61.08,1.22.18,1.84a14.74,14.74,0,0,1,0,2.74c0,.63-.53.51-.93.51a.48.48,0,0,1-.49-.68,6.47,6.47,0,0,0,.2-2.1c0-2.83,0-5.65,0-8.48a36.14,36.14,0,0,0-.65-5.78,47.62,47.62,0,0,0-2.83-9.5c-.1-.26-.08-.59-.51-.65v22.6c0,.32-.11.57-.49.58a.62.62,0,0,1-.68-.43,2.33,2.33,0,0,1-.07-.74,19.55,19.55,0,0,0-.32-3.83q-.29-2.77-.63-5.53c-.34-2.58-.71-5.16-1.13-7.72-.45-2.81-1.06-5.6-1.64-8.39-.84-4.05-1.9-8.05-3.06-12-1-3.34-2.1-6.64-3.29-9.91q-2.56-7-5.77-13.76a164.81,164.81,0,0,0-7.88-14.56c-2.41-4-5-7.82-7.76-11.56q-3.88-5.29-8.19-10.29c-1.68-1.94-3.36-3.9-5.12-5.75-3.73-3.9-7.57-7.71-11.56-11.36-.19-.17-.35-.5-.71-.27-.06.32.17.47.34.64,1.29,1.35,2.61,2.67,3.86,4.06,1.52,1.7,3.05,3.39,4.56,5.09,2.24,2.5,4.36,5.1,6.41,7.75a166.28,166.28,0,0,1,10.09,14.47,147.44,147.44,0,0,1,8.59,15.71c1.74,3.77,3.42,7.55,4.84,11.45,1.57,4.29,3,8.61,4.18,13s2.09,8.85,2.91,13.32c.33,1.78.6,3.58.77,5.39s.44,3.85.57,5.79c.16,2.44.44,4.86.46,7.31a18,18,0,0,0,.21,4.21,1.24,1.24,0,0,1-.34,1.42c-.27-1.32-.51-2.52-.76-3.73-.74-3.69-1.59-7.35-2.3-11-.77-4-1.66-8-2.41-12-.8-4.31-1.76-8.58-2.66-12.86a3.38,3.38,0,0,0-.29-.95c-.25-.49-.72-.33-1.11-.25s-.25.42-.21.71c.3,2.08.66,4.16.85,6.25.23,2.55.66,5.08.83,7.64.06.94.12,1.9.24,2.84.23,1.84.52,3.68.69,5.52s.34,3.54.58,5.3c.27,2,.42,4,.64,6s.36,3.95.51,5.92.08,4.22.23,6.34a29.51,29.51,0,0,1-.15,5.71c-.25,2.09-.1,4.22-.24,6.33-.16,2.27-.36,4.54-.61,6.79-.34,3.07-.84,6.13-1.42,9.17A129.3,129.3,0,0,1,355.77,443c-.78,2.44-1.66,4.86-2.63,7.24-1.18,2.88-2.4,5.75-3.76,8.54-1.81,3.74-3.78,7.39-5.95,10.94q-3.72,6.1-8,11.85c-2.62,3.52-5.44,6.87-8.27,10.22-2.27,2.69-4.27,5.59-6.55,8.27a28.71,28.71,0,0,1-2.53,2.74c-1,.91-2,1.84-3.06,2.71-2.87,2.39-5.84,4.63-8.89,6.77-2.55,1.78-5.11,3.53-7.65,5.31a80.84,80.84,0,0,1-7.77,4.68c-1.12.6-2.22,1.23-3.38,1.88.52.41.89.08,1.25,0a55.82,55.82,0,0,0,11-4.8c2.82-1.58,5.64-3.17,8.34-4.94a137.89,137.89,0,0,0,11.21-8,24.15,24.15,0,0,1,2.88-2.27.37.37,0,0,1,0,.49,21.42,21.42,0,0,1-2.86,3.89,49.55,49.55,0,0,1-7.43,6.6q-3.24,2.4-6.66,4.57c-4.2,2.68-8.56,5.08-13,7.38-2.13,1.11-4.36,2-6.54,3a123.79,123.79,0,0,1-13.42,5.29c-.27.08-.57.1-.71.42a.75.75,0,0,0,.6.07l9-1.65a1.81,1.81,0,0,1,1,0,.44.44,0,0,1,.31.36c0,.21-.16.26-.31.32s-.39.15-.59.21L276,536.49a98.08,98.08,0,0,1-11.52,2.38c-1.92.24-3.82.63-5.74.93-1.3.21-2.62.36-3.93.53L250,541c-1.51.2-3,.44-4.54.59-1.76.18-3.52.44-5.29.58s-3.63.41-5.44.4c-3.48,0-7,.19-10.45-.17-1.47-.14-3-.19-4.45-.36-2.46-.28-4.9-.67-7.34-1.15-5.39-1.06-10.75-2.25-16.1-3.49-3.88-.9-7.69-2-11.5-3.15a99.61,99.61,0,0,1-15.13-6c-3.67-1.77-7.31-3.58-10.9-5.52-3.39-1.84-6.79-3.66-10.13-5.58-4.68-2.7-9.22-5.58-13.63-8.69s-8.82-6.43-13-10c-2.7-2.33-5.31-4.75-7.88-7.22-4-3.89-8-7.89-11.68-12.09-1.6-1.8-3.21-3.59-4.79-5.39-1.74-2-3.3-4.14-5-6.17-2.71-3.25-5.16-6.69-7.57-10.15-1.91-2.76-3.71-5.6-5.47-8.46s-3.59-6-5.19-9.06A173.05,173.05,0,0,1,66,421.08a91.55,91.55,0,0,1-2.91-8.85c-1.26-4.76-2.06-9.61-3.18-14.4a3.94,3.94,0,0,1,1.23-3.67.81.81,0,0,1,.49.64c1,2.69,2,5.37,2.94,8.06a123.77,123.77,0,0,0,6.86,15.33c.79,1.51,1.72,2.94,2.61,4.38.14.22.22.57.72.57-.12-.41-.21-.79-.33-1.17-1.78-5.57-3.86-11-5.48-16.65-1.82-6.29-3.14-12.68-4.35-19.1-.44-2.31-.83-4.63-1.22-6.94-.28-1.63-.53-3.26-.78-4.89q-.46-3.06-.91-6.12c-.2-1.43-.45-2.86-.58-4.3-.1-1.19-.28-2.37-.45-3.56-.23-1.67-.41-3.36-.55-5-.11-1.2-.21-2.4-.32-3.59-.19-2.1-.45-4.19-.44-6.3,0-.79,0-1.58,0-2.37,0-.37-.06-.67-.5-.72v-6.74c.53-.06.49-.46.5-.84.06-3.15-.11-6.31.21-9.46.12-1.19.2-2.4.36-3.57.39-2.9.88-5.79,1.37-8.68C62,309,63,305,63.66,300.94a2.9,2.9,0,0,1,1.64-2.21c.8-.4,1-.29,1,.59a48.18,48.18,0,0,1-.59,4.79c-.18,1.68-.44,3.35-.65,5s-.38,3.28-.58,4.92c-.22,1.84-.52,3.68-.64,5.53-.08,1.28-.24,2.55-.33,3.83-.15,2.1-.45,4.19-.45,6.31a2,2,0,0,1,0,.49,45.45,45.45,0,0,0-.41,7.18,125.74,125.74,0,0,0,.16,13.45c.09,1.44.2,2.9.35,4.33.18,1.84.37,3.69.64,5.53q.61,4.16,1.46,8.28c.44,2.11,1,4.19,1.54,6.27,1,3.68,2.29,7.27,3.67,10.83a3.1,3.1,0,0,0,.41.76c.24.32.6.25.92.15s.17-.23.15-.41c-.25-1.72-.47-3.44-.72-5.15-.29-1.92-.65-3.83-.89-5.75s-.58-3.75-.91-5.62c-.58-3.25-1.28-6.48-1.83-9.73q-.72-4.27-1.22-8.58a20.42,20.42,0,0,1-.3-2.71c0-1.41-.2-2.81-.31-4.21q-.27-3.58-.43-7.17c-.06-1.54,0-3.08,0-4.62-.12-3.2.21-6.39.26-9.58a1.67,1.67,0,0,1,0-.5,22.51,22.51,0,0,0,.4-4.18c.22-1.93.46-3.86.62-5.8.18-2.21.67-4.4.91-6.61.27-2.42.66-4.83,1.11-7.22.62-3.33,1.32-6.64,2.14-9.93A111.76,111.76,0,0,1,75,275.84c1.48-3.78,3-7.54,4.57-11.29,1.76-4.26,3.26-8.61,4.81-12.94.34-.94.42-1,1.34-.61s1.62.66,2.44.94,1.09.05,1.11-.76c0-.66,0-1.33,0-2s-.15-.79-.91-.71a18.29,18.29,0,0,0-3.1.32c-.21-.42,0-.62.07-.85a1.49,1.49,0,0,1,1.44-1.24c1.26-.18,2.52-.45,3.77-.67,1-.17,1-.44.4-1.2-.42-.51-.84-1-1.27-1.52-.62-.74-.66-.89-.13-1.76,1.85-3,3.67-6,5.58-9a169.79,169.79,0,0,1,11.64-16c2.37-2.88,4.92-5.6,7.46-8.32,1.75-1.87,3.71-3.54,5.64-5.25,1.58-1.41,3.19-2.77,4.85-4.06.27-.21.44-.61.86-.54a.42.42,0,0,1-.09.51c-1.63,1.88-3.21,3.8-4.89,5.62-2.27,2.48-4.35,5.11-6.41,7.75a104.19,104.19,0,0,0-9.49,14.41,77.77,77.77,0,0,0-6,14.2,3.28,3.28,0,0,0-.25,1.49c.46,0,.53-.33.67-.57.4-.72.82-1.44,1.21-2.18,2.19-4.14,4.47-8.23,6.89-12.25,2-3.34,4.19-6.56,6.51-9.7,2.16-2.93,4.39-5.81,6.77-8.57,2.14-2.47,4.28-4.95,6.58-7.28s4.82-4.68,7.36-6.89q2.47-2.16,5-4.22c1.58-1.26,3.22-2.46,4.86-3.64,1.28-.92,2.59-1.8,3.91-2.65,2.62-1.69,5.27-3.31,8-4.8,2.92-1.61,5.91-3.07,8.91-4.49,2.66-1.26,5.42-2.3,8.06-3.6,3.7-1.81,7.38-3.64,11-5.57,4.15-2.21,8.39-4.24,12.6-6.32,1-.5,2.07-.86,3.08-1.34,2.12-1,4.44-1,6.69-1.15a48.53,48.53,0,0,0,8.16-1.42c3.77-1,7.49-2.12,11.23-3.2a52.9,52.9,0,0,1,9.47-1.87c2.26-.23,4.53-.43,6.8-.5s4.46-.46,6.7-.3a3.14,3.14,0,0,0,.75,0c.23,0,.31-.25.34-.47h6.49c0,.37.25.46.58.51.58.09,1.16.23,1.92.39a3.14,3.14,0,0,1-1.91.6c-.83,0-1.66,0-2.49,0a3.78,3.78,0,0,0-3.22,1.56c-.69,1.05-.71,1.08-1.94.77s-2.57-.61-3.85-1a2.29,2.29,0,0,0-1-.11.6.6,0,0,0-.56.57.56.56,0,0,0,.39.58,4.8,4.8,0,0,1,1.22.49C245.64,154.25,245.31,154.28,245.08,154.43Zm1.92,83-.06-.24,1.11-.42c1.17-.44,2.33-.88,3.48-1.34.4-.15.63-.38.42-.86s-.45-.44-.88-.28c-1.82.71-3.65,1.35-5.47,2a26.67,26.67,0,0,0-6.39,3.29c-2,1.5-4.1,3-6.05,4.56a13.63,13.63,0,0,0-4.13,5.66,16.22,16.22,0,0,0-.86,5.48,22.12,22.12,0,0,1-1.49,6.51c-.66,1.91-1.54,3.75-2.12,5.7-.09.31-.2.66-.61.7-.77.08-.47.5-.28.86a3.33,3.33,0,0,0,.49.73,6.39,6.39,0,0,1,1.43,4,28.34,28.34,0,0,0,1.93,7.43A31,31,0,0,0,238,294.34,33.26,33.26,0,0,0,256,300.93a32.43,32.43,0,0,0,8.16-.56,30.48,30.48,0,0,0,10.73-4.1,26.15,26.15,0,0,0,5.64-4.46c.39-.42.78-.83.61-1.49-1,0-1.55,1-2.57,1.07a2.13,2.13,0,0,1,.54-1.16c.68-.88,1.36-1.77,2-2.69a45.67,45.67,0,0,0,4.69-8.6,28.55,28.55,0,0,0,2.19-10,23.57,23.57,0,0,0-.2-4.59,30.68,30.68,0,0,0-1.18-5.31A39.08,39.08,0,0,0,281,248.26a31.66,31.66,0,0,0-5.9-6.17,27.28,27.28,0,0,0-9.57-4.64,22.42,22.42,0,0,0-4.87-.87c-2.57-.11-5.15,0-7.73,0a4.63,4.63,0,0,0-.74.07Zm67.71-18.85,0,.2c1.48.6,3,1.21,4.45,1.8,2.93,1.15,5.81,2.43,8.66,3.78,3.9,1.85,7.67,4,11.37,6.18,3.52,2.12,6.95,4.37,10.25,6.82s6.52,4.95,9.64,7.61c2.17,1.86,4.28,3.8,6.36,5.74,2.25,2.1,4.38,4.31,6.46,6.58,2.68,2.94,5.34,5.89,7.9,8.94,1.94,2.32,3.8,4.69,5.64,7.08,2.31,3,4.47,6.07,6.63,9.16,3.5,5,6.78,10.13,10,15.31a4.18,4.18,0,0,0,1.19,1.53c-1.49-3.4-3.17-6.7-4.82-10s-3.35-6.73-5-10.09c2.83,2,13.84,24.28,17.43,34.33A192.51,192.51,0,0,1,420,350.86a20.09,20.09,0,0,0-.07-4.1c-.27-1.5-.11-3.05-.27-4.58-.22-2.18-.46-4.35-.78-6.51-.5-3.44-1.19-6.84-2-10.22-1-4.32-2.18-8.58-3.39-12.84a73.94,73.94,0,0,0-2.57-7.79,73.8,73.8,0,0,1-2.84-8,29.43,29.43,0,0,0-3.63-8.16c-1.15-1.78-2.39-3.49-3.5-5.29-2.06-3.36-4.15-6.69-6.15-10.08-1.9-3.21-3.82-6.41-5.79-9.58a106.54,106.54,0,0,0-9.29-12.27c-.15-.17-.4-.34-.13-.62.7,0,1.09.59,1.57.95a21.55,21.55,0,0,1,3.78,3.21c1,1.23,2,2.57,2.92,3.86,4.11,5.46,8.34,10.83,11.94,16.65a65.08,65.08,0,0,1,4.39,8.24,9,9,0,0,0,2.69,3.62c.32.26.61.47,1,.13s.07-.63-.08-.89q-1.51-2.58-3.09-5.11c-2.72-4.36-5.3-8.81-8.31-13-2.1-2.93-4.13-5.9-6.22-8.84q-4.65-6.52-9.34-13a5.08,5.08,0,0,1-.94-3c0-.88.57-1.42,1-2a1.84,1.84,0,0,0-.75-3c-.94-.44-1.07-.41-1.55.51-.38.73-.73,1.49-1.12,2.22-.66,1.26-1.19,1.46-2.52,1a5.92,5.92,0,0,1-1.79-.86,38.58,38.58,0,0,1-4.89-4.41c-.29-.3-.59-.59-.9-.86a.43.43,0,0,0-.57-.06c-.21.19-.06.39,0,.56a21.52,21.52,0,0,0,2,2.37c1.83,2.2,3.76,4.31,5.65,6.45a1.68,1.68,0,0,1,.3.4c.07.15.1.34-.06.44a.41.41,0,0,1-.34,0,5.38,5.38,0,0,1-1.55-1c-2.4-2.34-5-4.48-7.59-6.6s-5.4-4.25-8.22-6.21a130.05,130.05,0,0,0-17.69-10.39c-2.54-1.22-5.13-2.35-7.75-3.39a123,123,0,0,0-14.28-4.71,59.61,59.61,0,0,0-10.7-2c-2-.16-4-.38-6.05-.44-2.41-.08-4.81.08-7.21.21-1.36.08-2.71.33-4.07.36-.1,0-.14.1-.08.26.26.28.65.13,1,.15a12.54,12.54,0,0,1,1.74.06,47.68,47.68,0,0,0,5.06.4c1.27.12,2.57.2,3.83.36,2.69.35,5.4.66,8.08,1.15a73.92,73.92,0,0,1,10.59,2.56c3.82,1.28,7.53,2.85,11.19,4.49,3.45,1.55,6.81,3.3,10.21,5a4.32,4.32,0,0,1,.76.42.53.53,0,0,1,.13.77c-.2.31-.43.24-.74.08A95.1,95.1,0,0,0,331,223.2a87.12,87.12,0,0,0-13.29-4.07C316.73,218.9,315.72,218.76,314.71,218.58ZM344.34,455.1a.91.91,0,0,0,.71-.64c1.82-3.55,3.48-7.16,5-10.84a130.48,130.48,0,0,0,6-17.89c.83-3.25,1.52-6.52,2-9.83.35-2.23.67-4.48.83-6.75s.48-4.27.48-6.43c0-3.08,0-6.15,0-9.23a4.63,4.63,0,0,0,0-1.12c-.42-1.5-.14-3-.4-4.57-.18-1-.24-2.13-.38-3.19-.3-2.46-.72-4.9-1.21-7.32a11,11,0,0,0-.9-3.22C360.15,402.19,356,429.12,344.34,455.1Zm-228,26.18a10.27,10.27,0,0,0-2-3.91c-1.85-2-3.78-3.85-5.62-5.83-2.34-2.52-4.73-5-7-7.56-2-2.25-4-4.55-5.9-6.88a106.28,106.28,0,0,1-6.4-8.7c-1.15-1.72-2.17-3.53-3.25-5.3-.16-.27-.28-.59-.78-.46.94,1.79,2,3.43,3,5.1a183.62,183.62,0,0,0,10.47,16.17,79.61,79.61,0,0,0,7.6,9,65.87,65.87,0,0,0,6.68,6.15A13.2,13.2,0,0,0,116.38,481.28Zm66.89,37.07c-.09-.4-.31-.41-.5-.49-1.49-.64-3-1.27-4.45-1.93-2.58-1.14-5.14-2.32-7.72-3.46q-7-3.11-14.12-6.19c-.33-.14-.76-.67-1-.1-.19.38.33.57.64.76l6,3.6c.42.26.83.54,1.23.83a.32.32,0,0,1,.06.45.42.42,0,0,1-.41.23,2.58,2.58,0,0,1-.46-.18l-5.08-2-4.22-1.67c-.38,1.09-.39,1.1.43,1.5.48.24,1,.42,1.48.64a70.16,70.16,0,0,0,12.11,4.09c3.09.78,6.19,1.47,9.29,2.23C178.7,517.17,180.93,517.76,183.27,518.35Zm149.5-199.7c4.57,10.83,9.19,21.59,14,32.3a1.64,1.64,0,0,0,.12-.88,44.66,44.66,0,0,0-2.12-8.39,103.7,103.7,0,0,0-6.41-14.94A58.88,58.88,0,0,0,335,321,6.35,6.35,0,0,0,332.77,318.65Zm67.56-72.88.2-.23a58.87,58.87,0,0,0-6.25-7.66c-1.88-2-4-3.82-6.1-5.67s-4.07-3.38-6.15-5c-3.54-2.78-7.19-5.42-10.8-8.13a.37.37,0,0,0-.52,0,4.53,4.53,0,0,0,1.67,1.85c1.2,1,2.31,2,3.44,3.05s2.29,2,3.43,3.06c.86.78,1.69,1.59,2.55,2.36,2.2,2,4.4,3.89,6.59,5.86l2.87,2.57c2.3,2,4.56,4.09,6.84,6.13C398.82,244.55,399.59,245.15,400.33,245.77ZM118,482.47a.46.46,0,0,0,.09.59c1.48,1.34,2.67,2.95,4.09,4.35q3.27,3.25,6.53,6.53c.35.35.69.72,1.07,1,1.67,1.36,3.33,2.71,5,4q3.45,2.73,6.94,5.42c.29.22.59.49,1,.12a.65.65,0,0,0,0-1,16.6,16.6,0,0,0-2.51-2.73c-1.3-1-2.63-1.88-3.94-2.82a77.55,77.55,0,0,1-7.35-6.68c-2.6-2.45-5.21-4.89-7.74-7.41A4.8,4.8,0,0,0,118,482.47Zm311.31-155.7c-.48-1.79-.93-3.51-1.4-5.22q-1.53-5.62-3.09-11.25c-.89-3.22-1.81-6.44-2.68-9.68-.14-.5-.31-.75-.83-.62s-.74.46-.49,1a4.2,4.2,0,0,1,.17.72q2.44,9.61,4.9,19.23c.45,1.76.89,3.52,1.37,5.28.27,1,.45,1,1.43.74ZM189,505.21a4.32,4.32,0,0,0,1.38.71c1.34.43,2.67.87,4,1.34A91.18,91.18,0,0,0,206,510.45c2.1.43,4.22.7,6.35,1a53.53,53.53,0,0,0,5.51.16C216.53,511.08,190.16,505.27,189,505.21ZM414.68,299.49a.63.63,0,0,0-.58.79,5.7,5.7,0,0,0,.31,1.07c.95,2.91,2,5.8,2.85,8.73.72,2.38,1.55,4.73,2.29,7.1.17.53.42.5.83.33s.32-.48.22-.82c-.49-1.5-.94-3-1.42-4.5q-1.46-4.56-2.93-9.1c-.31-1-.62-2-.92-3C415.23,299.78,415.08,299.52,414.68,299.49ZM241.19,529.82c.72.24,1.46-.27,2.25-.21,1.83.12,3.62-.41,5.45-.26a.94.94,0,0,0,.37,0c1.62-.43,3.29-.13,4.94-.41,1-.18,2.13-.11,3.2-.28.51-.08.62-.23.47-.72s-.43-.52-.84-.55c-.68-.05-1.28.31-2,.26a22.58,22.58,0,0,0-3.58.32,22.18,22.18,0,0,0-2.71.24,24.19,24.19,0,0,1-3.69.39,28.68,28.68,0,0,1-3.83.33,4.89,4.89,0,0,0-1.33.26.31.31,0,0,0-.27.35.33.33,0,0,0,.32.32ZM298.35,190c-2.53-.28-5.06-.61-7.59-.83-2.3-.19-4.59-.41-6.88-.69-.22,0-.43,0-.53.19a.51.51,0,0,0,.14.67,1.36,1.36,0,0,0,.68.28c1.44.08,2.86.37,4.29.51,2,.2,3.92.47,5.88.71.94.12,1.88.25,2.83.3S298.15,191.13,298.35,190Zm-108,76.2a1,1,0,0,0-.14.71c0,4-.07,8,.25,11.94,0,.28,0,.61.51.74-.17-1.15.28-2.22.23-3.32a48.21,48.21,0,0,1,.32-5c.07-1.19.09-2.39.21-3.59.13-1.37.17-1.37-1.14-1.57A.69.69,0,0,0,190.31,266.17ZM335.05,473.09c.34.06.41-.23.53-.43q2.35-3.95,4.7-7.91a5.16,5.16,0,0,0,.32-.67.55.55,0,0,0-.25-.75c-.28-.15-.49,0-.63.24-.31.44-.58.91-.87,1.36q-2.18,3.4-4.34,6.81C334.09,472.4,334.35,473,335.05,473.09Zm35.26-254.54a.39.39,0,0,0-.37-.37.17.17,0,0,0-.2.22.41.41,0,0,0,.3.33C370.17,218.77,370.26,218.7,370.31,218.55ZM270.47,536a.25.25,0,0,0,.11,0s0-.06,0-.09a.35.35,0,0,0-.11,0S270.48,536,270.47,536Z"/><path class="cls-2" d="M452.51,376.59c-.44,0-.5.35-.5.71a45.82,45.82,0,0,1-.53,6.42c-.46,3.52-1,7-1.62,10.52s-1.42,6.71-2.3,10a84.79,84.79,0,0,1-3.81,11.3c-.64,1.52-1.31,3-2,4.6a.77.77,0,0,1-.08-.9,76.09,76.09,0,0,0,2.15-9.8c.33-2.33.81-4.63,1.27-6.94a29.09,29.09,0,0,0,.68-6.89,22.54,22.54,0,0,1,1.2-7.56c.63-2.11,1.44-4.15,1.88-6.32a5.1,5.1,0,0,0-.28-3.37,4.5,4.5,0,0,1,1.49-6c.47-.34.44-.59.12-1-.51-.65-1-1.34-1.42-2-.62-.92-.61-.93.19-1.75.26-.27.54-.52.79-.8a1.82,1.82,0,0,0,.28-2.19,8.7,8.7,0,0,0-1.36-1.91,3.71,3.71,0,0,1-.89-3.78,4.34,4.34,0,0,1,1-2.1,2.77,2.77,0,0,0,.64-2.75c-.21-1.72-.44-3.43-.68-5.15-.21-1.55-.51-3.09-.66-4.65s-.39-3-.58-4.42c-.3-2.16-.61-4.33-.91-6.49-.2-1.47-.39-2.95-.59-4.42-.31-2.29-.62-4.57-.92-6.86-.21-1.6-.38-3.2-.58-4.8s-.37-2.94-.58-4.41-.44-3.1-.66-4.66-.55-3.25-.67-4.9-.6-3.33-.58-5.19a5.53,5.53,0,0,1,1.19,2.37,124.67,124.67,0,0,1,4.73,16.2c.87,3.73,1.49,7.52,2.1,11.32.43,2.68.82,5.38,1.16,8.08.25,2,.47,3.93.58,5.91.06,1.2.28,2.39.23,3.59a.5.5,0,0,0,.49.59Z"/><path class="cls-3" d="M245.08,154.43c.23-.15.56-.18.65-.58a4.8,4.8,0,0,0-1.22-.49.56.56,0,0,1-.39-.58.6.6,0,0,1,.56-.57,2.29,2.29,0,0,1,1,.11c1.28.34,2.57.64,3.85,1s1.25.28,1.94-.77a3.78,3.78,0,0,1,3.22-1.56c.83,0,1.66,0,2.49,0a3.14,3.14,0,0,0,1.91-.6c-.76-.16-1.34-.3-1.92-.39-.33-.05-.55-.14-.58-.51h3.25c.32,1.28.09,1.7-1.17,2.09a10,10,0,0,1-3.8.4,2.76,2.76,0,0,0-3,1.69c-.4.84-.61.86-1.6.66-.69-.14-1.4-.18-2.07-.38s-1.18-.3-1.57.56S245.6,155.08,245.08,154.43Z"/><path class="cls-2" d="M275.61,414.18a8.14,8.14,0,0,1-2.22-.67,46.75,46.75,0,0,0-7.14-2.1,11.64,11.64,0,0,0-3.07-.39c-1.06,0-2.11-.08-3.18,0a18.61,18.61,0,0,0-5,1c-.27.09-.65.14-.57.51s.47.22.73.26c2.78.43,5.57.68,8.33,1.18,1.14.2,2.28.36,3.42.54a11,11,0,0,1,5.37,2.72,54.2,54.2,0,0,0,6.1,4.89,8.4,8.4,0,0,1,2.18,2.52,38.1,38.1,0,0,1,2.59,4.68,18.22,18.22,0,0,0,1.54,2.85,3.41,3.41,0,0,1,.17.33.61.61,0,0,1-.19.88c-.42.25-.7,0-.91-.34-.68-1.19-1.35-2.38-2-3.56a1.85,1.85,0,0,0-.7-.92c.28,1.6.51,3,.77,4.47.4,2.11.69,4.23,1,6.35A37.19,37.19,0,0,1,283,444a21.87,21.87,0,0,1-3.14,11,24.87,24.87,0,0,1-4.5,5.75,36.42,36.42,0,0,1-10.9,7.51,29.53,29.53,0,0,1-7.39,2,32.91,32.91,0,0,1-7.08.15,30.6,30.6,0,0,1-13.23-4.29,35.25,35.25,0,0,1-5.36-4,23.64,23.64,0,0,1-4.32-5.43,32.94,32.94,0,0,1-4.26-12.23c-.24-1.6-.37-3.2-.53-4.8a7.68,7.68,0,0,1,.16-3.54c.31-.86.72-1.68,1.1-2.5,1.5-3.19,2.75-6.49,4.13-9.73a42.57,42.57,0,0,1,4.69-8.62,22.39,22.39,0,0,1,10.22-8,22,22,0,0,1,5.66-1.24c2.12-.22,4.23-.14,6.34-.19a16.32,16.32,0,0,0,2.33-.31A17.17,17.17,0,0,1,271,409.23a62,62,0,0,1,4.77,4.69Z"/><path class="cls-2" d="M156.8,426.5c-1.65-.93-3.07-2.06-4.55-3.09a51.89,51.89,0,0,1-6.32-5.81c-2.73-2.67-5.25-5.53-7.72-8.44A161,161,0,0,1,126,392.55c-1.83-2.81-3.51-5.72-5.12-8.67a101.24,101.24,0,0,1-7.48-17.6c-1.06-3.27-2.22-6.52-3-9.88a7.36,7.36,0,0,1,.31-4.51,10.1,10.1,0,0,0,.61-5.71,60.37,60.37,0,0,0-1.49-6.14,42.48,42.48,0,0,1-.83-5.13c-.36-2.32-.56-4.67-.94-7-.36-2.16-.54-4.34-.82-6.51a24.7,24.7,0,0,1-.27-2.59c0-.85.31-1.63.3-2.46a.33.33,0,0,1,.4-.36c.2,0,.27.18.3.35.34,1.87.69,3.73,1,5.6.36,2.08.69,4.16,1.06,6.23.46,2.6,1,5.19,1.45,7.78a189.34,189.34,0,0,0,4.38,19,144,144,0,0,0,5.17,14.38c1.43,3.42,3.14,6.69,4.8,10a57.05,57.05,0,0,0,4.45,7.17,7.9,7.9,0,0,1,1.45,4.16,13.77,13.77,0,0,0,1.31,4.63,28.75,28.75,0,0,0,4.23,6.72c3.47,4.22,6.71,8.62,10.13,12.87,1.9,2.35,3.95,4.57,5.86,6.91,1.1,1.35,2.34,2.58,3.32,4A.66.66,0,0,1,156.8,426.5Z"/><path class="cls-2" d="M343.37,529.58a3.61,3.61,0,0,1-.87,0c-.46-.1-.72-.24-.66-.92a4.31,4.31,0,0,1,1.92-3.18c2.93-2.16,5.91-4.25,8.81-6.45,2-1.5,3.86-3.13,5.78-4.7,2.79-2.28,5.42-4.74,8-7.23,1.29-1.22,2.68-2.37,3.85-3.71,2.14-2.47,4.49-4.75,6.6-7.26s4.3-5.14,6.33-7.8c2.72-3.56,5.14-7.32,7.64-11s4.79-7.27,7.3-10.82c3-4.29,6.2-8.49,9.32-12.71a64.42,64.42,0,0,0,5.74-8.7c.17-.33.25-.89.85-.68s.57.61.23,1.24c-1.87,3.48-3.62,7-5.57,10.44-1.06,1.87-2.06,3.78-3.11,5.67q-2.73,5-5.67,9.79c-2.1,3.43-4.26,6.82-6.54,10.13-2.43,3.55-5,7-7.69,10.36q-3.23,3.94-6.66,7.7c-1.09,1.19-2.18,2.4-3.35,3.51-2.31,2.19-4.66,4.34-7.09,6.41a108.43,108.43,0,0,1-11.4,8.38c-1.11.72-2.26,1.38-3.4,2.07-.77.47-.76,1,0,1.46a2.09,2.09,0,0,0,.23.08c.35.18.95.1,1,.55s-.52.68-.87.92q-3.72,2.58-7.47,5.13c-.55.37-1.12.71-1.68,1.07A2.47,2.47,0,0,1,343.37,529.58Z"/><path class="cls-2" d="M93.41,292.46a10.41,10.41,0,0,1,.66,3.08,22.46,22.46,0,0,1-.55,5.67q-.84,4.57-1.7,9.13c-.56,2.92-1.14,5.83-1.68,8.75-.62,3.37-1.22,6.74-1.83,10.11a2.63,2.63,0,0,1-.36.91A88.49,88.49,0,0,1,93.41,292.46Z"/><path class="cls-2" d="M146.65,428.93q18.82,14.79,37.42,29.41s0,.14-.08.34c-.83-.49-1.63-.95-2.41-1.45-3.36-2.2-6.76-4.35-10-6.69s-6.56-4.76-9.73-7.29c-2.88-2.3-5.66-4.69-8.42-7.14-2.27-2-4.34-4.21-6.51-6.31A.74.74,0,0,1,146.65,428.93Z"/><path class="cls-2" d="M261.67,473.15a3.86,3.86,0,0,1,1.32-.79,42.87,42.87,0,0,0,10.35-6.56,66.63,66.63,0,0,0,5.72-5.55c1.6-1.67,3-3.53,4.47-5.31.17-.2.29-.41.57-.36a.55.55,0,0,1,.07.6,24.19,24.19,0,0,1-4.61,8.16,31.09,31.09,0,0,1-6.45,5.79,23.26,23.26,0,0,1-9.56,4A11.54,11.54,0,0,1,261.67,473.15Z"/><path class="cls-2" d="M140.94,369.74q9.92,14.28,19.5,28.82c-.35.25-.52.08-.64-.07C152.24,389.75,145.57,380.42,140.94,369.74Z"/><path class="cls-2" d="M150.94,394.26a.78.78,0,0,1-.55.83c-.34.18-.57,0-.73-.26-.67-1-1.34-2.09-2-3.15q-3.22-5.24-6.43-10.48c-1.58-2.58-3.14-5.17-4.76-7.73-.36-.58-.06-.77.33-1.09.56-.46.73,0,.93.34q1.81,2.89,3.6,5.81l5.52,9,3.85,6.24C150.81,394,150.88,394.15,150.94,394.26Z"/><path class="cls-2" d="M442.22,293.75c.13.76-.18,1-.62,1.14s-.7-.21-.85-.65c-.92-2.71-1.84-5.42-2.79-8.12-1.41-4-2.84-8.05-4.26-12.07a2.42,2.42,0,0,1-.12-.35c0-.32.2-.43.42-.55s.48,0,.59.24c.3.73.58,1.46.86,2.2q2.42,6.53,4.84,13.05c.58,1.55,1.18,3.09,1.77,4.64Z"/><path class="cls-2" d="M334.17,535.79c-.38.73-1.08.84-1.64,1.11-1.72.83-3.47,1.59-5.2,2.38l-.57.26c-.89.33-1.15.25-1.54-.44a1.29,1.29,0,0,1,.27-1.87,6.12,6.12,0,0,1,1.64-.86,20.12,20.12,0,0,1,4.71-1A4.43,4.43,0,0,1,334.17,535.79Z"/><path class="cls-2" d="M174.67,481.22a.5.5,0,0,1-.81.48l-7-4-2.7-1.54-1.17-.71c-.25-.15-.57-.31-.38-.66s.57-.36.95-.13c.61.36,1.24.67,1.86,1l8.58,4.79C174.3,480.62,174.71,480.72,174.67,481.22Z"/><path class="cls-3" d="M370.31,218.55c-.05.15-.14.22-.27.18a.41.41,0,0,1-.3-.33.17.17,0,0,1,.2-.22A.39.39,0,0,1,370.31,218.55Z"/><path class="cls-3" d="M270.47,536s0-.08,0-.08a.35.35,0,0,1,.11,0s0,.09,0,.09A.25.25,0,0,1,270.47,536Z"/><polygon class="cls-3" points="411.82 406.04 411.88 405.94 411.93 405.98 411.82 406.04"/><path class="cls-2" d="M366.74,460c.27.53,0,.86-.07,1.22-.21,1-.38,1.95-.65,2.9-.2.72-.18,1.32.51,1.74.43.26.24.54.1.84-.84,1.67-1.62,3.38-2.53,5a108.2,108.2,0,0,1-5.84,9.25c-1.85,2.65-3.87,5.16-5.92,7.66a133.38,133.38,0,0,1-10.09,10.5c-1.59,1.56-3.33,3-5,4.41-2.66,2.25-5.43,4.35-8.23,6.41-3.54,2.6-7.22,5-10.92,7.36-.81.51-1.63,1-2.43,1.52-.21.13-.45.35-.67.21a6.25,6.25,0,0,1-1.92-1.91c-.17-.27.07-.54.33-.72,2.18-1.5,4.24-3.17,6.32-4.8,1.79-1.41,3.53-2.89,5.25-4.37,1.95-1.66,3.87-3.37,5.8-5.06l.37-.34c3.26-3.27,6.61-6.45,9.76-9.82,2.43-2.6,4.79-5.27,7.1-8,2.88-3.36,5.7-6.78,8.42-10.27,2.4-3.06,4.68-6.21,7-9.33.89-1.2,1.72-2.44,2.59-3.64A8.87,8.87,0,0,1,366.74,460Z"/><path class="cls-2" d="M354.44,457.82a3.48,3.48,0,0,1-.21,1.54,37.92,37.92,0,0,1-3.17,6.88c-1.15,2.06-2.35,4.09-3.66,6.06-1.44,2.17-2.93,4.31-4.56,6.35a48.57,48.57,0,0,1-4.4,4.89,7.47,7.47,0,0,1-2.78,1.79c.09-.77,3.25-5.52,6-9.24,2.21-3,4.31-6.09,6.39-9.18S352.2,460.79,354.44,457.82Z"/><path class="cls-2" d="M321.78,501.83c-.45,0-.68-.41-.92-.73s0-.47.18-.64c.84-.81,1.49-1.78,2.31-2.6,2.34-2.35,4.47-4.9,6.76-7.29.72-.74,1.38-1.55,2.1-2.29.32-.34.6-.38.94,0,1.75,1.74,1.72,1.51,0,3-1.54,1.34-2.88,2.86-4.41,4.2-2.1,1.83-4,3.82-6,5.78A2.61,2.61,0,0,1,321.78,501.83Z"/><path class="cls-2" d="M349.39,496.57a1.42,1.42,0,0,1-.64.86c-1.13,1-2.28,1.92-3.42,2.88l-4.1,3.41-5.72,4.77c-.44.37-.86.77-1.32,1.13a.64.64,0,0,1-1-.1c-.37-.41-.13-.69.17-.94,1.05-.87,2.1-1.74,3.16-2.6l5-4.07,6.91-5.66c.19-.16.37-.37.65-.22A.57.57,0,0,1,349.39,496.57Z"/><path class="cls-2" d="M177.9,537a.7.7,0,0,1-1,.72c-2-.89-4.09-1.78-6.13-2.69-1.17-.52-2.32-1.08-3.49-1.59-.38-.17-.88-.18-.67-.8s.52-.61,1.22-.31l4,1.73c1.74.75,3.49,1.49,5.23,2.26C177.37,536.43,177.85,536.5,177.9,537Z"/><path class="cls-2" d="M108.46,202.08c0,.23-.15.37-.28.53-.83,1.08-1.65,2.16-2.5,3.23-1.17,1.45-2.35,2.88-3.52,4.32-1.75,2.15-3.5,4.29-5.24,6.44-.88,1.09-1.76,2.18-2.63,3.28-.59.76-.7.8-1.54.41-1.36-.62-1.44-.85-.38-1.87,1.41-1.35,2.62-2.88,4-4.28,2-2.09,3.8-4.37,5.8-6.46,1.29-1.34,2.46-2.79,3.8-4.09a14.62,14.62,0,0,0,1.46-1.69.58.58,0,0,1,.77-.2A.48.48,0,0,1,108.46,202.08Z"/><path class="cls-2" d="M65.82,265.38a16,16,0,0,1,.93-3.87A47.27,47.27,0,0,1,69,256.78c.78-1.56,1.58-3.11,2.32-4.7.19-.41.38-.64.82-.49a.71.71,0,0,1,.42,1c-.43,1.16-.9,2.32-1.34,3.48-1.1,2.86-2.19,5.73-3.28,8.59a10.29,10.29,0,0,0-.4,1.05.9.9,0,0,1-1.18.76C65.63,266.34,66,265.76,65.82,265.38Z"/><path class="cls-2" d="M131.07,186.82a.85.85,0,0,1-.58-.36c-.18-.22,0-.38.1-.54a20.1,20.1,0,0,1,2.62-2.08c3.19-2.49,6.41-5,9.63-7.41,1.11-.85,2.3-1.61,3.33-2.57a3.07,3.07,0,0,1,.43-.26c.42-.28.7-.06.94.26s0,.63-.26.83c-1.38,1.05-2.78,2.09-4.16,3.13L132.23,186C131.84,186.32,131.42,186.58,131.07,186.82Z"/></g></svg>